/* XPM */
static char *result[] = {
/* columns rows colors chars-per-pixel */
"100 38 97 2 ",
"   c #000000",
".  c #000112",
"X  c #020A17",
"o  c #020B1B",
"O  c #031417",
"+  c #031522",
"@  c #061E26",
"#  c #082227",
"$  c #09252A",
"%  c #0C2E3C",
"&  c #001E40",
"*  c #0F2F46",
"=  c #12374E",
"-  c #133950",
";  c #003861",
":  c #1F5A6C",
">  c #014875",
",  c #235B7D",
"<  c #23667B",
"1  c #276586",
"2  c #28698A",
"3  c #419EB3",
"4  c #41A9B4",
"5  c #0484D1",
"6  c #0A86D2",
"7  c #0F88D2",
"8  c #1185D1",
"9  c #1D86D2",
"0  c #178CD3",
"q  c #1E91D5",
"w  c #2387D2",
"e  c #2988D2",
"r  c #358BD3",
"t  c #3D8CD3",
"y  c #2294D5",
"u  c #2B9BD8",
"i  c #33A4DB",
"p  c #37A8DC",
"a  c #3CAEDE",
"s  c #3FB2DF",
"d  c #3EB1E1",
"f  c #448FD4",
"g  c #4A91D4",
"h  c #5495D6",
"j  c #5A97D6",
"k  c #5F99D7",
"l  c #629AD7",
"z  c #659CD8",
"x  c #6B9ED9",
"c  c #40A5C7",
"v  c #46AEC1",
"b  c #46BAC1",
"n  c #4AB4CA",
"m  c #4AB8CB",
"M  c #4EBCD4",
"N  c #46B7DC",
"B  c #49BBDF",
"V  c #6FA0D9",
"C  c #74A3DA",
"Z  c #7AA6DB",
"A  c #7EA8DC",
"S  c #43B7E1",
"D  c #44B9E2",
"F  c #48BDE4",
"G  c #4BC3CD",
"H  c #4EC3D4",
"J  c #4ECCD5",
"K  c #4BC2E6",
"L  c #4CC4E9",
"P  c #84ABDD",
"I  c #89AEDE",
"U  c #8EB1DF",
"Y  c #92B3DF",
"T  c #95B5E0",
"R  c #9CB9E2",
"E  c #A4BEE4",
"W  c #A7C0E4",
"Q  c #ACC3E5",
"!  c #B1C6E7",
"~  c #B3C8E7",
"^  c #B6CAE8",
"/  c #BBCEE9",
"(  c #BFD0EA",
")  c #C4D4EC",
"_  c #C8D6ED",
"`  c #CCD9EE",
"'  c #D0DCEF",
"]  c #D3DEF0",
"[  c #D6E0F1",
"{  c #DAE4F3",
"}  c #E2E9F5",
"|  c #E8EEF7",
" . c #EAEFF8",
".. c #EEF2F9",
"X. c #F2F5FB",
"o. c #F6F8FC",
"O. c #FFFFFF",
/* pixels */
"J J G   O O O O O O O O O O O O O O O O O O O O O O O O O O O O O O O O O O O O O O O o O O O O O O O O + O o O O O o O O o O O O O O O O O o o O O O o O O O o O O o o O O o O O O O o O O O   m H H H ",
"J J G X @ # # @ @ @ @ # # @ @ # @ @ @ @ @ @ @ @ # @ # @ + + + + @ @ @ @ @ @ @ + + + + + + @ @ @ @ + o + + + + + o + + + + + + + + + + o + + + + + + + + + + + + + + + + + + + + + + + + + + + . n M H M ",
"J   % L L K K K K L K K K L K K L L K H L L L K L L K K i 5 5 5 F L L L L K L i 5 5 5 5 5 L L L d 5 5 5 5 5 5 5 5 5 5 5 5 5 5 5 5 5 5 5 5 5 5 5 5 5 5 5 5 5 5 5 5 5 5 5 5 5 5 5 5 5 5 5 5 5 5 5 &   H H ",
"b : < D S S S s S S S S S S S S S S S a S S N S S S d a y 5 5 5 S S S S S S S u 5 5 5 5 5 S S S p 5 5 5 5 5 5 5 5 5 5 5 5 5 5 5 5 5 5 5 5 5 5 5 5 5 5 5 5 5 5 5 5 5 5 5 5 5 5 5 5 5 6 y q y 7 5 > ; v v ",
"  L F 5 5 5 5 5 5 5 5 5 5 5 5 5 5 5 5 5 5 5 5 5 5 5 5 5 5 5 5 5 5 5 5 5 5 5 5 5 5 5 5 5 5 5 5 5 5 5 5 5 5 5 5 5 5 5 5 5 5 5 5 5 5 5 5 5 5 5 5 5 5 5 5 5 5 5 5 5 5 5 5 5 5 5 5 5 5 5 q K K F u 5 5 5   $ ",
"  K F 5 5 5 5 5 5 5 5 5 5 5 5 5 5 5 5 5 5 5 5 5 5 5 5 5 5 5 5 5 5 5 5 5 5 5 5 5 5 5 5 5 5 5 5 5 5 5 5 5 5 5 5 5 5 5 5 5 5 5 5 5 5 5 5 5 5 5 5 5 5 5 5 5 5 5 5 5 5 5 5 5 5 5 5 5 5 5 0 i N L a p 7 5   $ ",
"  K K 5 5 5 5 5 5 5 5 5 5 5 5 5 5 5 5 5 5 5 5 6 5 5 5 5 5 5 5 5 5 5 6 5 5 5 5 5 5 5 5 5 5 5 5 5 5 5 5 5 5 5 5 5 5 5 5 5 5 5 5 5 5 5 5 5 5 5 5 5 5 5 5 5 5 5 5 5 5 5 5 5 5 5 5 5 5 5 5 5 i F L F 0 5   $ ",
"  K F 5 5 5 5 5 5 5 5 5 5 5 5 5 5 5 5 5 5 5 5 l ) ) _ ) E e 5 5 5 g ) ) I 5 5 z ) ) Z 5 h ) Q 5 l ) ) ) ^ T 0 5 5 5 P ) ] / k 5 5 z ) ) / 5 5 Z ) ) Q 5 5 5 5 5 5 5 5 5 5 5 5 5 5 5 5 5 8 y N F 0 5   $ ",
"  K F 5 5 5 5 5 5 5 5 5 5 5 5 5 5 5 5 5 5 6 5 P O.O.O.O.O.{ 8 5 5 ! O.O.{ 5 5 P O.O.| 8 C O.} 5 P O.O.O.O.O.| t 5 / O.O.O.O.O.P 5 P O.O.O.j 5 _ O.O.{ 5 5 5 5 5 5 5 5 5 5 5 5 5 5 5 5 5 5 5 a L 0 5   $ ",
"  K F 5 5 5 5 5 5 5 5 5 5 5 5 5 5 5 5 5 5 5 6 P O.O.5 Y O.O.l 5 5 } O.O.O.j 5 P O.O.O.E V O.} 5 P O.O.g A o.O.) V O.O.T e ' O. .5 P O.O.O.Q 5  .O.O.} 5 5 5 5 5 5 5 5 5 5 5 5 5 5 5 5 5 5 5 5 5 5 5   $ ",
"  K S 5 5 5 5 5 5 5 5 5 5 5 5 5 5 5 5 5 5 5 5 P O.O.5 Z O.O.g 5 k O.{ } O.! 5 P O.X.O.X.P O.} 5 P O.O.9 5 ` O.} Q O.X.5 5 P O.O.h P O. .O.[ V O.| O.{ 8 5 5 5 5 5 5 5 5 5 5 5 5 5 5 5 5 5 5 5 5 5 5   $ ",
"  K B 5 5 5 5 5 5 5 5 5 5 5 5 5 5 5 6 5 5 5 5 P O.O.} O.O.^ 5 5 ~ O.Q ! O.| 5 P O.[ { O.{ O.} 5 P O.O.9 5 / O...) O.} 5 5 C O.O.Z P O.' X.O.) O.) O.{ 5 5 5 5 5 5 5 5 5 5 5 5 5 5 5 5 5 5 5 5 5 5 5   $ ",
"  D S 5 5 5 5 5 5 5 5 5 5 5 5 5 5 6 5 5 5 5 5 P O.O._ O.O.l 6 5 | O.' ' O.O.z P O.[ z O.O.O.} 5 P O.O.9 5 ` O.{ Q O.X.5 5 I O.O.f P O.' ` O.o.} ~ O.} 5 5 5 5 5 5 5 5 5 5 5 5 5 5 5 5 5 5 5 5 5 5 5 . $ ",
"  5 5 5 5 5 5 5 5 5 5 5 5 5 5 5 5 5 5 5 5 5 5 P O.O.9 [ O.' 5 V O.O.X.X.O.O.^ P O.[ 5 ) O.O.} 5 P O.O.k I o.O.^ Z O.O.R f ] O.| 5 P O.` Y O.O.~ ~ O.} 5 5 5 5 5 5 5 5 5 5 5 5 5 5 5 5 5 5 5 5 5 5 5   $ ",
"  5 5 5 5 5 5 5 5 5 5 5 5 5 5 5 5 5 5 5 5 5 5 P O.O.9 Z O.O.x ) O./ 5 5 ~ O.| P O.[ 5 f X.O.} 5 P O.O.O.O.O.{ e 5 ) O.O.O.O.o.C 5 P O.' f O.O.x ~ O.{ 6 8 5 5 5 5 5 5 5 5 5 5 5 5 5 5 5 5 5 5 5 5 5   $ ",
"  5 5 5 5 5 5 5 5 5 5 5 5 5 5 5 6 6 5 5 5 5 5 k / / 8 5 W / I E / z 5 5 j / / V / R 5 5 U / E 5 k / / / Q P 5 5 5 5 P ( ` ! g 5 5 l / Y 5 W ~ 6 P / E 5 5 5 5 5 5 5 5 5 5 5 5 5 5 5 5 5 5 5 5 5 5 5   $ ",
"  5 5 5 5 5 5 5 5 5 5 5 5 5 5 5 5 5 5 5 5 5 5 5 5 5 5 6 5 5 5 5 5 5 5 6 5 5 5 5 5 5 5 5 5 5 5 5 5 5 5 5 5 5 5 6 5 5 5 6 5 5 5 5 5 5 5 5 6 5 5 5 5 5 5 5 5 5 5 5 5 5 5 5 5 5 5 5 5 5 5 5 5 5 5 5 5 5   $ ",
"  5 5 5 5 5 5 5 5 5 5 5 5 5 5 5 5 5 5 5 5 5 5 5 5 5 5 6 5 5 5 6 5 5 5 5 5 5 5 5 5 6 5 5 5 5 5 5 5 5 5 6 5 5 5 5 5 5 5 5 5 5 5 5 5 5 5 5 5 5 5 5 6 5 5 5 5 5 5 5 5 5 5 5 5 5 5 5 5 5 5 5 5 5 5 5 5 5   $ ",
"  5 5 5 5 5 5 5 5 5 5 5 5 5 5 5 5 5 5 5 6 5 5 5 6 5 5 5 6 5 5 5 5 5 5 5 5 6 5 5 5 5 5 5 5 5 5 5 5 5 5 5 5 5 5 5 5 6 5 5 5 5 6 5 5 5 5 5 5 5 5 5 5 5 5 6 5 5 5 5 5 5 5 5 5 5 5 5 5 5 5 5 5 5 5 5 5 5 . $ ",
"  5 5 5 5 5 5 5 5 5 5 5 5 5 5 5 5 5 5 5 5 5 5 5 5 5 5 5 5 5 5 5 5 6 5 5 5 5 5 5 5 5 5 6 5 5 5 5 5 5 5 5 5 5 5 5 5 5 5 5 5 5 5 5 5 5 5 5 5 5 6 5 6 5 5 6 5 5 5 5 5 5 5 5 5 5 5 5 5 5 5 5 5 5 5 5 5 5   $ ",
"  5 5 5 5 5 5 5 5 5 5 5 5 5 5 5 5 5 5 5 5 6 6 5 5 5 5 5 5 Q _ Y 5 5 h ) / 5 Z ) ] _ Y 5 5 5 5 z _ ) ) ) E r 5 5 5 P ) ' ) z 5 5 Q ) ) ) ) _ ~ 5 5 5 5 5 6 5 5 5 5 5 5 5 5 5 5 5 5 5 5 5 5 5 5 5 5 5   $ ",
"  5 5 5 5 5 5 5 5 5 5 5 5 5 5 5 5 5 5 5 5 5 5 5 5 5 5 6 5 ~ O.| 5 5 E O.' P O.O.O.O.} 5 5 5 5 I O.O.X.O.O.{ 5 5 ^ O.O.O.o.o.I 5 { O.O.O.O.O.} 5 5 5 5 5 5 5 5 5 5 5 5 5 5 5 5 5 5 5 5 5 5 5 5 5 5 5   $ ",
"  5 5 5 5 5 5 5 5 5 5 5 5 5 5 5 5 5 5 5 5 5 5 5 5 5 5 5 5 l O.O.l 5 ] O.Y ) O.] e f Z 5 5 5 6 P O.O.5 Y O.O.5 C O.O.Y e ' O...5 t f ` O.{ f f 5 5 6 5 5 5 5 5 5 5 5 5 5 5 5 5 5 5 5 5 5 5 5 5 5 5 5   $ ",
"  5 5 5 5 5 5 5 5 5 5 5 5 5 5 5 5 5 5 5 5 6 5 5 5 5 5 5 5 5 } O.! t O.O.e / O.o.` E r 5 5 5 5 P O.O.Z _ O.' 5 Q O.X.5 5 P O.O.h 5 5 _ O.[ 5 5 5 5 5 5 5 5 5 5 5 5 5 5 5 5 5 5 5 5 5 5 5 5 5 5 5 5 5   $ ",
"  5 5 5 5 5 5 5 5 5 5 5 5 5 5 5 5 5 5 5 5 5 5 5 5 5 5 5 5 5 ! O.} Y O.` 5 x ..O.O.O.| w 5 5 5 P O.O.O.O.o.Y 5 ( O.| 5 5 C O.O.Z 5 5 _ O.[ 5 5 5 5 5 5 5 5 5 5 5 5 5 5 5 5 5 5 5 5 5 5 5 5 5 5 5 5 5 . $ ",
"  5 5 5 5 5 5 5 5 5 5 5 5 5 5 5 5 5 5 5 5 5 5 5 5 5 5 5 5 5 j O.O.{ O.Y 5 5 w Y ` O.O.C 5 5 5 P O.O.w I O.o.V ! O.X.5 5 I O.O.f 5 5 _ O.{ 5 5 5 5 5 5 5 5 5 5 5 5 5 5 5 5 5 5 5 5 5 5 5 5 5 5 5 5 5   $ ",
"  5 5 5 5 5 5 5 5 5 5 5 5 5 5 5 5 5 5 5 5 5 5 5 6 5 5 5 5 5 5 } O.O.X.9 5 I Y h P O.O.x 6 5 5 P O.O.5 Z O.O.Y Z O.O.Y f ] O.| 5 5 5 _ O.{ 5 5 5 5 5 5 5 5 5 5 5 5 5 5 5 5 5 5 5 5 5 5 5 5 5 5 5 5 5   $ ",
"  5 5 5 5 5 5 5 5 5 5 5 5 5 5 5 5 5 5 5 5 5 5 5 5 5 5 5 5 5 5 Q O.O.` 5 5 ` O.O.O.O.} 7 5 5 5 P O.O.O.O.O...f 5 ) O.O.O.O.o.C 5 5 5 _ O.[ 5 5 5 5 5 5 5 5 5 5 5 5 5 5 5 5 5 5 5 5 5 5 5 5 5 5 5 5 5   $ ",
"  5 5 5 5 5 5 5 5 5 5 5 5 5 5 5 5 5 5 5 5 5 5 5 5 5 5 5 5 5 5 g / / V 5 5 x / ` _ W r 5 5 5 5 k / ^ / ^ Y t 6 5 5 P ( _ ! g 5 5 5 5 Y / R 5 5 5 5 5 5 5 5 5 5 5 5 5 5 5 5 5 5 5 5 5 5 5 5 5 5 6 5 5   $ ",
"  L F 5 5 5 5 5 5 5 5 5 5 5 5 5 5 5 5 5 5 5 5 5 5 5 5 5 5 5 5 5 5 5 5 5 5 5 5 5 5 5 5 5 5 5 5 5 5 5 5 5 5 5 5 5 5 5 5 5 5 5 5 5 5 5 5 5 5 5 5 5 5 5 5 5 5 5 5 5 5 5 5 5 5 5 5 5 5 5 5 5 5 5 5 5 K L   $ ",
"  F N 0 0 0 0 0 0 0 0 0 0 0 0 0 9 0 0 0 0 0 0 0 9 0 0 0 0 0 0 0 0 0 0 0 0 0 0 0 0 0 0 0 0 0 0 0 0 0 0 0 0 0 0 0 0 0 0 0 0 0 9 0 0 0 0 0 0 0 0 0 0 0 0 0 0 0 0 0 0 0 0 0 0 0 8 8 0 0 0 0 0 0 w 0 B B   $ ",
"  , 1 L K K K K H K K K K K K K B F K K K H K K K K K K K K K K K K F K K K K K H K K K K K K K K K K K K K K K K K K K K K K K K K K K K K K K K F K H K K K K K K K K K K K H K K K K K K L F 2 ,   $ ",
"  , 1 c c c c v c c c c c c c c c c c c c c c c c c c c c c c v c c c c c c c c c c c c c c c c c c c c c c c c c c c c c c c c c c c c c c c c c c c c c c c c c c c c c c c c c c c c c c c c 2 ,   $ ",
"  , , , , , , , , , , , , , , , , , , , , , , , , , , , , , , , , , , , , , , , , , , , , , , , , , , , , , , , , , , , , , , , , , , , , , , , , , , , , , , , , , , , , , , , , , , , , , , , , ,   $ ",
"4 * = , , , , , , , , , , , , , , , , , , , , , , , , , , , , , , , , , , , , , , , , , , , , , , , , , , , , , , , , , , , , , , , , , , , , , , , , , , , , , , , , , , , , , , , , , , , , , - * 3 3 ",
"J   . , , 1 , , , , , , , , , , , , , , , , , , , , , , , 1 , , , , , , , , , , , , , < , , , , , , , , , , , , , , , , , , , , , , , , , , , , , , , , , , , , , , , , , , , , , , , , , , , , o   M M ",
"H G m . + @ + + @ + + @ + @ + + @ + + @ + @ + + o + @ + + @ + + + + + + O @ + + + @ + + + + + @ + + @ + + + + @ @ + @ + O @ + + @ + + + + + @ + @ O @ + + + + @ + @ + + + @ O @ @ + + @ O @ + X v n M M ",
"H J G                                                                                                                                                                                           n M M M "
};
