/* XPM */
static char *result[] = {
/* columns rows colors chars-per-pixel */
"100 38 107 2 ",
"   c #000000",
".  c #000310",
"X  c #041722",
"o  c #001A31",
"O  c #123546",
"+  c #143845",
"@  c #11354B",
"#  c #143C51",
"$  c #013D64",
"%  c #1B4A67",
"&  c #144E69",
"*  c #1F5C6E",
"=  c #235C7E",
"-  c #2C737F",
";  c #015285",
":  c #0A5786",
">  c #015F99",
",  c #02629D",
"<  c #266485",
"1  c #2B6F80",
"2  c #206A8C",
"3  c #2C7080",
"4  c #2B7390",
"5  c #2D7A92",
"6  c #348397",
"7  c #37839B",
"8  c #378C9A",
"9  c #3988A2",
"0  c #3487A8",
"q  c #358BA9",
"w  c #3E97AC",
"e  c #3E9CAC",
"r  c #3DA0BF",
"t  c #4194B4",
"y  c #409DB2",
"u  c #439FBC",
"i  c #0484D1",
"p  c #0C87D2",
"a  c #0F88D2",
"s  c #1185D1",
"d  c #1D86D2",
"f  c #178CD3",
"g  c #1F92D5",
"h  c #359ECC",
"j  c #2387D2",
"k  c #2A88D2",
"l  c #358BD3",
"z  c #3C8DD3",
"x  c #2395D6",
"c  c #2D9ED9",
"v  c #3FA5C8",
"b  c #34A0D3",
"n  c #35A6DB",
"m  c #39AADD",
"M  c #448FD4",
"N  c #4B91D4",
"B  c #5595D6",
"V  c #5A97D6",
"C  c #5E98D7",
"Z  c #629AD7",
"A  c #659CD8",
"S  c #6B9ED9",
"D  c #48A4C7",
"F  c #46AEC0",
"G  c #41A7C9",
"H  c #4BB2CE",
"J  c #4BBACD",
"K  c #4DAED3",
"L  c #4DB5D3",
"P  c #4EBBD3",
"I  c #6FA0D9",
"U  c #74A3DA",
"Y  c #7AA6DB",
"T  c #7EA8DC",
"R  c #42B5E0",
"E  c #46BAE2",
"W  c #4ABFE5",
"Q  c #4EC0D4",
"!  c #4BC1E5",
"~  c #84ABDD",
"^  c #89AEDE",
"/  c #8DB1DF",
"(  c #96B5E0",
")  c #99B7E1",
"_  c #9BB9E1",
"`  c #A3BDE4",
"'  c #A7C0E4",
"]  c #ACC3E5",
"[  c #B0C6E7",
"{  c #B3C8E7",
"}  c #B6CAE8",
"|  c #BBCEE9",
" . c #BFD0EA",
".. c #C4D4EC",
"X. c #C9D7ED",
"o. c #CCD9EE",
"O. c #D0DCEF",
"+. c #D2DEF0",
"@. c #D6E0F1",
"#. c #DCE5F3",
"$. c #E2E9F5",
"%. c #E8EEF7",
"&. c #EAEFF8",
"*. c #EDF2F9",
"=. c #F3F6FB",
"-. c #F6F8FC",
";. c #FFFFFF",
/* pixels */
"Q Q Q Q Q Q Q Q Q P Q Q P Q Q Q P Q Q Q P Q Q P Q P P Q P P P P P P P P P P P P P P P P P P P P P P P P P P P P L P P L P P P L L P L P P L P L P L L L P L P L L L L L L L L L L L L L L L L L L L L L ",
"Q Q Q P Q P P Q Q P Q P P Q P J P P P P P P P P P P P P P P P P P P P P P P P P P P L P P L L P L P L L L P L P L L L P L L P L P L L L L L L L L L L L L L L L L L L L L L L L L L L K L L L L L K L L ",
"Q Q Q -                                                                                                                                                                                         K L L K ",
"Q J F 6 * * * * * * * * * * * * * * * * * * * * * * * * * $ $ $ & * * * * * * * $ $ $ $ $ * * * * $ $ $ $ $ $ $ $ $ $ $ $ $ $ $ $ $ $ $ $ $ $ $ $ $ $ $ $ $ $ $ $ $ $ $ $ $ $ $ $ $ $ & $ $ $ $ u D L L ",
"Q e   r ! ! ! ! ! ! ! ! ! ! ! ! ! ! ! ! ! ! ! ! ! ! ! ! W i i i n ! ! ! ! ! ! E i i i i i E ! ! ! i i i i i i i i i i i i i i i i i i i i i i i i i i i i i i i i i i i i i i i i i i i i i i i o   L L ",
"8 8 q h n n n n n n n n n n n m n n n n n m n n n m n n n i i i x n n n n n n n i i i i i n n n n i i i i i i i i i i i i i i i i i i i i i i i i i i i i i i i i i i i i i i i i i f n n n g i , > 7 9 ",
"  5 ! c i i i i i i i i i i i i i i i i i i i i i i i i i i i i p i i i i i i i i i i i i i i i i i i i i i i i i i i i i i i i i i i i i i i i i i i i i i i i i i i i i i i i i i g ! ! ! x i i i   + ",
"  5 ! c i i i i i i i i i i i i i i i i i i i i i i i i i i i i i i i i i i i i i i i i i i i i i i i i i i i i i i i i i i i i i i i i i i i i i i i i i i i i i i i i i i i i i i p g m ! E E p i   + ",
"  5 ! x i i i i i i i i i i i i i i i i i i A ......| ` l i i i N ..../ i i A ....Y i V ..] i A ......| ( d i i i ~ ..+.| Z i i A ....| i i Y ....] i i i i i i i i i i i i i i i i i i m ! ! ! s i   + ",
"  5 ! c i i i i i i i i i i i i i i i i i i ~ ;.;.;.;.;.$.s i i ] ;.;.$.i i ~ ;.;.%.p U ;.$.i ~ ;.;.;.;.;.%.z i | ;.;.;.;.-.^ i ~ ;.;.;.V i ..;.;.#.i i i i i i i i i i i i i i i i i i i i R ! a i   + ",
"  5 ! c i i i i i i i i i i i i i i i i i i ~ ;.;.i ) ;.-.Z i i $.;.;.;.V i ~ ;.;.;.` U ;.$.i ~ ;.;.N T -.;...U ;.;.( k o.;.=.i ~ ;.;.;.' i *.;.;.$.i i i i i i i i i i i i i i i i i i i i m ! a i   + ",
"  5 ! c i i i i i i i i i i i i i i i i i i ~ -.;.i U ;.;.N i Z ;.#.$.;.[ i ~ ;.=.;.=.~ ;.$.i ~ ;.;.d i X.;.$.] ;.=.i i ~ ;.;.B ~ ;.&.;.#.U ;.%.;.$.i i i i i i i i i i i i i i i i i i i i i i i i   + ",
"  5 ! c i i i i i i i i i i i i i i i i i i ~ ;.;.%.;.;...i i { ;.] ] ;.$.i ~ ;.@.@.;.@.;.$.i ~ ;.;.d i | ;.*...;.%.i i I ;.;.Y ~ ;.O.=.-.| ;...;.$.i i i i i i i i i i i i i i i i i i i i i i i i   # ",
"  5 ! c i i i i i i i i i i i i i i i i i i ~ ;.;.X.;.-.S i i $.;.+.+.;.;.S ~ ;.@.S ;.;.;.$.i ~ ;.;.j i o.;.#.] ;.=.i i ^ ;.;.M ~ ;.o.o.;.;.#.} ;.$.i i i i i i i i i i i i i i i i i i i i i i i i   + ",
"  2 m g i i i i i i i i i i i i i i i i i i ~ ;.;.d +.;.O.i S ;.;.=.=.;.;.} ~ ;.@.i ..;.;.$.i ~ ;.;.C ^ -.;.} U ;.;._ M +.;.%.i ~ ;.O.) ;.;.{ } ;.$.i i i i i i i i i i i i i i i i i i i i i i i i   + ",
"  ; i i i i i i i i i i i i i i i i i i i i ~ ;.;.d Y ;.-.S ..;.| i i } ;.&.~ ;.@.i M =.;.$.i ~ ;.;.;.;.;.@.k i ..;.;.;.;.-.U i ~ ;.O.l ;.;.S { ;.$.i i i i i i i i i i i i i i i i i i i i i i i i   + ",
"  ; i i i i i i i i i i i i i i i i i i i i C | | s i [ | / ` ..A i i V | | I | ` i i / | ` i Z | | | ] ~ i i i i ^ ..X.` N p i A | ) i ] } p ~ | ` i i i i i i i i i i i i i i i i i i i i i i i i   + ",
"  ; i i i i i i i i i i i i i i i i i i i i i i i p i i i i p i i i i p i i i i i i i p i i i i i i i i i i i i i i i i p i i i i i i i i i i i i i i i i i i i i i i i i i i i i i i i i i i i i i   + ",
"  ; i i i i i i i i i i i i i i i i i i i i i i i i i i i i i i i i i i i i i i i i i i i i i i i i i i p i i i i i i i s i i i i i i i i i i i i i i p i i i i i i i i i i i i i i i i i i i i i i   + ",
"  ; i i i i i i i i i i i i i i i i i i i i i i i i i i i i i i i i i i i i i i i i i i i i i i i i i i i i i i s i i i i i i i i i i i i i i i i i i i i i i i i i i i i i i i i i i i i i i i i i   + ",
"  ; i i i i i i i i i i i i i i i i i i i i i i i i i i i i i i s i i i i i i i i i i i i i i i i i i i i i i i i i i i i i i i i i i i i i i i i i i i i i i i i i i i i i i i i i i i i i i i i i   + ",
"  ; i i i i i i i i i i i i i i ] .._ i i B .. .i T ..+.o.) i i i i A ........) j i A ....d i i p i N ..X.^ i i ` ..` i i ` ..~ A ..........Y A X......._ k i i i i i i i i i i i i i i i i i i i i   + ",
"  ; i i i i i i i i i i i i i i { ;.%.i i ' ;.O.T ;.;.;.;.$.i i i i ~ ;.;.;.;.;.$.d ~ ;.;.d i i i i [ ;.;.$.i i ( ;.;.V B -.=.M ~ ;.;.;.;.;._ ~ ;.;.;.;.;.$.s i i i i i i i i i i i i i i i i i i i   + ",
"  ; i i i i i i i i i i i i i i C ;.;.A i @.;.( ..;.+.k M Y i i i i ~ ;.;.j ) ;.;.Y ~ ;.;.j i i i i $.;.;.;.B i i $.;.....;.[ i ~ ;.;.M M M k ~ ;.;.i ( ;.;.Z i i i i i i i i i i i i i i i i i i i   + ",
"  ; i i i i i i i i i i i i i i i $.;.[ z -.-.k  .;.-.+.` l i i i i ~ ;.;.d A ;.;.~ ~ ;.;.d i i i C ;.#.$.;.[ i i ~ ;.-.;.=.l i ~ ;.;.' ] ^ i ~ ;.;.i U ;.-.N i i i i i i i i i i i i i i i i i i i   # ",
"  ; i i i i i i i i i i i i i i i ] ;.$._ ;.o.i S *.;.;.;.$.j i i i ~ ;.;.O.&.;.=.l ~ ;.;.d i i i } ;.] [ ;.$.i i i #.;.;.] i i ~ ;.;.;.;.X.i ~ ;.;.%.;.;.| i i i i i i i i i i i i i i i i i i i i   O ",
"  ; i i i i i i i i i i i i i i i B ;.;.#.;./ i i d ( o.;.;.Y i i i ~ ;.;.%.%.o.S i ~ ;.;.d i i i %.;.O.O.;.;.A i i ( ;.;.l i i ~ ;.;.U Y C i ~ ;.;.X.;.;.A i i i i i i i i i i i i i i i i i i i i   + ",
"  ; i i i i i i i i i i i i i i i i $.;.;.-.d i / / V ~ ;.;.S i i i ~ ;.;.j i i i i ~ ;.;.Z C V U ;.;.=.=.;.;.} i i ^ ;.;.i i i ~ ;.;.V V C z ~ ;.;.d @.;.O.i i i i i i i i i i i i i i i i i i i i   + ",
"  ; i i i i i i i i i i i i i i i i ' ;.;.X.i i X.;.;.;.;.$.s i i i ~ ;.;.d i i i i ~ ;.;.;.;.;.X.;.| i i } ;.%.i i ^ ;.;.i i i ~ ;.;.;.;.;.[ ~ ;.;.d Y ;.;.I i i i i i i i i i i i i i i i i i i i   + ",
"  ; i i i i i i i i i i i i i i i i N | | U i i S | X.X.' l i i i i Z | | s i i i i C | | | | | ] | A i i V | | z i A | } i i i C | | | | | ~ C | | p i ] } / i i i i i i i i i i i i i i i i i i i   + ",
"  : f p i i i i i i i i i i i i i i i i i i i i i i i i i i i i i i i i i i i i i i i i i i i i i i i i i i i i i i i i i i i i i i i i i i i i i i i i i i i i i i i i i i i i i i i i i i i i f f   + ",
"  5 ! c i i i i i i i i i i i i i i i i i i i i i i i i i i i i i i i i i i i i i i i i i i i i i i i i i i i i i i i i i i i i i i i i i i i i i i i i i i i i i i i i i i i i i i i i i i i i W !   + ",
"  < v b c c c c c c c n c c c c c c c c c c c c c c c c c c c c c c c c c c c c c c c c c c c c c c c c c c c c c c c c n c c c c c c c c c c c c c c c c c c c c c c c c c c c c c c c c c n c G G   + ",
"  @ = G ! ! ! ! ! ! W ! ! ! ! ! ! ! ! ! ! ! ! ! ! ! ! ! ! ! ! ! ! ! ! ! ! ! ! ! ! ! ! ! ! ! ! ! ! ! ! ! ! ! ! ! ! ! ! ! W W ! ! ! ! ! ! ! ! ! ! ! ! ! ! ! ! ! ! ! ! ! ! ! ! ! ! ! ! ! ! ! ! ! ! < =   + ",
"y 6 O 4 0 0 0 0 0 0 0 0 0 0 0 0 0 0 0 0 0 0 0 0 0 0 0 0 0 0 0 0 0 0 0 0 0 0 0 0 0 0 0 0 0 0 0 0 0 0 0 0 0 0 0 0 0 0 0 0 0 0 0 0 0 0 0 0 0 0 0 0 0 0 0 0 0 0 0 0 0 0 0 0 0 0 0 0 0 0 0 0 0 0 0 0 # O t t ",
"P w   % = = = = = = = = = = = = = = = = = = = = = = = = = = = = = = = = = = = = = = = = = = = = = = = = = = = = = = = = = = = = = = = = = = = = = = = = = = = = = = = = = = = = = = = = = = = =     K K ",
"P P H 1 X X X X X X X X X X X X X X X X X X X X X X X X X X X X X X X X X X X X X X X X X X X X X X X X X X X X X X X X X X X X X X X X X X X X X X X X X X X X X X X X X X X X X X X X X X X . D D K K ",
"P P P 3                                                                                                                                                                                         K K K K "
};
