/* XPM */
static char *_2e0def346504e7de5e24910eba7bc01LENvn6OnpieIYmWW[] = {
/* columns rows colors chars-per-pixel */
"100 38 113 2 ",
"   c #000000",
".  c #000310",
"X  c #041722",
"o  c #001A31",
"O  c #123546",
"+  c #143845",
"@  c #11354B",
"#  c #143C51",
"$  c #013D64",
"%  c #1B4A67",
"&  c #144E69",
"*  c #1F5C6E",
"=  c #235C7E",
"-  c #2C737F",
";  c #015285",
":  c #0A5786",
">  c #015F99",
",  c #02629D",
"<  c #266485",
"1  c #2B6F80",
"2  c #206A8C",
"3  c #2C7080",
"4  c #2B7390",
"5  c #2D7A92",
"6  c #348397",
"7  c #37839B",
"8  c #378C9A",
"9  c #3988A2",
"0  c #3487A8",
"q  c #358BA9",
"w  c #3E97AC",
"e  c #3E9CAC",
"r  c #3DA0BF",
"t  c #4194B4",
"y  c #409DB2",
"u  c #439FBC",
"i  c #0484D1",
"p  c #0C87D2",
"a  c #0F88D2",
"s  c #1185D1",
"d  c #1D86D2",
"f  c #178CD3",
"g  c #1F92D5",
"h  c #359ECC",
"j  c #2387D2",
"k  c #2A89D2",
"l  c #358BD3",
"z  c #3C8DD3",
"x  c #2395D6",
"c  c #2D9ED9",
"v  c #3FA5C8",
"b  c #34A0D3",
"n  c #35A6DB",
"m  c #39AADD",
"M  c #458FD4",
"N  c #4B91D5",
"B  c #5595D6",
"V  c #5A97D6",
"C  c #5D98D7",
"Z  c #629AD7",
"A  c #659CD8",
"S  c #6A9ED8",
"D  c #48A4C7",
"F  c #46AEC0",
"G  c #41A7C9",
"H  c #4BB2CE",
"J  c #4BBACD",
"K  c #4DAED3",
"L  c #4DB5D3",
"P  c #4EBBD3",
"I  c #75A3DA",
"U  c #7BA6DB",
"Y  c #7EA8DC",
"T  c #42B5E0",
"R  c #46BAE2",
"E  c #4ABFE5",
"W  c #4EC0D4",
"Q  c #4BC1E5",
"!  c #84ABDD",
"~  c #8AAFDE",
"^  c #8DB1DF",
"/  c #95B5E0",
"(  c #99B7E1",
")  c #9CB9E1",
"_  c #A2BCE3",
"`  c #A7C0E4",
"'  c #ABC3E5",
"]  c #B0C6E7",
"[  c #B3C8E7",
"{  c #B7CBE8",
"}  c #BBCEE9",
"|  c #BFD0EA",
" . c #C5D5EC",
".. c #C9D7ED",
"X. c #CBD9EE",
"o. c #D2DDF0",
"O. c #D7E1F1",
"+. c #DDE6F3",
"@. c #E2E9F5",
"#. c #E7EDF7",
"$. c #E8EDF7",
"%. c #E9EEF7",
"&. c #EAEFF8",
"*. c #EEF2F9",
"=. c #F0F3FA",
"-. c #F4F6FB",
";. c #F4F7FB",
":. c #F6F8FC",
">. c #F9FAFD",
",. c #FAFBFD",
"<. c #FCFDFE",
"1. c #FEFEFF",
"2. c white",
/* pixels */
"W W W W W W W W W P W W P W W W P W W W P W W P W P P W P P P P P P P P P P P P P P P P P P P P P P P P P P P P L P P L P P P L P L P P L P P L L P L L P L L P L L L L L L L L L L L L L L L L L L L L ",
"W W W P W P P W W P W P P W P J P P P P P P P P P P P P P P P P P P P P P P P P P P L P P L L P L P L L L P L P L L L P L L P L L L L L L L L L L L L L L L L L L L L L L L L L L L L K L L L L L K L L ",
"W W W -                                                                                                                                                                                         K L L K ",
"W J F 6 * * * * * * * * * * * * * * * * * * * * * * * * * $ $ $ & * * * * * * * $ $ $ $ $ * * * * $ $ $ $ $ $ $ $ $ $ $ $ $ $ $ $ $ $ $ $ $ $ $ $ $ $ $ $ $ $ $ $ $ $ $ $ $ $ $ $ $ $ & $ $ $ $ u D L L ",
"W e   r Q Q Q Q Q Q Q Q Q Q Q Q Q Q Q Q Q Q Q E Q Q Q Q E i i i n Q Q E Q Q Q E i i i i i R Q Q Q i i i i i i i i i i i i i i i i i i i i i i i i i i i i i i i i i i i i i i i i i i i i i i i o   L L ",
"8 8 q h n n n n n n n n n n n m n n n n n n n n n m n n n i i i x n n n n n n n i i i i i n n m n i i i i i i i i i i i i i i i i i i i i i i i i i i i i i i i i i i i i i i i i i f n n n g i , > 7 9 ",
"  5 Q c i i i i i i i i i i i i i i i i i i i i i i i i i i i i i i i i i i i i i i i i i i i i i i i i i i i i i i i i i i i i i i i i i i i i i i i i i i i i i i i i i i i i i i g Q Q Q x i i i   + ",
"  5 Q c i i i i i i i i i i i i i i i i i i i i i i i i i i i i i i i i i i i i i i i i i i i i i i i i i i i i i i i i i i i i i i i i i i i i i i i i i i i i i i i i i i i i i i p g m Q R R p i   + ",
"  5 Q x i i i i i i i i i i i i i i i i i i i i i A  . . .} ) j i A  . .d i i i i N  . .~ i i _  ._ i i _  .Y S  . . . . .I A  . . .} _ k i i i i i i i i i i i i i i i i i i i i i i i m Q Q Q s i   + ",
"  5 Q c i i i i i i i i i i i i i i i i i i i i i ! 2.2.2.2.2.@.d ! 2.2.d i i i i ' 2.2.@.i i ^ 2.,.V B 2.;.z ! 2.2.2.2.2.( ! 2.2.2.2.2.@.s i i i i i i i i i i i i i i i i i i i i i i i i T Q a i   + ",
"  5 Q c i i i i i i i i i i i i i i i i i i i i i ! 2.2.j ) 2.2.U ! 2.2.d i i i i @.2.2.2.V i i @.2. . .2.] i ! 2.2.M M M k ! 2.<.i ( 2.2.Z i i i i i i i i i i i i i i i i i i i i i i i i m Q a i   + ",
"  5 Q c i i i i i i i i i i i i i i i i i i i i i ! 2.2.d S 2.2.! ! 2.2.j i i i C 2.+.@.2.[ i i ! 2.2.2.;.l i ! 2.2.' ' ! i ! 2.2.i I 2.2.N i i i i i i i i i i i i i i i i i i i i i i i i i i i i   + ",
"  5 Q c i i i i i i i i i i i i i i i i i i i i i ! 2.2.o.*.2.*.l ! 2.2.d i i i ] 2.' ' 2.@.i i i +.2.2.' i i ! 2.2.2.2.X.i ! 2.2.%.,.2.{ i i i i i i i i i i i i i i i i i i i i i i i i i i i i i   # ",
"  5 Q c i i i i i i i i i i i i i i i i i i i i i ! 2.2.%.@.X.S i ! 2.2.d i i i %.2.o.o.2.2.A i i / 2.2.k i i ~ 2.2.I U C i ! 2.2...2.<.Z p i i i i i i i i i i i i i i i i i i i i i i i i i i i i   + ",
"  2 m g i i i i i i i i i i i i i i i i i i i i i ! 2.2.j i i i i ! 2.2.A C V I 2.2.-.-.,.2.{ i i ~ 2.2.i i i ! 2.2.C V C z ! 2.2.d o.2.o.i i i i i i i i i i i i i i i i i i i i i i i i i i i i i   + ",
"  ; i i i i i i i i i i i i i i i i i i i i i i i ! 2.2.j i i i i ! 2.2.2.2.2...2.} i i { 2.%.i i ~ 2.,.i i i ! 2.2.2.2.2.] ! 2.2.j I <.<.I i i i i i i i i i i i i i i i i i i i i i i i i i i i i   + ",
"  ; i i i i i i i i i i i i i i i i i i i i i i p Z } } s i i i i A {  .} } } ' } S i i V  .} l i A } } i i p Z } }  .{ } ! Z {  .s i _  .~ i i i i i i i i i i i i i i i i i i i i i i i i i i i i   + ",
"  ; i i i i i i i i i i i i i i i i i i i i i i i i i i i i i p i i i i i i i i i i i i i i i i i i i i i i i i i i i i i i i i i i i i i i i p i i i s i i i i i i i i i i i i i i i i i i i i i i   + ",
"  ; i i i i i i i i i i i i i i i i i i i i i i i i i i i i i i i i i i i i i i i i i i i i i i i i i i i i i i i i i i s i i i i i i i i i i i i i i i i i i i i i i i i i i i i i i i i i i i i i   + ",
"  ; i i i i i i i i i i i i i i i i i i i i i i i i i i i i i i i i i i i i i i i i i i i i i i i i i i i i i i i i i i i i i i i i i i i i i i i i i i i i i i i i i i i i i i i i i i i i i i i i   + ",
"  ; i i i i i i i i i i i i i i i i i i i i i i i i i i i i i i i i i s i i i i i i i i i i i i i i i i i i i i i i i i i i i i i i i i i i i i i i i i i i i i i i i i i i i i i i i i i i i i i i   + ",
"  ; i i i i i i i i i i i i i i `  .( i i B  .} i Y  .o.X.( i i i i Z  . . .} _ k i Z  . .d i i p i N  . .~ i i _  ._ i i _  .! A  . . . . .U A  . . . ._ k i i i i i i i i i i i i i i i i i i i i   + ",
"  ; i i i i i i i i i i i i i i { 2.%.i i ` 2.o.Y 2.2.2.2.@.i i i i ! ,.2.2.2.2.@.d ! ,.2.d i i i i ] 2.2.@.i i / 2.,.Z V ,.-.M ! 2.2.2.2.2.) ! 2.2.2.2.2.@.a i i i i i i i i i i i i i i i i i i i   + ",
"  ; i i i i i i i i i i i i i i C 2.2.A i O.2./  .2.o.k M I i i i i ! 2.2.j ( 2.2.U ! 2.2.j i i i i @.2.2.<.V i i @.,. . .,.] i ! 2.2.M M M k ! 2.,.i / 2.2.Z i i i i i i i i i i i i i i i i i i i   + ",
"  ; i i i i i i i i i i i i i i i @.2.] z ,.:.k | 2.,.X._ l i i i i ! 2.2.d S 2.2.! ! 2.2.d i i i C 2.@.@.2.] i i ! 2.2.,.;.l i ! 2.2.' ' ! i ! 2.2.i I 2.2.M i i i i i i i i i i i i i i i i i i i   # ",
"  ; i i i i i i i i i i i i i i i ] 2.@.( 2.X.i A *.2.2.2.#.j i i i ! 2.2.o.&.2.;.l ! 2.2.d i i i ] 2.' ] 2.@.i i i o.2.2.' i i ! 2.2.2.2...i ! 2.2.%.,.2.} i i i i i i i i i i i i i i i i i i i i   O ",
"  ; i i i i i i i i i i i i i i i B 2.2.+.2.^ i i d / o.2.2.I i i p ! 2.2.%.@.o.A i ! 2.2.d i i i %.2.o.o.2.2.A i i / 2.2.l i i ! 2.2.I U C i ! 2.2.X.2.,.A i i i i i i i i i i i i i i i i i i i i   + ",
"  ; i i i i i i i i i i i i i i i i +.2.2.;.d i ~ ^ B ! 2.2.S i i i ! ,.2.j i i i i ! 2.2.Z C C I 2.,.-.;.,.2.{ i i ~ 2.2.i i i ! 2.2.V V C z ! 2.2.d O.2.o.i i i i i i i i i i i i i i i i i i i i   + ",
"  ; i i i i i i i i i i i i i i i i ' 2.2...i i X.2.2.2.2.@.s i i i ! 2.2.d i i i i ! 2.2.2.2.2. .2.} i i { 2.%.i i ~ 2.,.i i i ! 2.2.2.2.2.' ! 2.2.d I 2.2.I i i i i i i i i i i i i i i i i i i i   + ",
"  ; i i i i i i i i i i i i i i i i N } } I i i S } X...' l i i i i Z } } s i i i i C } } } } } ' } A i i V } } l i A } } i i i C } } } } } ! C } } s i ` { ^ i i i i i i i i i i i i i i i i i i i   + ",
"  : f p i i i i i i i i i i i i i i i i i i i i i i i i i i i i i i i i i i i i i i i i i i i i i i i i i i i i i i i i i i i i i i i i i i i i i i i i i i i i i i i i i i i i i i i i i i i i f f   + ",
"  5 Q c i i i i i i i i i i i i i i i i i i i i i i i i i i i i i i i i i i i i i i i i i i i i i i i i i i i i i i i i i i i i i i i i i i i i i i i i i i i i i i i i i i i i i i i i i i i i E Q   + ",
"  < v b c c c c c n c c c c c c c c c c c c c c c c c c c c c c c c c c c c c c c c c c c c c c c c c c c c c c c c c c n c c c c c c c c c c c c c c c c c c c c c c c c c c c c c c c c c n c G G   + ",
"  @ = G Q Q Q Q E Q Q Q Q Q Q Q Q Q Q Q Q Q Q Q Q Q Q Q Q Q Q Q E Q Q Q Q Q Q Q Q Q Q Q Q Q Q Q Q Q Q Q Q Q Q Q Q Q Q Q E Q Q Q Q Q Q Q Q Q Q Q Q Q Q Q Q Q Q Q Q Q Q Q Q Q Q Q Q Q Q Q Q Q Q Q < =   + ",
"y 6 O 4 0 0 0 0 0 0 0 0 0 0 0 0 0 0 0 0 0 0 0 0 0 0 0 0 0 0 0 0 0 0 0 0 0 0 0 0 0 0 0 0 0 0 0 0 0 0 0 0 0 0 0 0 0 0 0 0 0 0 0 0 0 0 0 0 0 0 0 0 0 0 0 0 0 0 0 0 0 0 0 0 0 0 0 0 0 0 0 0 0 0 0 0 # O t t ",
"P w   % = = = = = = = = = = = = = = = = = = = = = = = = = = = = = = = = = = = = = = = = = = = = = = = = = = = = = = = = = = = = = = = = = = = = = = = = = = = = = = = = = = = = = = = = = = = =     K K ",
"P P H 1 X X X X X X X X X X X X X X X X X X X X X X X X X X X X X X X X X X X X X X X X X X X X X X X X X X X X X X X X X X X X X X X X X X X X X X X X X X X X X X X X X X X X X X X X X X X . D D K K ",
"P P P 3                                                                                                                                                                                         K K K K "
};
