/* XPM */
static char *result[] = {
/* columns rows colors chars-per-pixel */
"100 38 98 2 ",
"   c #000000",
".  c #000112",
"X  c #020A17",
"o  c #020B1B",
"O  c #031417",
"+  c #031522",
"@  c #061E26",
"#  c #082227",
"$  c #09252A",
"%  c #0C2E3C",
"&  c #001E40",
"*  c #0F2F46",
"=  c #12374E",
"-  c #133950",
";  c #003861",
":  c #1F5A6C",
">  c #014875",
",  c #235B7D",
"<  c #23667B",
"1  c #276586",
"2  c #28698A",
"3  c #419EB3",
"4  c #41A9B4",
"5  c #0484D1",
"6  c #0A86D2",
"7  c #0F88D2",
"8  c #1185D1",
"9  c #1D86D2",
"0  c #178CD3",
"q  c #1E91D5",
"w  c #2387D2",
"e  c #2A88D2",
"r  c #358BD3",
"t  c #3D8CD3",
"y  c #2294D5",
"u  c #2B9BD8",
"i  c #33A4DB",
"p  c #37A8DC",
"a  c #3CAEDE",
"s  c #3FB2DF",
"d  c #3EB1E1",
"f  c #448FD4",
"g  c #4B91D4",
"h  c #5595D6",
"j  c #5A97D6",
"k  c #5E98D7",
"l  c #629AD7",
"z  c #659CD8",
"x  c #6B9ED9",
"c  c #40A5C7",
"v  c #46AEC1",
"b  c #40A6C8",
"n  c #46BAC1",
"m  c #4AB4CA",
"M  c #4AB8CB",
"N  c #4EBCD4",
"B  c #46B7DC",
"V  c #49BBDF",
"C  c #6FA0D9",
"Z  c #74A3DA",
"A  c #7AA6DB",
"S  c #7EA8DC",
"D  c #43B7E1",
"F  c #44B9E2",
"G  c #48BDE4",
"H  c #4BC3CD",
"J  c #4EC3D4",
"K  c #4ECCD5",
"L  c #4BC2E6",
"P  c #4CC4E9",
"I  c #84ABDD",
"U  c #89AEDE",
"Y  c #8DB1DF",
"T  c #96B5E0",
"R  c #99B7E1",
"E  c #9BB9E1",
"W  c #A3BDE4",
"Q  c #A7C0E4",
"!  c #ACC3E5",
"~  c #B0C6E7",
"^  c #B3C8E7",
"/  c #B6CAE8",
"(  c #BBCEE9",
")  c #BFD0EA",
"_  c #C4D4EC",
"`  c #C9D7ED",
"'  c #CCD9EE",
"]  c #D0DCEF",
"[  c #D2DEF0",
"{  c #D6E0F1",
"}  c #DCE5F3",
"|  c #E2E9F5",
" . c #E8EEF7",
".. c #EAEFF8",
"X. c #EDF2F9",
"o. c #F3F6FB",
"O. c #F6F8FC",
"+. c #FFFFFF",
/* pixels */
"K K H   O O O O O O O O O O O O O O O O O O O O O O O O O O O o O O O O O O O O O O O o O O O O O O O O o O O o O O o O O o O O O O O O O O o o O o O O + O o O O O + o O o O O O O O o O O O   M J N J ",
"K K H X @ # # @ @ @ @ # # @ @ # @ @ @ # @ @ @ # @ @ @ # + + + + @ @ @ @ @ @ # + + + + + + @ @ # + + + + + + + + + + + + + + + + + O + o + + + + + + + + + + + + o + + + + + + + + + + + + + + . M N J J ",
"K   % P P L L L L P L L L P L L L L L G P L P L L L L P i 5 5 5 L L L P L L P i 5 5 5 5 5 P P L d 5 5 5 5 5 5 5 5 5 5 5 5 5 5 5 5 5 5 5 5 5 5 5 5 5 5 5 5 5 5 5 5 5 5 5 5 5 5 5 5 5 5 5 5 5 5 5 &   N J ",
"n : < F D D D s D D D D D D D D D D B B D D D D D D D a y 5 5 5 D D D D D D D u 5 5 5 5 5 D D D p 5 5 5 5 5 5 5 5 5 5 5 5 5 5 5 5 5 5 5 5 5 5 5 5 5 5 5 5 5 5 5 5 5 5 5 5 5 5 5 5 5 6 y q y 7 5 > ; v v ",
"  P G 5 5 5 5 5 5 5 5 5 5 5 5 5 5 5 5 5 5 5 5 5 5 5 5 5 5 5 5 5 5 5 5 5 5 5 5 5 5 5 5 5 5 5 5 5 5 5 5 5 5 5 5 5 5 5 5 5 5 5 5 5 5 5 5 5 5 5 5 5 5 5 5 5 5 5 5 5 5 5 5 5 5 5 5 5 5 5 q L L G u 5 5 5   $ ",
"  L G 5 5 5 5 5 5 5 5 5 5 5 5 5 5 5 5 5 5 5 5 5 5 5 5 5 5 5 5 5 5 5 5 5 5 5 5 5 5 5 5 5 5 5 5 5 5 5 5 5 5 5 5 5 5 5 5 5 5 5 5 5 5 5 6 5 5 5 5 5 5 5 5 5 5 5 5 5 5 5 5 5 5 5 5 5 5 5 8 p B G D p 7 5   $ ",
"  L L 5 5 5 5 5 5 5 5 5 5 5 5 5 5 5 5 5 5 5 5 5 5 5 5 5 5 5 5 5 5 5 5 5 5 5 5 5 5 5 5 5 5 5 5 5 5 5 5 5 5 5 5 5 5 5 5 5 5 5 5 5 5 5 5 5 5 5 5 5 5 5 5 5 5 5 5 5 5 5 5 5 5 5 5 5 5 5 5 5 u L G L 0 5   $ ",
"  L G 5 5 5 5 5 5 5 5 5 5 5 5 5 5 5 5 5 5 5 5 z _ _ ` _ W e 5 5 6 g _ _ Y 5 5 z _ _ A 5 h _ ! 5 l _ _ _ / T 0 5 5 5 I _ [ ( k 5 5 z _ ` / 5 5 A _ _ ! 5 5 5 5 5 5 5 5 5 5 5 5 5 5 5 5 5 0 y B L 0 5   $ ",
"  L G 5 5 5 5 5 5 5 5 5 5 5 5 5 5 5 5 5 5 5 5 I +.+.+.+.+.| 8 5 5 ! +.+.} 5 5 I +.+. .8 C +.| 5 I +.+.+.+.+. .t 5 ( +.+.+.+.+.I 5 I +.+.+.j 5 ` +.+.} 5 5 5 5 5 5 5 5 5 5 5 5 5 5 5 5 5 5 5 a G 0 5   $ ",
"  L G 5 5 5 5 5 5 5 5 5 5 5 5 5 5 5 5 5 5 5 5 I +.+.5 R +.+.l 5 5 | +.+.+.j 5 I +.+.+.W Z +.| 5 I +.+.g S O.+._ C +.+.T e ' +.X.5 I +.+.+.Q 5 X.+.+.| 5 5 5 5 5 5 5 5 5 5 5 5 5 5 5 5 5 5 5 5 5 5 5   $ ",
"  L G 5 5 5 5 5 5 5 5 5 5 5 5 5 5 6 5 5 5 5 5 I +.+.5 Z +.+.g 5 k +.} | +.~ 5 I +.O.+.o.I +.| 5 I +.+.9 5 ` +.| W +.o.5 5 I +.+.h I +. .+.{ Z +. .+.| 5 5 5 5 5 5 5 5 5 5 5 5 5 5 5 5 5 5 5 5 5 5 5   $ ",
"  L B 5 5 5 5 5 5 5 5 5 5 5 5 5 5 5 5 5 8 5 5 I +.+. .+.+./ 5 5 ^ +.! ~ +.| 5 I +.{ { +.} +.| 5 I +.+.w 5 ( +.X._ +. .5 5 C +.+.A I +.] o.+.( +._ +.} 5 5 5 5 5 5 5 5 5 5 5 5 5 5 5 5 5 5 5 5 5 5 5   $ ",
"  F D 5 5 5 5 5 5 5 5 5 5 5 5 5 5 5 5 6 5 5 5 I +.+.` +.+.z 5 5  .+.[ [ +.+.z I +.{ x O.+.+.| 5 I +.+.9 5 ' +.} ! +.o.5 5 U +.+.f I +.' ` +.+.| ^ +.| 5 5 5 5 5 5 5 5 5 5 5 5 5 5 5 5 5 5 5 5 5 5 5 . $ ",
"  5 5 5 5 5 5 5 5 5 5 5 5 5 5 5 5 5 5 5 5 5 5 I +.+.w [ +.] 5 C +.+.o.o.+.+.( I +.{ 5 _ +.+.| 5 I +.+.k U O.+./ A +.+.E f [ +. .5 I +.] R +.+.^ ^ +.| 5 5 5 5 5 5 5 5 5 5 5 5 5 5 5 5 5 5 5 5 5 5 5   $ ",
"  5 5 5 5 5 5 5 5 5 5 5 5 5 5 5 5 6 5 5 5 5 5 I +.+.9 Z +.+.C _ +.( 5 5 ^ +...I +.{ 5 f o.+.| 5 I +.+.+.+.+.{ e 5 _ +.+.+.+.O.Z 5 I +.] t +.+.x ^ +.| 5 5 5 5 5 5 5 5 5 5 5 5 5 5 5 5 5 5 5 5 5 5 5   $ ",
"  5 5 5 5 5 5 5 5 5 5 5 5 5 5 5 5 5 5 5 5 5 5 l ( ( 8 5 W ( Y W ( z 5 5 j ( ( x ( E 5 5 Y ( W 5 k ( ( ( ! I 5 5 5 5 I ) ' ~ g 5 5 k ( T 5 Q / 5 I ( W 5 5 5 5 5 5 5 5 5 5 5 5 5 5 5 5 5 5 5 5 5 5 5   $ ",
"  5 5 5 5 5 5 5 5 5 5 5 5 5 5 5 5 5 5 5 5 5 5 5 5 5 5 6 5 5 5 6 5 5 5 5 5 5 5 5 5 5 5 5 5 5 5 5 5 5 5 6 5 5 5 5 6 5 5 5 6 5 5 5 5 5 5 5 5 5 5 5 5 5 5 5 6 5 5 5 5 5 5 5 5 5 5 5 5 5 5 5 5 5 5 5 5 5   $ ",
"  5 5 5 5 5 5 5 5 5 5 5 5 5 5 5 5 5 5 5 5 5 5 5 5 5 5 5 5 5 5 5 5 5 5 5 5 5 5 5 5 6 5 6 5 5 5 5 5 5 5 5 5 6 5 5 5 5 5 5 5 5 5 5 5 5 5 5 5 5 6 5 5 5 5 5 5 5 5 5 5 5 5 5 5 5 5 5 5 5 5 5 5 5 5 5 5 5   $ ",
"  5 5 5 5 5 5 5 5 5 5 5 5 5 5 5 5 5 5 5 5 5 5 5 5 5 5 5 5 6 5 5 5 5 6 5 6 6 5 5 5 5 5 6 5 5 5 5 5 5 5 5 5 5 5 5 5 5 6 5 5 5 6 5 5 5 5 5 5 6 5 5 5 5 5 5 5 5 5 5 5 5 5 5 5 5 5 5 5 5 5 5 5 5 5 5 5 5 . $ ",
"  5 5 5 5 5 5 5 5 5 5 5 5 5 5 5 5 5 5 5 5 6 5 5 5 5 5 5 5 5 5 5 5 5 5 5 5 5 5 5 5 5 5 5 5 5 5 5 5 5 5 5 5 5 5 5 5 5 5 5 5 5 5 5 6 5 5 5 5 6 5 5 5 5 5 5 5 5 5 5 5 5 5 5 5 5 5 5 5 5 5 5 5 5 5 5 5 5   $ ",
"  5 5 5 5 5 5 5 5 5 5 5 5 5 5 5 6 W _ R 5 5 h _ ( 5 S _ { ` T 5 5 5 8 l _ _ _ ( E w 5 l _ _ 9 5 5 5 5 g ` _ U 5 5 W _ W 6 5 W _ I l _ _ _ _ _ Z x _ _ _ ( E e 5 5 5 5 5 5 5 5 5 5 5 5 5 5 5 5 5 5 5   $ ",
"  5 5 5 5 5 5 5 5 5 5 5 5 5 5 5 5 ^ +. .5 5 W +.] S +.+.+.+.| 5 5 5 5 I +.+.+.+.+.| 9 I +.+.9 5 5 5 6 W +.+.} 5 5 Y +.+.l h O.o.t I +.+.+.+.+.E I +.+.+.+.+.| 8 5 5 5 5 5 5 5 5 5 5 5 5 5 5 5 5 5 5   $ ",
"  5 5 5 5 5 5 5 5 5 5 5 5 5 5 5 5 l +.+.l 5 [ +.T _ +.{ e f A 5 5 5 5 I +.+.w E +.+.A I +.+.w 5 5 6 5 | +.+.+.j 5 5 | +._ _ +.^ 5 I +.+.f f f e I +.+.5 R +.+.l 5 5 5 5 5 5 5 5 5 5 5 5 5 5 5 5 5 5   $ ",
"  5 5 5 5 5 5 5 5 5 5 5 5 5 5 5 5 5 | +.~ t +.+.e ( +.O.' W r 5 5 5 5 I +.+.9 z +.+.I I +.+.9 5 5 5 l +.} | +.~ 5 5 I +.+.O.o.r 5 I +.+.! ! U 5 I +.+.5 A +.+.g 5 5 5 5 5 5 5 5 5 5 5 5 5 5 5 5 5 5   $ ",
"  5 5 5 5 5 5 5 5 5 5 5 5 5 5 5 5 5 ! +.| R +.' 5 x o.+.+.+. .w 5 5 5 I +.+.] X.+.o.r I +.+.9 5 5 5 ^ +.! ~ +.| 6 5 5 } +.+.! 5 5 I +.+.+.+.` 5 I +.+. .O.+.( 5 5 5 5 5 5 5 5 5 5 5 5 5 5 5 5 5 5 5 . $ ",
"  5 5 5 5 5 5 5 5 5 5 5 5 5 5 5 5 5 h +.+.} +.Y 5 5 9 T ' +.+.Z 5 5 5 I +.+.X.| ' z 5 I +.+.9 5 5 5  .+.[ [ +.+.z 5 5 T +.+.e 5 5 I +.+.A Z k 5 I +.+.' +.+.z 5 5 5 5 5 5 5 5 5 5 5 5 5 5 5 5 5 5 5   $ ",
"  5 5 5 5 5 5 5 5 5 5 5 5 5 5 5 5 5 5 | +.+.O.9 5 U Y j I +.+.x 5 5 5 I +.+.9 5 5 5 5 I +.+.l k k Z +.+.O.o.O.+./ 5 5 Y +.+.5 5 5 I +.+.k k j t I +.+.9 { +.[ 5 5 5 5 5 5 5 5 5 5 5 5 5 5 5 5 5 5 5   $ ",
"  5 5 5 5 5 5 5 5 5 5 5 5 5 5 5 5 5 5 ! +.+.' 5 5 ` +.+.+.+.| 8 8 5 5 I +.+.9 6 5 5 5 I +.+.+.+.+._ +.( 5 5 / +...5 5 Y +.+.5 5 5 I +.+.+.+.+.~ I +.+.w Z +.+.C 5 5 5 5 5 5 5 5 5 5 5 5 5 5 5 5 5 5   $ ",
"  5 5 5 5 5 5 5 5 5 5 5 5 5 5 5 5 5 5 g ( ( C 5 5 x ( ' ` ! r 5 5 5 5 k ( ( 8 5 5 5 5 k ( ( ( ( ( ! ( z 5 5 j ( ( t 5 z ( / 5 5 5 k ( ( ( ( ( S k ( ( 8 5 ! ( U 5 5 5 5 5 5 5 5 5 5 5 5 5 5 5 6 5 5   $ ",
"  P G 5 5 5 5 5 5 5 5 5 5 5 5 5 5 5 5 5 5 5 5 5 5 5 5 5 5 5 5 5 5 5 5 5 5 5 5 5 5 5 5 5 5 5 5 5 5 5 5 5 5 5 5 5 5 5 5 5 5 5 5 5 5 5 5 5 5 5 5 5 5 5 5 5 5 5 5 5 5 5 5 5 5 5 5 5 5 5 5 5 5 5 5 5 L P   $ ",
"  V B 0 0 0 0 0 0 0 0 0 0 0 0 0 0 0 0 0 0 0 0 0 0 0 0 0 0 0 0 0 0 0 0 0 0 0 0 0 0 0 0 0 0 0 0 0 0 0 0 0 0 0 0 0 0 0 0 0 0 0 0 0 0 0 0 0 0 0 0 0 0 0 0 0 0 0 0 0 0 0 0 0 0 0 8 8 0 0 0 0 0 0 w 0 V V   $ ",
"  , 2 L L L L L L L L L J L L L L J L G L L L L L L L L L L L L L L L L L L G J L L L L L L L L L L L L L L L L L J L L L G L L L L L L L L L L L L L L L L L J L L L L L L L J L L L L L L P G 2 ,   $ ",
"  , 1 c c c c v c c c c c c c c c c c c c c c c c c c c c c c v c c c c c c c c b b b b b b c c c c c c c c c c c c c c c c c c c c c c c c c c c c c c c c c c c c c c c c c c c c c c c c c c 2 ,   $ ",
"  , , , , , , , , , , , , , , , , , , , , , , , , , , , , , 1 , , , , , , , , , , , , , , , , , , , , , , , , , , , , , , , , , , , , , , , , , , , , , , , , , , , , , , , , , , , , , , , , , , ,   $ ",
"4 * = , , , , , , , , , , , , , , , , , , , , , , , , , , , , , , , , , , , , , , , , , , , , , , , , , , , , , , , , , , , , , , , , , , , , , , , , , , , , , , , , , , , , , , , , , , , , , - * 3 3 ",
"K   . , , 1 , , , , , , , , , , , , , , , , , , , , , , , , , , , , , , , , , , , , , , , , , , , , , , , , , , , , , , , , , , , , , , , , , , , , , , , , , , , , , , , , , , , , , , , , , , o   N N ",
"J H M . + @ + + @ + + @ + @ + + @ + + @ + @ + + + + + @ @ + + + @ + @ + O + + + @ + + + + + @ + O + @ + + + + @ + + + @ + + @ O @ + + + + + @ + @ O @ + + + + @ + @ + @ + + @ O @ + + @ O @ + X v m N N ",
"J K H                                                                                                                                                                                           m N N N "
};
