/* XPM */
static char *eebb0b083c0a4443e11f05c57c596f84qwaTIf4Sk7x4wMhi[] = {
/* columns rows colors chars-per-pixel */
"100 38 109 2 ",
"   c #000000",
".  c #000112",
"X  c #020A17",
"o  c #020B1B",
"O  c #031417",
"+  c #031522",
"@  c #061E26",
"#  c #082227",
"$  c #09252A",
"%  c #0C2E3C",
"&  c #0F2F46",
"*  c #12374E",
"=  c #133950",
"-  c #003861",
";  c #1F5A6C",
":  c #014875",
">  c #235B7D",
",  c #23667B",
"<  c #276586",
"1  c #28698A",
"2  c #419EB3",
"3  c #41A9B4",
"4  c #0484D1",
"5  c #0A86D2",
"6  c #0F88D2",
"7  c #1185D1",
"8  c #1D86D2",
"9  c #178CD3",
"0  c #1E91D5",
"q  c #2387D2",
"w  c #2988D2",
"e  c #358BD3",
"r  c #3C8DD3",
"t  c #2294D5",
"y  c #2B9BD8",
"u  c #33A4DB",
"i  c #37A8DC",
"p  c #3CAEDE",
"a  c #3FB2DF",
"s  c #3EB1E1",
"d  c #458FD4",
"f  c #4B91D5",
"g  c #5495D6",
"h  c #5A97D6",
"j  c #5E98D7",
"k  c #629AD7",
"l  c #659CD8",
"z  c #6B9ED9",
"x  c #40A5C7",
"c  c #46AEC1",
"v  c #40A6C8",
"b  c #46BAC1",
"n  c #4AB4CA",
"m  c #4AB8CB",
"M  c #4EBCD4",
"N  c #46B7DC",
"B  c #49BBDF",
"V  c #75A3DA",
"C  c #7BA6DB",
"Z  c #7EA8DC",
"A  c #43B7E1",
"S  c #44B9E2",
"D  c #48BDE4",
"F  c #4BC3CD",
"G  c #4EC3D4",
"H  c #4ECCD5",
"J  c #4BC2E6",
"K  c #4CC4E9",
"L  c #84ABDD",
"P  c #8AAFDE",
"I  c #8DB1DF",
"U  c #92B3DF",
"Y  c #95B5E0",
"T  c #99B7E1",
"R  c #9CB9E2",
"E  c #A3BDE3",
"W  c #A7C0E4",
"Q  c #ABC3E5",
"!  c #B0C6E7",
"~  c #B3C8E7",
"^  c #B7CBE8",
"/  c #BBCEE9",
"(  c #C4D4EC",
")  c #C8D6ED",
"_  c #CBD9EE",
"`  c #D0DCEF",
"'  c #D1DDF0",
"]  c #D4DFF1",
"[  c #D5DFF1",
"{  c #D7E1F1",
"}  c #D8E2F2",
"|  c #DAE3F2",
" . c #E0E8F4",
".. c #E1E8F5",
"X. c #E2E9F5",
"o. c #E3EAF5",
"O. c #E7EDF7",
"+. c #E8EDF7",
"@. c #E9EEF7",
"#. c #EBF0F8",
"$. c #EEF2F9",
"%. c #F0F3FA",
"&. c #F1F5FA",
"*. c #F4F6FB",
"=. c #F7F9FC",
"-. c #F9FAFD",
";. c #FAFBFD",
":. c #FDFEFE",
">. c white",
/* pixels */
"H H F   O O O O O O O O O O O O O O O O O O O O O O O O O O O o O O O O O O O O O O O X O O O O O O O O + o O o O O o O o O O O o O O O O O o O O o O O o O O o O O o o O o O O o O O O O O o   m G M G ",
"H H F X @ # # @ @ @ @ # # @ @ # @ # # @ @ # @ @ # @ # @ + + + + @ @ @ @ @ @ # + + + + + + # @ @ @ + o + + + + + + + + + + + + + O o + + o + + + + + + + + + + + + + + + + + + + + + + + + o + X m G G G ",
"H   % K K J J J J K J J J K J J J J D D J K J K K J J J u 4 4 4 J J K K K J K u 4 4 4 4 4 K J K s 4 4 4 4 4 4 4 4 4 4 4 4 4 4 4 4 4 4 4 4 4 4 4 4 4 4 4 4 4 4 4 4 4 4 4 4 4 4 4 4 4 4 4 4 4 4 4 &   M G ",
"b ; , S A A A a A A A A A A A A A A A N A A A A A A A p t 4 4 4 A A A A A A A y 4 4 4 4 4 A A A i 4 4 4 4 4 4 4 4 4 4 4 4 4 4 4 4 4 4 4 4 4 4 4 4 4 4 4 4 4 4 4 4 4 4 4 4 4 4 4 4 4 5 t 0 t 6 4 : - c 3 ",
"  K D 4 4 4 4 4 4 4 4 4 4 4 4 4 4 4 4 4 4 4 4 4 4 4 4 4 4 4 4 4 4 4 4 4 4 4 4 4 4 4 4 4 4 4 4 4 4 4 4 4 4 4 4 4 4 4 4 4 4 4 4 4 4 4 4 4 4 4 4 4 4 4 4 4 4 4 4 4 4 4 4 4 4 4 4 4 4 4 9 J D J y 4 4 4   $ ",
"  J D 4 4 4 4 4 4 4 4 4 4 4 4 4 4 4 4 4 4 4 4 4 4 4 4 4 4 4 4 4 4 4 4 4 4 4 4 4 4 4 4 4 4 4 4 4 4 4 4 4 4 4 4 4 4 4 4 4 4 4 4 4 4 4 4 4 4 4 4 4 4 4 4 4 4 4 4 4 4 4 4 4 4 4 4 4 4 4 9 u a J p i 5 4   $ ",
"  J J 4 4 4 4 4 4 4 4 4 4 4 4 4 4 4 4 4 4 4 4 5 4 4 4 4 4 4 5 4 4 4 4 4 4 4 4 4 4 4 4 4 4 4 4 4 4 4 4 4 4 4 4 4 4 4 4 4 4 4 4 4 4 4 4 4 4 4 4 4 4 4 4 4 4 4 4 4 4 4 4 4 4 4 4 4 4 4 4 4 u J J J 9 4   $ ",
"  J D 4 4 4 4 4 4 4 4 4 4 4 4 4 4 4 4 4 4 4 4 4 4 4 4 4 4 4 4 4 4 4 4 4 4 4 4 4 4 4 4 4 4 4 4 4 4 4 4 4 4 4 4 4 4 4 4 4 4 4 4 4 5 4 4 4 4 4 4 4 4 4 4 4 4 4 4 4 4 4 4 4 4 4 4 4 4 4 4 4 9 0 N J 9 4   $ ",
"  J S 4 4 4 4 4 4 4 4 4 4 4 4 4 4 4 4 4 5 4 4 4 4 5 4 4 4 4 5 4 4 4 4 4 4 4 4 4 4 4 4 4 4 4 4 5 4 4 4 4 4 4 4 4 4 4 4 4 4 4 4 4 4 4 5 4 4 4 4 5 4 4 4 4 4 4 4 4 4 4 4 4 4 4 4 4 4 4 4 4 4 4 a K 9 4   $ ",
"  J D 4 4 4 4 4 4 4 4 4 4 4 4 4 4 4 4 4 4 4 4 4 4 4 4 4 4 4 4 4 4 4 4 4 4 4 4 4 5 4 4 4 4 4 4 4 4 4 4 4 4 4 4 4 4 4 4 4 4 4 4 4 4 4 4 4 4 4 4 4 4 4 4 4 4 4 4 4 4 4 4 4 4 4 4 4 4 4 4 4 4 4 4 4 4 4   $ ",
"  J D 4 4 4 4 4 4 4 4 4 4 4 4 4 4 4 4 4 4 4 4 4 4 4 4 4 4 4 4 4 4 5 4 4 4 4 4 4 4 4 4 4 4 4 4 4 4 4 4 4 4 4 4 4 4 4 4 4 4 4 4 4 4 4 4 4 4 4 4 4 4 4 4 4 4 4 4 4 4 4 4 4 4 4 4 4 4 4 4 4 4 4 4 4 4 4   $ ",
"  J D 4 4 4 4 4 4 4 4 4 4 4 4 4 4 4 4 6 4 4 5 4 4 4 4 5 4 4 4 4 4 4 4 4 4 4 4 4 4 4 5 4 4 4 4 4 4 4 4 4 4 4 4 4 4 4 4 4 4 4 4 4 4 4 5 4 4 5 4 4 4 4 4 4 4 4 4 4 4 4 4 4 4 4 4 4 4 4 4 4 4 4 4 4 4 4   $ ",
"  S A 4 4 4 4 4 4 4 4 4 4 4 4 4 4 4 4 4 4 4 4 4 4 5 4 4 4 4 4 4 4 4 4 4 4 4 4 4 4 4 4 4 4 4 4 4 4 4 4 4 4 4 4 4 4 4 4 4 4 4 4 4 4 4 4 4 4 4 4 4 4 4 4 4 4 4 4 4 4 4 4 4 4 4 4 4 4 4 4 4 4 4 4 4 4 4 . $ ",
"  4 4 4 k ( ( ( / R q 4 k ( ( 7 4 4 4 4 f ( ( P 4 4 E ( W 4 4 E ( L l ( ( ( ( ( V z ( ( ( ( W w 4 4 4 5 W ( R 4 4 g _ / 4 L ( ' ) U 4 4 4 4 l ( ) ) ( E e 4 4 4 L ( ` / k 4 4 W ( ( ( ( ( ! 4 4 4 4   $ ",
"  4 4 4 L >.>.>.>.>...8 L >.>.8 4 4 4 4 Q >.>...4 4 U >.>.h g ;.*.d L >.>.>.>.>.U L ;.>.;.>.>.| 7 4 4 4 ! >.@.4 4 E >.' L >.;.;.>.o.4 4 4 4 L >.>.*.:.:.| 4 4 / >.>.>.>.>.P 4 { ;.>.>.>.>.O.4 4 4 4   $ ",
"  4 4 4 L >.>.q R >.>.C L >.>.8 4 4 4 4 | >.>.;.h 4 4 ..>.( ( >.~ 4 L >.>.d d d e L >.;.4 U >.>.k 4 4 4 k >.>.l 4 | ;.I ( >.] w d C 4 4 4 4 L >.-.4 U >.-.4 V >.>.Y q ` >.$.4 e d _ >.| d r 4 4 4 4   $ ",
"  4 4 4 L >.>.8 z >.>.L L >.>.8 4 4 4 j >.....>.! 4 4 L >.;.;.*.e 4 L >.>.Q Q L 4 L >.>.4 V >.;.f 4 7 4 4 ..>.~ r ;.;.w / >.;._ E e 4 4 4 4 L >.>.Z ( >.` 4 Q >.*.4 4 L >.>.f 4 4 ) >.{ 4 4 4 4 4 4   $ ",
"  4 4 4 L >.>.' $.>.$.e L >.>.8 4 4 4 ~ >.Q ~ >...4 4 4 | >.>.Q 4 4 L >.>.>.>.) 4 L >.>.@.;.>./ 4 4 4 4 4 ! >.| T >.` 4 l %.>.>.;.O.q 4 4 4 L ;.>.>.>.=.U 4 ( >.@.4 4 V >.>.C 4 4 ( >.{ 4 4 4 4 4 4   $ ",
"  4 4 4 L >.>.#..._ k 4 L >.>.8 4 4 4 O.>.' _ >.>.l 4 4 U >.>.w 4 4 L >.>.V V j 4 L >.>.) >.>.z 4 4 4 4 4 j ;.;.| >.I 4 4 8 Y ` >.>.C 4 4 4 L >.>.q L >.>.k Q :.*.4 4 L >.>.d 4 4 ( >.{ 4 4 4 4 4 4 . $ ",
"  4 4 4 L >.>.8 4 4 4 4 L >.>.k j j V >.>.*.*.;.>.^ 4 4 P >.>.4 4 4 L >.>.j j j r L >.>.8 { >._ 4 4 4 4 4 4 ..;.>.*.8 4 P U g L >.;.z 4 4 4 L >.-.4 Z >.>.U C :.>.R d _ >.O.4 4 4 ) >.] 4 4 4 4 4 4   $ ",
"  4 4 4 L >.>.8 4 4 4 4 L >.>.>.>.>._ >./ 4 4 ^ ;.@.4 4 P >.>.4 4 4 L >.>.;.>.>.~ L >.>.q V >.;.z 5 4 4 4 4 E ;.>.) 4 4 _ >.>.>.;...7 4 4 4 L ;.>.-.>.>.$.d 4 ( >.>.>.>.=.V 4 4 4 ) >.| 4 4 4 4 4 4   $ ",
"  4 4 4 j / / 7 4 4 4 4 j / / ^ / / Q / k 4 4 h / ( r 4 l / / 4 4 4 k / ^ ( / / Z j / / 7 4 E ( I 4 4 4 4 4 f ( / V 4 4 z ^ _ _ Q e 4 4 4 4 k ( / / ^ E e 4 4 4 L ( ( ~ d 4 4 4 4 U / R 4 4 4 4 4 4   $ ",
"  4 4 4 4 4 4 4 4 4 4 4 4 4 4 4 4 4 4 4 4 4 4 4 4 4 4 4 4 4 4 4 4 4 4 4 4 4 4 4 4 4 4 4 4 4 4 4 4 4 4 4 4 4 4 4 4 4 4 4 4 4 4 4 4 4 4 4 4 4 4 4 4 4 4 4 4 4 4 4 4 4 4 4 4 4 4 4 4 4 4 4 4 4 4 4 4 4   $ ",
"  4 4 4 4 4 4 4 4 4 4 4 4 4 4 4 4 4 4 4 4 4 4 4 4 4 4 4 4 4 4 4 4 4 4 4 4 4 4 4 4 4 4 4 4 4 5 4 4 4 4 7 4 4 4 4 4 4 4 4 4 4 4 4 4 4 4 4 4 4 5 4 4 4 4 4 4 4 4 4 4 4 4 4 4 4 4 4 4 4 4 4 4 4 4 4 4 4   $ ",
"  4 4 4 4 4 4 4 4 4 4 4 4 4 4 4 4 4 4 4 4 4 4 4 4 4 4 4 4 4 4 4 4 4 4 4 4 4 4 5 4 4 4 4 4 4 4 4 4 4 4 4 4 4 4 4 4 4 4 4 4 4 4 4 4 4 4 4 4 4 4 4 4 4 4 4 4 4 4 4 4 4 4 4 4 4 4 4 4 4 4 4 4 4 4 4 4 4 . $ ",
"  4 4 4 4 4 4 4 4 4 4 4 4 4 4 4 4 4 4 4 4 4 4 4 4 4 4 4 4 4 4 5 4 4 4 4 4 4 4 4 4 4 4 4 4 4 4 4 4 4 4 4 4 4 4 4 4 4 4 4 4 5 4 4 4 4 4 4 4 4 4 4 4 4 4 4 4 4 4 4 4 4 4 4 4 4 4 4 4 4 4 4 4 4 4 4 4 4   $ ",
"  4 4 4 4 4 4 4 4 4 4 4 4 4 4 4 4 4 4 4 4 4 4 4 4 4 4 4 4 4 4 4 4 4 4 5 5 4 4 4 4 4 4 4 4 4 4 4 4 4 4 4 4 4 4 4 4 4 4 4 4 4 4 4 4 4 4 4 4 5 4 4 4 4 4 4 4 4 4 4 4 4 4 4 4 4 4 4 4 4 4 4 4 4 4 4 4 4   $ ",
"  4 4 4 4 4 4 4 4 4 4 4 4 4 4 4 4 4 4 4 4 4 4 4 4 4 4 4 4 4 4 4 4 4 4 4 4 4 4 4 4 4 4 4 4 4 4 5 4 4 4 4 4 4 4 4 4 4 4 4 4 5 4 4 4 4 4 4 4 4 4 4 4 4 4 4 4 4 4 4 4 4 4 4 4 4 4 4 4 4 4 4 4 4 4 4 4 4   $ ",
"  4 4 4 4 4 4 4 4 4 4 4 4 4 4 4 4 4 4 4 4 4 4 4 4 4 4 4 4 4 4 4 4 4 4 4 4 4 4 4 4 4 4 4 4 4 4 4 4 4 4 4 4 4 4 4 4 4 4 4 4 4 4 4 4 4 4 4 4 4 4 4 4 4 4 4 4 4 4 4 4 4 4 4 4 4 4 4 4 4 4 4 4 4 4 4 4 4   $ ",
"  K D 4 4 4 4 4 4 4 4 4 4 4 4 4 4 4 4 4 4 4 4 4 4 4 4 4 4 4 4 4 4 4 4 4 4 4 4 4 4 4 4 4 4 4 4 4 4 4 4 4 4 4 4 4 4 4 4 4 4 4 4 4 4 4 4 4 4 4 4 4 4 4 4 4 4 4 4 4 4 4 4 4 4 4 4 4 4 4 4 4 4 4 4 4 J K   $ ",
"  B N 9 9 9 9 9 9 9 9 9 9 9 9 9 9 9 9 9 9 9 9 9 9 9 9 9 9 9 9 9 9 9 9 9 9 9 8 9 9 9 9 9 9 9 9 9 9 9 9 9 9 9 9 9 9 9 9 9 9 9 8 9 9 9 9 9 9 9 9 9 9 9 9 9 9 9 9 9 9 9 9 9 9 9 9 9 9 9 9 9 9 9 q 9 N D   $ ",
"  > < K J J J J J J J J J G J J J J J J J J J J G D J J J J J J J J J J J J J N J J J J J D J J J J J J J J J G J J J J J D J J J J J J D J J J J J J J J J J J J J J D G J J J J J J J J J K D 1 >   $ ",
"  > < x x x x c x x x x x x x x x x x x x x x x x x x x x x x c x x x x x x x x v v v v v v x x x x x x x x x x x x x x x x x x x x x x x x x x x x x x x x x x x x x x x x x x x x x x x x x x 1 >   $ ",
"  > > > > > > > > > > > > > > > > > > > > > > > > > > > > > < > > > > > > > > > > > > > > > > > > > > > > > > > > > > > > > > > > > > > > > > > > > > > > > > > > > > > > > > > > > > > > > > > > >   $ ",
"3 & * > > > > > > > > > > > > > > > > > > > > > > > > > > > > > > > > > > > > > > > > > > > > > > > > > > > > > > > > > > > > > > > > > > > > > > > > > > > > > > > > > > > > > > > > > > > > > = & 2 2 ",
"H   . > > < > > > > > > > > > > > > > > > > > > > > > > > > > > > > > > > > > > > > > > > > > > > > > > > > > > > > > > > > > > > > > > > > > > > > > > > > > > > > > > > > > > > > > > > > > > o   M M ",
"G F m . + @ + + @ + + @ + @ + + @ + + @ + @ + + + + + @ @ + + + @ + + # O + + + @ + + + + + @ + O + @ + + + + @ + + + @ + + @ O @ + + + + + @ + @ O @ + + + + @ + @ + @ + + @ O @ + + @ O @ + X c n M M ",
"G H F                                                                                                                                                                                           n M M M "
};
