/* XPM */
static char *d2556c4ceb7f4732f9c5fda6ed2ca0ff8FyWiYoJjM85Nwxs[] = {
/* columns rows colors chars-per-pixel */
"100 38 119 2 ",
"   c #000000",
".  c #000310",
"X  c #041722",
"o  c #001A31",
"O  c #123546",
"+  c #143845",
"@  c #11354B",
"#  c #143C51",
"$  c #013D64",
"%  c #1B4A67",
"&  c #144E69",
"*  c #1F5C6E",
"=  c #235C7E",
"-  c #2C737F",
";  c #015285",
":  c #0A5786",
">  c #015F99",
",  c #02629D",
"<  c #266485",
"1  c #2B6F80",
"2  c #206A8C",
"3  c #2C7080",
"4  c #2B7390",
"5  c #2D7A92",
"6  c #348397",
"7  c #37839B",
"8  c #378C9A",
"9  c #3988A2",
"0  c #3487A8",
"q  c #358BA9",
"w  c #3E97AC",
"e  c #3E9CAC",
"r  c #3DA0BF",
"t  c #4194B4",
"y  c #409DB2",
"u  c #439FBC",
"i  c #0484D1",
"p  c #0B86D2",
"a  c #0F88D2",
"s  c #1185D1",
"d  c #1D86D2",
"f  c #178CD3",
"g  c #198DD4",
"h  c #1F92D5",
"j  c #359ECC",
"k  c #2387D2",
"l  c #2988D2",
"z  c #358BD3",
"x  c #3C8DD3",
"c  c #2395D6",
"v  c #2D9ED9",
"b  c #34A0D3",
"n  c #35A6DB",
"m  c #39AADD",
"M  c #458FD4",
"N  c #4B91D5",
"B  c #5495D6",
"V  c #5A97D6",
"C  c #5E98D7",
"Z  c #629AD7",
"A  c #659CD8",
"S  c #6B9ED9",
"D  c #48A4C7",
"F  c #46AEC0",
"G  c #41A7C9",
"H  c #4BB2CE",
"J  c #4BBACD",
"K  c #4DAED3",
"L  c #4DB5D3",
"P  c #4EBBD3",
"I  c #75A3DA",
"U  c #7BA6DB",
"Y  c #7EA8DC",
"T  c #42B5E0",
"R  c #46BAE2",
"E  c #4ABFE5",
"W  c #4EC0D4",
"Q  c #4BC1E5",
"!  c #84ABDD",
"~  c #8AAFDE",
"^  c #8DB1DF",
"/  c #92B3DF",
"(  c #95B5E0",
")  c #99B7E1",
"_  c #9CB9E2",
"`  c #A3BDE3",
"'  c #A7C0E4",
"]  c #ABC3E5",
"[  c #B0C6E7",
"{  c #B3C8E7",
"}  c #B7CBE8",
"|  c #BBCEE9",
" . c #BFD0EA",
".. c #C4D4EC",
"X. c #C8D6ED",
"o. c #CBD9EE",
"O. c #D0DCEF",
"+. c #D2DEF0",
"@. c #D7E1F1",
"#. c #D9E3F2",
"$. c #DCE5F3",
"%. c #DFE7F4",
"&. c #E0E8F4",
"*. c #E1E8F5",
"=. c #E2E9F5",
"-. c #E3EAF5",
";. c #E5EBF6",
":. c #E7EDF7",
">. c #E8EDF7",
",. c #EBF0F8",
"<. c #EEF2F9",
"1. c #F1F5FA",
"2. c #F4F7FB",
"3. c #F6F8FC",
"4. c #F9FAFD",
"5. c #FAFBFD",
"6. c #FCFDFE",
"7. c #FDFEFE",
"8. c #FEFEFF",
/* pixels */
"W W W W W W W W W P W W P W W W P W W W P W W P W P P W P P P P P P P P P P P P P P P P P P P P P P P P P P P P L P P L P P P L P L P P L P P L L P L L P L L P L L L L L L L L L L L L L L L L L L L L ",
"W W W P W P P W W P W P P W P J P P P P P P P P P P P P P P P P P P P P P P P P L P P P P L L P L P L L L P L P L L L P L L P L L L L L L L L L L L L L L L L L L L L L L L L L L L L K L L L L L K L L ",
"W W W -                                                                                                                                                                                         K L L K ",
"W J F 6 * * * * * * * * * * * * * * * * * * * * * * * * * $ $ $ & * * * * * * * $ $ $ $ $ * * * * $ $ $ $ $ $ $ $ $ $ $ $ $ $ $ $ $ $ $ $ $ $ $ $ $ $ $ $ $ $ $ $ $ $ $ $ $ $ $ $ $ $ & $ $ $ $ u D L L ",
"W e   r Q Q Q Q Q Q Q Q Q Q Q Q Q Q Q Q Q Q Q Q Q Q Q Q Q i i i n Q Q E Q Q Q E i i i i i R E E Q i i i i i i i i i i i i i i i i i i i i i i i i i i i i i i i i i i i i i i i i i i i i i i i o   L L ",
"8 8 q j n n n n n n n n n n n m n n n n n n n b n m n n n i i i c n n n n n n n i i i i i n n b n i i i i i i i i i i i i i i i i i i i i i i i i i i i i i i i i i i i i i i i i i f n n n g i , > 7 9 ",
"  5 Q v i i i i i i i i i i i i i i i i i i i i i i i i i i i i i i i i i i i i i i i i i i i i i i i i i i i i i i i i i i i i i i i i i i i i i i i i i i i i i i i i i i i i i i h Q Q Q c i i i   + ",
"  5 Q v i i i i i i i i i i i i i i i i i i i i i i i i i i i i i i i i i i i i i i i i i i i i i i i i i i i i i i i i i i i i i i i i i i i i i i i i i i i i i i i i i i i i i i a h m Q R R a i   + ",
"  5 Q v i i i i i i i i i i i i i i i i i i i i i i i i i i i i i i i i i i i i i i i i i i i i i i i i i i i i i i i i i i i i i i i i i i i i i i i i i i i i i i i i i i i i i i i i n Q Q Q a i   + ",
"  5 Q v i i i i i i i i i i i i i i i i i i i i i i i i i i i i i i i i i p i i i i i i i i i i i i i i i p i i i i i i i i i i i i i i i i i i i i i i i i i i i i i i i i i i i i i i i i R Q a i   + ",
"  5 Q v i i i i i i i i i i i i i i i i i i i i i i i i i p i p i i i i i i i i i i i s i i i i i p i i i i i i i i i i a i i i i i i i i i i i i i i i i i i i i i i i i i i i i i i i i i T Q a i   + ",
"  5 Q v i i i i i i i i i i i i i i i i i i i i i i i i i i i i i i i a i i i i i i i i i i i i i i i i i i i i i i i i i i i i i a i i p i i i i i i i i i i i i i i i i i i i i i i i i i i i i i   + ",
"  5 Q v i i i i i i i i i i i i i i i i i i i i i i i i i i i i i i i i i i i i i i i i i i i i i i i i p i i i i i i i i i i i a i i i i i i i i i i i i i i i i i i i i i i i i i i i i i i i i i   @ ",
"  5 E v i i i i i i i i i i i i i i i i i i i i p i i i i i i i i i i i i i i i i i i i p i i i i i i i i i i i i i i i i i i i i i i i i i i i i i i i i i i i i i i i i i i i i i i i i i i i i i   + ",
"  2 n h i i i i i i i i i i i i i i i i i i i i i i i i i i i i i i i i i i i i i i i i i i i i i i p i i i i p i i i i i i i i i i i i i i i i i i i i i i i i i i i i i i i i i i i i i i i i i i   + ",
"  ; i i i A ...... ._ d i A ....d i i i i N X.X.^ i p ` ..' i i ` o.! A X.X.......U A ........` z i i i p ` X./ i i B X.| i ! X.O.o./ i i i i A ......X.` z i i i ! ..O.| C i i ' ..........[ i i i   + ",
"  ; i i i ! 8.8.8.8.8.=.d ! 8.8.d i i i i ] 8.8.=.i i / 8.8.C B 5.3.M ! 8.8.8.8.8./ ! 8.8.8.8.8.=.s i i i { 8.>.i i ] 8.o.! 8.8.8.8.-.i i i i ! 8.8.2.8.8.$.i i | 8.8.8.8.8.! i #.8.8.8.8.8.:.i i i   + ",
"  ; i i i ! 8.8.k _ 8.8.U ! 8.8.d i i i i %.8.8.8.V i i =.8.....8.[ i ! 8.8.M M N l ! 8.8.i / 8.4.Z i i i Z 8.8.A i #.8./ ..8.+.l N I i i i i ! 8.8.i / 8.5.i I 8.8./ l O.8.<.i x M o.8.#.M x i i i   + ",
"  ; i i i ! 8.8.k S 8.8.Y ! 8.8.k i i i C 8.%.=.8.] i i ! 8.5.5.2.z i ! 8.8.] ] ! i ! 8.8.i I 8.4.N i i i i :.5.[ x 4.4.l | 8.4.o.` z i i i i ! 8.8.! X.8.o.i ] 8.1.i i ! 8.8.B i i X.8.#.i i i i i   + ",
"  ; i i i ! 8.8.o.<.8.1.z ! 8.8.d i i i } 8.[ ] 8.=.i i i $.8.8.] i i ! 8.8.8.8.o.i ! 8.8.:.8.8.X.i i i i i ] 5.=._ 8.o.i S 1.8.8.8.>.d i i i ~ 8.8.8.8.2./ i X.8.>.i i I 8.8.U i i X.8.@.i i i i i   + ",
"  ; i i i ! 8.8.>.:.o.A i ! 8.8.d i i i >.8.O.O.8.8.A i i / 8.8.l i i ~ 8.8.U I C i ! 8.8.X.8.8.Z i p i i i V 4.8.$.8.^ i i k / o.8.8.U i i i ! 8.8.d ~ 8.8.A ] 8.1.i i ! 8.8.M i i X.8.#.i i i i i   + ",
"  ; i i i ! 8.8.d i i i i ! 8.8.Z V V I 8.8.3.3.8.8.| i i ^ 8.8.i i i ! 8.8.V C C x ! 8.8.d @.8.o.i i i i i p =.8.8.3.d i ^ / B ! 8.8.S i i i ! 8.4.i Y 8.8./ I 8.8._ M @.8.>.i i i X.8.@.i i i i i   + ",
"  ; i i i ! 8.8.d i i i i ! 8.8.8.8.8.X.8.| i i } 8.,.i i ^ 8.8.i i i ! 8.8.8.8.8.] ! 8.8.d U 8.5.S i i i i i ` 8.8.X.i i o.8.8.8.8.-.a i i i ! 8.8.4.8.8.<.M i  .8.8.8.8.3.I i i i X.8.@.i i i i i   + ",
"  ; i i i Z | | a i i i i C  .} | |  .] | A i i V | | x i A | | i i i Z | | | |  .Y Z | | s i ` X.~ i i i i p N | | I i i S | o.O.` z i i i i A | | | | ` z i i i ! ..o.[ N i i i i / | ) i i i i i   + ",
"  ; i i i i i i i i i i i i i i i i i i i i i i i i i i i i p i i i i i i i i i i i i i i p i i i i i i i i i i i i i i i i i i i i i i i i i i i i i i i i i i i i i i i i i i i i i i i i i i i i . + ",
"  ; i i i i i i i i i i i i i i i i i i i i i i i i i i i i i i i i i p i i i p i i i i i i i p i i a i i i i i i i i s i i i i i i i i i i i i i i i i i i i i i i i i i i i i i i i i i i i i i i   + ",
"  ; i i i i i i i i i i i i i i i i i i i i i i i i i i i i i i i i i i i i i i i i i i i i i i i i i i i i i i i i i i i i i i i i i i i i a i i i i i i i i i i i i i i i i i i i i i i i i i i i   + ",
"  ; i i i i i i i i i i i i i i i i i i i i i i i i i i i i i i i i i i i i i i i i i i i i i i i i i i i i i i i i i i i i i i i i i i i i i i i i i i i i i i i i i i i i i i i i i i i i i i i i   + ",
"  ; i i i i i i i i i i i i i i i i i i i i i i i i i i i i i i i i p i i i i i i i i i i i i i i i i i i i i i i i i i i i i i i i i i i i i i i i i i i i i i i i i i i i i i i i i i i i i i i i   + ",
"  ; i i i i i i i i i i i i i i i i i i i i i i i i i i i i i i i i i i p i i i i i i i i i i i i i p i i i i i i i i i i i i i i i i i i i i i i i i i i i i i i i i i i i i i i i i i i i i i i i   + ",
"  : f p i i i i i i i i i i i i i i i i i i i i i i i i i i i i i i i i i i i i i i i i i i i i i i i i i i i i i i i i i i i i i i i i i i i i i i i i i i i i i i i i i i i i i i i i i i i i f f   + ",
"  5 Q v i i i i i i i i i i i i i i i i i i i i i i i i i i i i i i i i i i i i i i i i i i i i i i i i i i i i i i i i i i i i i i i i i i i i i i i i i i i i i i i i i i i i i i i i i i i i E Q   + ",
"  < G b v v v v v v v v v v v v v v v v v v v n v v v v v v v v b v v v v v v v v v v v v v v v v v v v v v v v v v v v v v v v v v v v v v v v v v v v v v v v v v v v v v v v v v v v v v n v G G   + ",
"  @ = G Q Q Q Q Q Q Q Q Q Q Q Q Q Q Q Q Q Q E Q Q Q Q Q Q Q Q Q E Q E E Q E Q Q Q Q Q Q Q Q Q Q Q Q Q Q Q Q Q Q Q Q Q Q Q Q Q Q Q Q Q Q Q Q Q Q Q Q Q Q Q Q Q Q Q Q Q Q Q Q Q Q Q Q Q Q Q Q Q Q < =   + ",
"y 6 O 4 0 0 0 0 0 0 0 0 0 0 0 0 0 0 0 0 0 0 0 0 0 0 0 0 0 0 0 0 0 0 0 0 0 0 0 0 0 0 0 0 0 0 0 0 0 0 9 0 0 0 0 0 0 0 0 0 0 0 0 0 0 0 0 0 0 0 0 0 0 0 0 0 0 0 0 0 0 0 0 0 0 0 0 0 0 0 0 0 0 0 0 0 # O t t ",
"P w   % = = = = = = = = = = = = = = = = = = = = = = = = = = = = = = = = = = = = = = = = = = = = = = = < = = = = = = = = = = = = = = = = = = = = = = = = = = = = = = = = = = = = = = = = = = = =     K K ",
"P P H 1 X X X X X X X X X X X X X X X X X X X X X X X X X X X X X X X X X X X X X X X X X X X X X X X X X X X X X X X X X X X X X X X X X X X X X X X X X X X X X X X X X X X X X X X X X X X . D D K K ",
"P P P 3                                                                                                                                                                                         K K K K "
};
