/* XPM */
static char *result[] = {
/* columns rows colors chars-per-pixel */
"100 38 105 2 ",
"   c #000000",
".  c #000310",
"X  c #041722",
"o  c #001A31",
"O  c #123546",
"+  c #143845",
"@  c #11354B",
"#  c #143C51",
"$  c #013D64",
"%  c #1B4A67",
"&  c #144E69",
"*  c #1F5C6E",
"=  c #235C7E",
"-  c #2C737F",
";  c #015285",
":  c #0A5786",
">  c #015F99",
",  c #02629D",
"<  c #266485",
"1  c #206A8C",
"2  c #2C7080",
"3  c #2B7390",
"4  c #2D7A92",
"5  c #348397",
"6  c #37839B",
"7  c #378C9A",
"8  c #3988A2",
"9  c #3487A8",
"0  c #358BA9",
"q  c #3E9CAC",
"w  c #3DA0BF",
"e  c #4194B4",
"r  c #409DB2",
"t  c #439FBC",
"y  c #0484D1",
"u  c #0C87D2",
"i  c #0F88D2",
"p  c #1185D1",
"a  c #1D86D2",
"s  c #178CD3",
"d  c #1F92D5",
"f  c #359ECC",
"g  c #2387D2",
"h  c #2988D2",
"j  c #358BD3",
"k  c #3D8CD3",
"l  c #2395D6",
"z  c #2D9ED9",
"x  c #34A0D3",
"c  c #35A6DB",
"v  c #39AADD",
"b  c #448FD4",
"n  c #4A91D4",
"m  c #5495D6",
"M  c #5A97D6",
"N  c #5F99D7",
"B  c #629AD7",
"V  c #659CD8",
"C  c #6B9ED9",
"Z  c #48A4C7",
"A  c #46AEC0",
"S  c #41A7C9",
"D  c #4BB2CE",
"F  c #4BBACD",
"G  c #4DAED3",
"H  c #4DB5D3",
"J  c #4EBBD3",
"K  c #6FA0D9",
"L  c #74A3DA",
"P  c #7AA6DB",
"I  c #7EA8DC",
"U  c #42B5E0",
"Y  c #46BAE2",
"T  c #4ABFE5",
"R  c #4EC0D4",
"E  c #4BC1E5",
"W  c #84ABDD",
"Q  c #89AEDE",
"!  c #8EB1DF",
"~  c #92B3DF",
"^  c #95B5E0",
"/  c #99B7E1",
"(  c #9CB9E2",
")  c #A4BEE4",
"_  c #A7C0E4",
"`  c #ACC3E5",
"'  c #B1C6E7",
"]  c #B3C8E7",
"[  c #B6CAE8",
"{  c #BBCEE9",
"}  c #BFD0EA",
"|  c #C4D4EC",
" . c #C8D6ED",
".. c #CCD9EE",
"X. c #D0DCEF",
"o. c #D3DEF0",
"O. c #D6E0F1",
"+. c #DAE4F3",
"@. c #E2E9F5",
"#. c #E8EEF7",
"$. c #EAEFF8",
"%. c #EEF2F9",
"&. c #F2F5FB",
"*. c #F6F8FC",
"=. c #FFFFFF",
/* pixels */
"R R R R R R R R R J R R J R R R R J R R R J R R J J R J J J J J J J J J J J J J J J J J J J J J J J J J J J J J H J J H J J J H H J H J J H J H J H H H J H J H H H H H H H H H H H H H H H H H H H H H ",
"R R R J R J J R R J R J J R J F J J J J J J J J J J J J J J J J J J J J J J J J J J H J J H H J H J H H H J H J H H H J H H J H J H H H H H H H H H H H H H H H H H H H H H H H H H H G H H H H H G H H ",
"R R R -                                                                                                                                                                                         G H H G ",
"R F A 5 * * * * * * * * * * * * * * * * * * * * * * * * * $ $ $ & * * * * * * * $ $ $ $ $ * * * * $ $ $ $ $ $ $ $ $ $ $ $ $ $ $ $ $ $ $ $ $ $ $ $ $ $ $ $ $ $ $ $ $ $ $ $ $ $ $ $ $ $ & $ $ $ $ t Z H H ",
"R q   w E E E E E E E E E E E E E E E E E E E E E E E E E y y y c E E E E E E Y y y y y y Y E T E y y y y y y y y y y y u y y y y y y y y y y y y y y y y y y y y y y y y y y y y y y y y y y y o   H H ",
"7 7 0 f c c c c c c c c c c c v c c c c c c c x c v c c c y y y l c c c c c c c y y y y y c c c c y y y y y y y y y y y y y y y y y y y y y y y y y y y y y y y y y y y y y y y y y s c c c d y , > 6 8 ",
"  4 E z y y y y y y y y y y y y y y y y y y y y y y y y y y y y u y y y y y y y y y y y y y y y y y y y y y y y y y y y y y y y y y y y y y y y y y y y y y y y y y y y y y y y y y d E E E l y y y   + ",
"  4 E z y y y y y y y y y y y y y y y y y y y y y y y y y y y y y y y y y y y y y y y y y y y y y y y y y y y y y y y y y y y y y y y y y y y y y y y y y y y y y y y y y y y y y y u d v E Y Y u y   + ",
"  4 E l y y y y y y y y y y y y y y y y y y y y y y y y V | |  .| ) j y y y Q | o.{ B y y `  .| | | | ' y y u ) | / y y m | } y I | o...^ y y y y y y y y y y y y y y y y y y y y y y y v E E E p y   + ",
"  4 E z y y y y y y y y y y y y y y y y y y y y y y y y W =.=.&.=.=.+.y y { =.=.=.=.*.Q y o.=.=.=.=.=.#.y y y ] =.#.y y _ =.X.W =.=.=.=.@.y y y y y y y y y y y y y y y y y y y y y y y y y U E i y   + ",
"  4 E z y y y y y y y y y y y y y y y y y y y y y y y y W =.*.y ^ =.=.y L =.=.^ h X.=.&.y k b X.=.+.n b y y y V =.=.V y +.=.^ } =.o.h b L y y y y y y y y y y y y y y y y y y y y y y y y y v E i y   + ",
"  4 E z y y y y y y y y y y y y y y y y y y y y y y y y W =.=.P  .=.o.y ` =.%.y y W =.=.m y y  .=.+.y y y y y y @.=.` k =.*.h { =.*...) j y y y y y y y y y y y y y y y y y y y y y y y y y y y y y   + ",
"  4 E z y y y y y y y y y y y y y y y y y y y y y y y y W =.=.=.=.*.~ y | =.#.y y K =.=.P y y  .=.O.y y y y y y ` =.@.( =...y C &.=.=.=.#.g y p y y y y y y y y y y y y y y y y y y y y y y y y y y   # ",
"  4 E z y y y y y y y y y y y y y y y y y y y y y y y y W =.=.g Q =.=.B ` =.&.y y Q =.=.b y y  .=.+.y y y y y y M =.=.+.=.! y y g ~ ..=.=.L y y y y y y y y y y y y y y y y y y y y y y y y y y y y   + ",
"  1 v d y y y y y y y y y y y y y y y y y y u y y y u y W =.*.y I =.=.^ P =.=.( b o.=.#.y y y  .=.+.y y y y y y y @.=.=.*.a y Q Q M W =.=.C y y y y y y y y y y y y y y y y y y y y y y y y y y y y   + ",
"  ; y y y y y y y y y y y y y y y y y y y y y y y y y y W =.=.*.=.=.%.b y | =.=.=.=.*.L y y y  .=.+.y y y u y y y _ =.=. .y y ..=.=.=.=.@.p y y y y u y y y y y y y y y y y y y y y y y y y y y y y   + ",
"  ; y y y y y y y y y y y y y y y y y y y y y y y y y y B | | [ [ ) j y y y Q |  .[ n y y y u ~ { ( y y y y y y y m [ { L y y C {  . .` j y y u y y y y y y y y y y y y y y y y y y y y y y y y y y   + ",
"  ; y y y y y y y y y y y y y y y y y y y y y y y y y y y y y y y y y p y y y y y y y y y y y y y y y y y y y y y y y p y y y y y y u y y y y y y y y y y y y y y y y y y y y y y y y y y y y y y y   + ",
"  ; y y y y y y y y y y y y y y y y y y y y y y y u y y y y y y y y y y y y y y y y y y y y y y y y y y y y y y y y y y y u y y y y y y y y y y y y y u y y y y y y y y y y y y y y y y y y y y y y   + ",
"  ; y y y y y y y y y y y y y y y y y y y y y y y y y y y y y y y y y y y y y y u y y y y y y y y y y y y y y y y y y y y y y y y y y y y y y y y y y y y y y y y y y y y y y y y y y y y y y y y y   + ",
"  ; y y y y y y y y y y y y y y y y y y y y y y y y y y y y y y y y y y y y y y y y y y y y y y u y y y y y y y y y y y y y y y y y y y y y y y y y y y y y y y y y y y y y y y y y y y y y y y y y   + ",
"  ; y y y y y y y y y y y y y y y y y y y y y y y V | | | | ) h y y y n | | Q y y V | | P y M | ' y B | | | { ^ a y y y Q | ..| B y y V | | { y y P | | ) y y y y y y y y y y y y y y y y y y y y y   + ",
"  ; y y y y y y y y y y y y y y y y y y y y y y y W =.=.=.=.=.@.p y p ) =.=.@.y y W =.=.#.p L =.@.y W =.=.=.=.=.#.b y { =.=.*.=.=.Q y W =.=.=.M y  .=.=.@.y y y y y y y y y y y y y y y y y y y y y   + ",
"  ; y y y y y y y y y y y y y y y y y y y y y y y W =.=.y ~ =.=.V y y @.=.=.=.M y W =.=.=.) L =.@.y W =.=.n W &.=.{ L =.=.~ h X.=.%.y W =.=.=._ y &.=.=.@.y y y y y y y y y y y y y y y y y y y y y   + ",
"  ; y y y y y y y y y y y y y y y y y y y y y y y W =.=.y L =.=.n y B =.+.@.=.' y W =.&.=.&.W =.@.y W =.=.a y ..=.@._ =.&.y y W =.=.m W =.$.=.+.K =.#.=.+.y y y y y y y y y y y y y y y y y y y y y   # ",
"  ; y y y y y y y y y y y y y y y y y y y y y y y W =.=.#.=.=.{ y y ' =.' ' =.@.y W =.O.+.=.+.=.@.y W =.=.g y { =.$.| =.#.y y L =.=.P W =...&.=.{ =.| =.@.y y y y y y y y y y y y y y y y y y y y y   O ",
"  ; y y y y y y y y y y y y y y y y y y y y y y y W =.=...=.=.V y y #.=.o.X.=.=.V W =.O.C *.=.=.@.y W =.=.a y ..=.+.` =.&.y y Q =.=.b W =.o...=.=.+.[ =.@.y y y y y y y y y y y y y y y y y y y y y   + ",
"  ; y y y y y y y y y y y y y y y y y y y y y y y W =.=.a O.=.X.y K =.=.&.&.*.=.[ W =.O.y | =.=.@.y W =.=.N Q &.=.[ P =.=.( b o.=.#.y W =.../ =.=.] [ =.@.y y y y y y y y y y y y y y y y y y y y y   + ",
"  ; y y y y y y y y y y y y y y y y y y y y y y y W =.=.a L =.=.C | =.{ u y [ =.%.W =.o.y b &.=.@.y W =.=.=.=.=.+.g y | =.=.=.=.*.L y W =...k =.=.C [ =.+.y y y y y y y y y y y y y y y y y y y y y   + ",
"  ; y y y y y y y y y y y y y y y y y y y y y y y N { { p y ` { ~ ) { V y y M { { C { ( y y Q { ) y N { { { ` W y y y y W |  .' n y y N { ^ y _ [ y W { ) y y y y y y y y y y y y y y y y y y y y y   + ",
"  : s u y y y y y y y y y y y y y y y y y y y y y y y y y y y y y y y y y y y y y y y y y y y y y y y y y y y y y y y y y y y y y y y y y y y y y y y y y y y y y y y y y y y y y y y y y y y y s s   + ",
"  4 E z y y y y y y y y y y y y y y y y y y y y y y y y y y y y y y y y y y y y y y y y y y y y y y y y y y y y y y y y y y y y y y y y y y y y y y y y y y y y y y y y y y y y y y y y y y y y T E   + ",
"  < S x z z z z z z z z z z z z z z z z z z z z z z z z z c z z z z z z z z z z z z z z z z z z z z z z z z z z z z z z z z z z z z z z z z z z z z z z z z z z z z z z z z z z z z z z z z c z S S   + ",
"  @ = S E E E E E E E E E E E E E E E E E E E E E E E E T E E E E E E E E E E E E E E E E E E E E E E E E E E E E E E E E E E E E E E E E E E E E E E E E E E E E E E E E E E E E E E E E E E E < =   + ",
"r 5 O 3 9 9 9 9 9 9 9 9 9 9 9 9 9 9 9 9 9 9 9 9 9 9 9 9 9 9 9 9 9 9 9 9 9 9 9 9 9 9 9 9 9 9 9 9 9 9 9 9 9 9 9 9 9 9 9 9 9 9 9 9 9 9 9 9 9 9 9 9 9 9 9 9 9 9 9 9 9 9 9 9 9 9 9 9 9 9 9 9 9 9 9 9 # O e e ",
"J q   % = = = = = = = = = = = = = = = = = = = = = = = = = = = = = = = = = = = = = = = = = = = = = = = = = = = = = = = = = = = = = = = = = = = = = = = = = = = = = = = = = = = = = = = = = = = =     G G ",
"J H D 2 X X X X X X X X X X X X X X X X X X X X X X X X X X X X X X X X X X X X X X X X X X X X X X X X X X X X X X X X X X X X X X X X X X X X X X X X X X X X X X X X X X X X X X X X X X X . Z Z G G ",
"J J J 2                                                                                                                                                                                         G G G G "
};
