/* XPM */
static char *_9d7fd47851d430fb38278d2dba230b3adbBj5IZ3yVcnQ48[] = {
/* columns rows colors chars-per-pixel */
"100 38 117 2 ",
"   c #000000",
".  c #000310",
"X  c #041722",
"o  c #001A31",
"O  c #123546",
"+  c #143845",
"@  c #11354B",
"#  c #143C51",
"$  c #013D64",
"%  c #1B4A67",
"&  c #144E69",
"*  c #1F5C6E",
"=  c #235C7E",
"-  c #2C737F",
";  c #015285",
":  c #0A5786",
">  c #015F99",
",  c #02629D",
"<  c #266485",
"1  c #2B6F80",
"2  c #206A8C",
"3  c #2C7080",
"4  c #2B7390",
"5  c #2D7A92",
"6  c #348397",
"7  c #37839B",
"8  c #378C9A",
"9  c #3988A2",
"0  c #3487A8",
"q  c #358BA9",
"w  c #3E97AC",
"e  c #3E9CAC",
"r  c #3DA0BF",
"t  c #4194B4",
"y  c #409DB2",
"u  c #439FBC",
"i  c #0484D1",
"p  c #0C87D2",
"a  c #0F88D2",
"s  c #1185D1",
"d  c #1D86D2",
"f  c #178CD3",
"g  c #1F92D5",
"h  c #359ECC",
"j  c #2387D2",
"k  c #2988D2",
"l  c #338AD3",
"z  c #3C8CD3",
"x  c #2395D6",
"c  c #2D9ED9",
"v  c #34A0D3",
"b  c #35A6DB",
"n  c #39AADD",
"m  c #448FD4",
"M  c #4A91D4",
"N  c #5495D6",
"B  c #5A97D6",
"V  c #5F99D7",
"C  c #629AD7",
"Z  c #659CD8",
"A  c #6B9ED9",
"S  c #48A4C7",
"D  c #46AEC0",
"F  c #41A7C9",
"G  c #4BB2CE",
"H  c #4BBACD",
"J  c #4DAED3",
"K  c #4DB5D3",
"L  c #4EBBD3",
"P  c #6FA0D9",
"I  c #74A3DA",
"U  c #7AA5DB",
"Y  c #46BAE2",
"T  c #4ABFE5",
"R  c #4EC0D4",
"E  c #4BC1E5",
"W  c #84ABDD",
"Q  c #89AEDE",
"!  c #8DB1DF",
"~  c #96B5E1",
"^  c #99B7E1",
"/  c #9BB9E2",
"(  c #A3BEE4",
")  c #A7C0E4",
"_  c #ACC3E5",
"`  c #B1C6E7",
"'  c #B3C8E7",
"]  c #B6CAE8",
"[  c #BBCEE9",
"{  c #BFD0EA",
"}  c #C4D4EC",
"|  c #CCD9EE",
" . c #D0DCEF",
".. c #D2DEF0",
"X. c #D6E0F1",
"o. c #DAE4F3",
"O. c #DDE6F4",
"+. c #DFE7F4",
"@. c #E0E8F4",
"#. c #E1E8F5",
"$. c #E2E9F5",
"%. c #E5EBF6",
"&. c #E7EDF7",
"*. c #E8EDF7",
"=. c #E9EEF7",
"-. c #EAEFF8",
";. c #EBF0F8",
":. c #EEF2F9",
">. c #EFF3FA",
",. c #F0F3FA",
"<. c #F3F6FB",
"1. c #F4F6FB",
"2. c #F5F7FB",
"3. c #F6F8FC",
"4. c #F9FAFD",
"5. c #FBFCFD",
"6. c white",
/* pixels */
"R R R R R R R R R L R R L R R R L R R L R R R L R L L R L L L L L L L L L L L L L L L L L L L L L L L L L L L L K L L K L L L K L K L L K L L K K L K K L K K L K K K K K K K K K K K K K K K K K K K K ",
"R R R L R L L R R L R L L R L H L L L L L L L L L L L L L L L L L L L L L L L L L L K L L K K L K L K K K L K L K K K L K K L K K K K K K K K K K K K K K K K K K K K K K K K K K K K J K K K K K J K K ",
"R R R -                                                                                                                                                                                         J K K J ",
"R H D 6 * * * * * * * * * * * * * * * * * * * * * * * * * $ $ $ & * * * * * * * $ $ $ $ $ * * * * $ $ $ $ $ $ $ $ $ $ $ $ $ $ $ $ $ $ $ $ $ $ $ $ $ $ $ $ $ $ $ $ $ $ $ $ $ $ $ $ $ $ & $ $ $ $ u S K K ",
"R e   r E E E E E E E E E E E E E E E E E E E E E E E E T i i i b E E E E E E Y i i i i i Y E E E i i i i i i i i i i i p i i i i i i i i i i i i i i i i i i i i i i i i i i i i i i i i i i i o   K K ",
"8 8 q h b b b b b b b b b b b n b b b b b b b b n b b b b i i i x b b b b b b b i i i i i b b b b i i i i i i i i i i i i i i i i i i i i i i i i i i i i i i i i i i i i i i i i i f b b b g i , > 7 9 ",
"  5 E c i i i i i i i i i i i i i i i i i i i i i i i i i i i i p i i i i i i i i i i i i i i i i i i i i i i i i i i i i i i i i i i i i i i i i i i i i i i i i i i i i i i i i i g E E E x i i i   + ",
"  5 E c i i i i i i i i i i i i i i i i i i i i i i i i i i i i i i i i i i i i i i i i i i i i i i i i i i i i i i i i i i i i i i i i i i i i i i i i i i i i i i i i i i i i i i p g n E Y Y p i   + ",
"  5 E x i i i i i i i i i i i i i i i i i i i i i C } } } [ ( k i p i M } } Q i i Z } } U i N } _ i Z } } } [ ~ s i i i W }  .[ C i i C } } [ i i U } } _ i i i i i i i i i i i i i i i b E E E s i   + ",
"  5 E c i i i i i i i i i i i i i i i i i i i i i W 6.6.6.6.6.@.s i i _ 6.6.#.i i W 6.6.&.s I 6.@.i W 6.6.6.6.6.=.z i [ 6.6.6.6.6.W i W 6.6.6.B i } 6.6.+.i i i i i i i i i i i i i i i i i Y E a i   + ",
"  5 E c i i i i i i i i i i i i i i i i i i i i i W 6.6.i ^ 6.6.C i i @.6.6.6.B i W 6.6.6.( I 6.@.i W 6.6.M W 2.6.} I 6.6.~ k | 6.>.i W 6.6.6._ i ,.6.6.#.i i i i i i i i i i i i i i i i i n E a i   + ",
"  5 E c i i i i i i i i i i i i i i i i i i i i i W 6.5.i U 6.6.M i V 6.+.@.6.` i W 6.<.6.<.W 6.@.i W 6.6.d i | 6.@._ 6.,.i i W 6.6.N W 6.;.6.o.I 6.=.6.#.i i i i i i i i i i i i i i i i i i i i i   + ",
"  5 E c i i i i i i i i i i i i i i i i i i i p i W 6.6.=.4.6.[ i i ' 6._ ` 6.%.i W 6.X.o.6.o.6.@.i W 6.6.d i [ 6.>.} 6.=.i i I 6.6.U W 6...<.5.[ 6.} 6.@.i i i i i i i i i i i i i i i i i i i i i   # ",
"  5 E c i i i i i i i i i i i i i i i i i i i i i W 6.6.| 6.5.Z i i =.6.....6.6.Z W 6.X.Z 4.6.6.@.i W 6.6.d i | 6.+._ 6.>.i i Q 6.6.m W 6. .| 6.4.@.' 6.@.i i i i i i i i i i i i i i i i i i i i i   + ",
"  2 n g i i i i i i i i i i i i i i i i i i i i i W 6.6.d ..5. .i I 6.4.2.2.4.6.[ W 6.X.i } 6.6.@.i W 6.6.V Q 2.6.` I 6.6./ m ..6.&.i W 6.| ~ 6.6.` ] 6.@.i i i i i i i i i i i i i i i i i i i i i   + ",
"  ; i i i i i i i i i i i i i i i i i i i i i i i W 6.6.d U 6.5.I [ 6.[ i i ] 6.=.W 6...i m 2.6.@.i W 6.6.6.6.6.o.k i } 6.6.6.6.3.U i W 6.| z 5.6.A ] 6.@.i i i i i i i i i i i i i i i i i i i i i   + ",
"  ; i i i i i i i i i i i i i i i i i i i i i i i C [ } s i ( } ! ( [ Z i i B [ [ A [ ( i i ! [ ( i C [ } [ _ W i i i i Q } | ( M i i C [ ^ i ( [ i W } ( i i i i i i i i i i i i i i i i i i i i i   + ",
"  ; i i i i i i i i i i i i i i i i i i i i i i i i i i i i i i p i i i i i i i i i i i i i i i i i i i i i i i i i i i i i i p i i i i i i i p i i i i i i i i i i i i i i i i i i i i i i i i i i   + ",
"  ; i i i i i i i i i i i i i i i i i i i i i i i i i i i i i i i i i i i i i i i i i i i i i i i i i i i i i i i i i i i i p i i i i i i i i i i i i i i i i i i i i i i i i i i i i i i i i i i i   + ",
"  ; i i i i i i i i i i i i i i i i i i i i i i i i i i i i i i i i p i i i i i i i i p i i i i i i i i i i i i i i p i i i i i i i i i i i i i i i i i i i i i i i i i i i i i i i i i i i i i i i   + ",
"  ; i i i i i i i i i i i i i i i i i i i i i i i i i p i i i i i i s i i i i i i i i i i i i i i i i i i i i i i i i i i s i i i i i i i i i i i i i i i i i i i i i i i i i i i i i i i i i i i i   + ",
"  ; i i i i i i i i i i i i i i _ } ^ i i N } [ i U } ..| ~ i i i i C } } } } ( l i i i M } } ! i i Z } } U i N } _ i Z } } } ] ~ d i i i Q }  .} C i i A } } [ i i U } } _ i i i i i i i i i i i i   + ",
"  ; i i i i i i i i i i i i i i ' 6.=.i i ) 6. .W 5.6.6.6.%.i i i i W 5.6.5.6.6.@.s i i _ 6.6.+.i i W 6.6.%.s I 6.@.i W 6.6.5.6.6.-.m i [ 6.6.6.4.5.Q i W 6.4.6.B i } 6.6.+.i i i i i i i i i i i i   + ",
"  ; i i i i i i i i i i i i i i V 6.6.C i o.6.~ } 6. .k m I i i i i W 6.6.i ~ 6.5.C i i @.6.6.6.C i W 6.6.6.( I 6.@.i W 6.4.m W 2.5.} I 5.6.~ k | 5.>.i W 4.6.6.( i >.6.6.+.i i i i i i i i i i i i   + ",
"  ; i i i i i i i i i i i i i i i %.6.` z 5.2.k { 6.4.| ( l i i i i W 6.6.i U 6.6.M i V 6.+.@.6.` i W 6.<.6.<.W 6.@.i W 6.6.d i | 6.@._ 6.>.i i W 6.6.N W 6.;.6.o.I 6.&.6.@.i i i i i i i i i i i i   # ",
"  ; i i i i i i i i i i i i i i i _ 6.@.^ 6.| i A >.6.6.6.&.j i i i W 6.6.%.5.5.[ i i ] 6._ ` 6.%.i W 6.X.X.6.o.6.@.i W 6.6.d i [ 6.>.} 6.%.i i I 6.6.U W 6.| <.5.{ 6.{ 6.@.i i i i i i i i i i i i   O ",
"  ; i i i i i i i i i i i i i i i N 6.6.o.6.! i i d ~ | 6.6.U i i i Q 6.6.| 6.6.Z i i &.6. . .6.6.Z W 6.X.Z 5.6.6.@.i W 6.6.j i | 6.+._ 6.<.i i W 6.6.m W 6. .| 6.5.+.] 6.@.i i i i i i i i i i i i   + ",
"  ; i i i i i i i i i i i i i i i i +.6.6.2.d i ! ! B W 6.6.A i i i W 5.6.j ..6.| i P 6.6.<.2.5.6.] W 6.X.i } 6.6.@.i W 6.6.V Q 2.6.] U 6.6.^ m ..6.&.i W 6. .~ 6.6.` ] 6.@.i i i i i i i i i i i i   + ",
"  ; i i i i i i i i i i i i i i i i _ 6.6.| i i | 6.6.6.6.+.s i i i W 5.6.d U 6.6.P { 6.[ i i ] 6.-.W 6.X.i m 2.6.+.i W 6.6.6.6.6.o.j i } 6.6.5.6.3.U i W 6. .z 6.6.A ] 6.@.i i i i i i i i i i i i   + ",
"  ; i i i i i i i i i i i i i i i i M [ [ P i i A ] | | _ l i i i i C } [ p i ( [ ! ) [ Z i i B [ [ A [ ^ i i ! [ ( i V [ [ [ _ W i i i i W { | ` M i i V ' ~ i _ ' i W [ ( i i i i i i i i i i i i   + ",
"  : f p i i i i i i i i i i i i i i i i i i i i i i i i i i i i i i i i i i i i i i i i i i i i i i i i i i i i i i i i i i i i i i i i i i i i i i i i i i i i i i i i i i i i i i i i i i i i f f   + ",
"  5 E c i i i i i i i i i i i i i i i i i i i i i i i i i i i i i i i i i i i i i i i i i i i i i i i i i i i i i i i i i i i i i i i i i i i i i i i i i i i i i i i i i i i i i i i i i i i i T E   + ",
"  < F v c c c c c c c c c c c c c c c c c c c b c c c c c c c c c c c c c c c c c c c c c c c c c c c c c c c c c c c c c c c c c c c c c c c c c c c c c c c c c c c c c c c c c c c c c c b c F F   + ",
"  @ = F E E E E E E E E E E E E E E E E E E T E E E E E E E E E T T E E E E E E E E E E E E E E E E E E E E E E E E E E E E E E E E E E E E E E E E E E E E E E E E E E E E E E E E E E E E E E < =   + ",
"y 6 O 4 0 0 0 0 0 0 0 0 0 0 0 0 0 0 0 0 0 0 0 0 0 0 0 0 0 0 0 0 0 0 0 0 0 0 0 0 0 0 0 0 0 0 0 0 0 0 9 0 0 0 0 0 0 0 0 0 0 0 0 0 0 0 0 0 0 0 0 0 0 0 0 0 0 0 0 0 0 0 0 0 0 0 0 0 0 0 0 0 0 0 0 0 # O t t ",
"L w   % = = = = = = = = = = = = = = = = = = = = = = = = = = = = = = = = = = = = = = = = = = = = = = = < = = = = = = = = = = = = = = = = = = = = = = = = = = = = = = = = = = = = = = = = = = = =     J J ",
"L L G 1 X X X X X X X X X X X X X X X X X X X X X X X X X X X X X X X X X X X X X X X X X X X X X X X X X X X X X X X X X X X X X X X X X X X X X X X X X X X X X X X X X X X X X X X X X X X . S S J J ",
"L L L 3                                                                                                                                                                                         J J J J "
};
