/* XPM */
static char *_00c82d8b1ad42ab8a01949fec407c3b7xFWLPZtqRuur5xz[] = {
/* columns rows colors chars-per-pixel */
"100 38 105 2 ",
"   c #000000",
".  c #000112",
"X  c #020A17",
"o  c #020B1B",
"O  c #031417",
"+  c #031522",
"@  c #061E26",
"#  c #082227",
"$  c #09252A",
"%  c #0C2E3C",
"&  c #001E40",
"*  c #0F2F46",
"=  c #133950",
"-  c #003861",
";  c #1F5A6C",
":  c #014875",
">  c #235B7D",
",  c #23667B",
"<  c #276586",
"1  c #28698A",
"2  c #419EB3",
"3  c #41A9B4",
"4  c #0484D1",
"5  c #0A86D2",
"6  c #0F88D2",
"7  c #1185D1",
"8  c #1D86D2",
"9  c #178CD3",
"0  c #1E91D5",
"q  c #2387D2",
"w  c #2A89D2",
"e  c #358BD3",
"r  c #3C8CD3",
"t  c #2294D5",
"y  c #2B9BD8",
"u  c #33A4DB",
"i  c #37A8DC",
"p  c #3CAEDE",
"a  c #3FB2DF",
"s  c #3EB1E1",
"d  c #458FD4",
"f  c #4B91D5",
"g  c #5595D6",
"h  c #5A96D6",
"j  c #5D98D7",
"k  c #629AD7",
"l  c #659CD8",
"z  c #6A9ED8",
"x  c #40A5C7",
"c  c #46AEC1",
"v  c #46BAC1",
"b  c #4AB4CA",
"n  c #4AB8CB",
"m  c #4EBCD4",
"M  c #46B7DC",
"N  c #49BBDF",
"B  c #75A3DA",
"V  c #7BA6DB",
"C  c #7EA8DC",
"Z  c #43B7E1",
"A  c #44B9E2",
"S  c #48BDE4",
"D  c #4BC3CD",
"F  c #4EC3D4",
"G  c #4ECCD5",
"H  c #4BC2E6",
"J  c #4CC4E9",
"K  c #84ABDD",
"L  c #8AAFDE",
"P  c #8DB1DF",
"I  c #95B5E0",
"U  c #99B7E1",
"Y  c #9CB9E1",
"T  c #A2BCE3",
"R  c #A7C0E4",
"E  c #ABC3E5",
"W  c #B0C6E7",
"Q  c #B3C8E7",
"!  c #B7CBE8",
"~  c #BBCEE9",
"^  c #C5D5EC",
"/  c #C9D7ED",
"(  c #CBD9EE",
")  c #D2DDF0",
"_  c #D7E1F1",
"`  c #DBE4F3",
"'  c #DFE7F4",
"]  c #E0E8F4",
"[  c #E1E8F5",
"{  c #E2E9F5",
"}  c #E3EAF5",
"|  c #E5EBF6",
" . c #E7EDF7",
".. c #E9EEF7",
"X. c #EAEFF8",
"o. c #F0F3FA",
"O. c #F0F4FA",
"+. c #F4F6FB",
"@. c #F4F7FB",
"#. c #F6F8FC",
"$. c #F7F9FC",
"%. c #F9FAFD",
"&. c #FAFBFD",
"*. c #FBFCFE",
"=. c #FDFEFE",
/* pixels */
"G G D   O O O O O O O O O O O O O O O O O O O O O O O O O O O O O O O O O O O O O O O O O O O O O o O O O O O o O O o O O o O O o O O X O O o O O o O O o O O o O O + O O O O O O O O O O O o   n F m F ",
"G G D X @ # # @ @ @ @ # # @ @ # @ @ @ @ @ # @ @ @ @ @ # + o + + @ @ @ @ @ @ $ + + + + + + @ @ @ @ + + + + + + + + + + + + + + + + + + + + + + + + + + + + + + + + + o + + o + + + + + o + + + o n m F F ",
"G   % J J H H H H J H H H J H H H H S S J H H H J S J H u 4 4 4 S S J J J H J y 4 4 4 4 4 J S J s 4 4 4 4 4 4 4 4 4 4 4 4 4 4 4 4 4 4 4 4 4 4 4 4 4 4 4 4 4 4 4 4 4 4 4 4 4 4 4 4 4 4 4 4 4 4 4 &   m F ",
"v ; , A Z Z Z a Z Z Z Z Z Z Z Z Z Z A M A Z A Z Z M Z Z t 4 4 4 Z A A A A A A y 4 4 4 4 4 Z A A u 4 4 4 4 4 4 4 4 4 4 4 4 4 4 4 4 4 4 4 4 4 4 4 4 4 4 4 4 4 4 4 4 4 4 4 4 4 4 4 4 4 5 t 0 t 6 4 : - c c ",
"  J S 4 4 4 4 4 4 4 4 4 4 4 4 4 4 4 4 4 4 4 4 4 4 4 4 4 4 4 4 4 4 4 4 4 4 4 4 4 4 4 4 4 4 4 4 4 4 4 4 4 4 4 4 4 4 4 4 4 4 4 4 4 4 4 4 4 4 4 4 4 4 4 4 4 4 4 4 4 4 4 4 4 4 4 4 4 4 4 0 H S S y 4 4 4   $ ",
"  H S 4 4 4 4 4 4 4 4 4 4 4 4 4 4 4 4 4 4 4 4 4 4 4 4 4 4 4 4 4 4 4 4 4 4 4 4 4 4 4 4 4 4 4 4 4 4 4 4 4 4 4 4 4 4 4 4 4 4 4 4 4 4 4 4 4 4 4 4 4 4 4 4 4 4 4 4 4 4 4 4 4 4 4 4 4 4 4 9 u Z S Z i 6 4   $ ",
"  H H 4 4 4 4 4 4 4 4 4 4 4 4 4 4 4 4 4 4 4 4 4 4 4 4 4 4 4 4 4 4 4 4 4 5 4 4 4 4 4 4 4 4 4 4 4 4 4 4 4 4 4 4 4 4 4 4 4 4 4 4 4 4 4 4 4 4 4 4 4 4 4 4 4 4 4 4 4 4 4 4 4 4 4 4 4 4 4 4 4 u S S J 9 4   $ ",
"  H S 4 4 4 4 4 4 4 4 4 4 4 4 4 4 4 4 4 4 4 4 4 4 4 l ^ / / ^ U q 4 l ^ ^ 7 4 4 4 4 f ^ ^ L 4 4 T ^ T 4 4 E ^ C k ^ ^ ^ ^ ^ B k ^ ^ ^ ^ T w 4 4 4 4 4 4 4 4 4 4 4 4 4 4 4 4 4 4 4 4 4 5 7 t Z S 9 4   $ ",
"  H S 4 4 4 4 4 4 4 4 4 4 4 4 4 4 4 4 4 4 4 4 4 4 5 K =.=.=.=.=.{ 8 K =.=.8 4 5 4 4 E =.=.] 4 4 I =.=.j g &.$.d K *.=.=.=.=.Y K =.=.=.=.=.{ 7 4 4 4 4 4 4 4 4 4 4 4 4 4 4 4 4 4 4 4 4 4 4 4 p S 9 4   $ ",
"  H S 4 4 4 4 4 4 4 4 4 4 4 4 4 4 5 4 4 4 4 5 4 4 4 K =.=.q Y =.=.V K =.=.q 4 4 4 4 { =.=.=.h 4 4 ] =./ ^ =.W 4 K =.=.d d d w K =.=.4 U =.=.l 4 4 4 5 4 4 4 4 4 4 4 4 4 4 4 4 4 4 4 4 4 4 4 4 5 4 4   $ ",
"  H Z 4 4 4 4 4 4 4 4 4 4 4 4 4 4 4 4 4 4 4 4 4 4 4 K =.=.q z =.=.K K =.=.8 4 4 4 j =.{ ] =.W 4 4 K =.&.&.+.e 4 K =.=.E E L 4 K =.=.4 B =.=.f 4 4 4 4 4 4 4 4 4 4 4 4 4 4 4 4 4 4 4 4 4 4 4 4 4 4 4   $ ",
"  H N 4 4 4 4 4 4 4 4 4 4 4 4 4 4 4 4 4 5 4 4 4 4 4 K =.=.) o.=.O.e K =.=.q 4 4 4 ! =.E ! =.{ 4 4 4 ` =.=.E 4 4 K =.=.=.=.( 4 K =.=...=.=.~ 4 4 4 4 4 4 4 4 4 4 4 4 4 4 4 4 4 4 4 4 4 4 4 4 4 4 4 4   $ ",
"  A Z 4 4 4 4 4 4 4 4 4 4 4 4 4 4 4 4 5 4 4 4 4 4 4 K =.*...| ( z 4 K =.=.q 4 4 4 ..=.) ) =.=.l 4 4 I &.=.w 5 4 K =.=.V B j 4 K =.=.( =.&.l 4 4 5 4 4 4 4 4 4 4 4 4 4 4 4 4 4 4 4 4 4 4 4 4 4 4 4 4 . $ ",
"  4 4 4 4 4 4 4 4 4 4 4 4 4 4 4 4 4 4 4 4 4 4 4 4 5 K =.*.8 4 4 4 4 K =.=.k j j B =.=.$.$.*.=.! 4 4 L =.=.4 4 4 K =.=.j j j r K =.=.8 _ &.) 4 4 4 4 4 4 4 4 4 4 4 4 4 4 4 4 4 4 4 4 4 4 4 4 4 4 4 4   $ ",
"  4 4 4 4 4 4 4 4 4 4 4 4 4 4 4 4 5 4 4 4 4 4 5 4 4 K =.&.q 4 4 4 4 K =.=.=.=.=./ =.~ 4 4 ! =.X.4 4 L =.=.4 4 4 K =.=.=.=.=.Q K =.=.8 V &.=.B 4 4 4 5 4 4 4 4 4 4 4 4 4 4 4 4 4 4 4 4 4 4 4 4 4 4 4   $ ",
"  4 4 4 4 4 4 4 4 4 4 4 4 4 4 4 4 4 4 4 4 4 4 4 4 4 k ~ ^ 7 4 4 4 4 k ~ ~ ~ ~ ~ E ~ l 4 4 h ~ ~ e 4 z ~ ~ 4 4 4 k ~ ~ ~ ~ ! K j ~ ~ 6 4 E ~ P 5 4 4 4 4 4 4 4 4 4 4 4 4 4 4 4 4 4 4 4 4 4 4 4 4 4 4   $ ",
"  4 4 4 4 4 4 4 4 4 4 4 4 4 4 4 4 4 4 4 4 4 4 4 4 4 4 4 4 4 5 4 4 4 4 4 4 4 4 4 4 4 4 4 4 4 4 5 5 4 4 4 4 4 4 4 4 4 4 5 4 4 4 4 4 4 4 4 4 4 4 4 5 4 4 4 4 4 4 4 4 4 4 4 4 4 4 4 4 4 4 4 4 4 4 4 4 4   $ ",
"  4 4 4 4 4 4 4 4 4 4 4 4 4 4 4 4 4 4 4 4 4 4 4 4 4 4 5 4 4 4 4 4 4 5 4 4 4 4 4 4 4 4 4 4 4 4 4 4 4 4 4 4 4 4 5 4 4 4 4 4 4 5 4 4 4 4 4 4 4 4 4 4 4 4 4 4 4 4 4 4 4 4 4 4 4 4 4 4 4 4 4 4 4 4 4 4 4   $ ",
"  4 4 4 4 4 4 4 4 4 4 4 4 4 4 4 4 4 4 4 5 4 4 4 4 4 4 4 4 4 4 4 4 4 4 4 4 4 4 4 4 4 4 4 4 4 4 4 4 4 4 4 4 4 4 4 4 4 4 4 4 4 4 4 4 4 4 4 4 5 4 4 4 4 5 4 4 4 4 4 4 4 4 4 4 4 4 4 4 4 4 4 4 4 4 4 4 4 . $ ",
"  4 4 4 4 4 4 4 4 4 4 4 4 4 4 4 4 4 4 4 4 4 4 4 4 4 4 4 4 5 4 4 5 4 4 4 4 4 4 4 4 4 4 4 4 5 4 4 4 4 4 4 4 4 4 4 4 5 4 4 5 4 4 4 4 5 4 4 4 4 4 4 4 4 4 4 5 4 4 4 4 4 4 4 4 4 4 4 4 4 4 4 4 4 4 4 4 4   $ ",
"  4 4 4 4 4 4 4 4 4 4 4 4 4 4 4 4 E ^ Y 4 4 g ^ ~ 4 C ^ ) ( Y 4 4 4 4 z ^ ^ ^ ^ T q 4 z ^ ^ 8 4 4 5 4 f ( ^ L 4 4 E / T 4 4 T / C l ^ ^ ^ ^ ^ B z ^ ^ ^ ^ T w 4 4 4 4 4 4 4 4 4 4 4 4 4 4 4 4 4 4 4   $ ",
"  4 4 4 4 4 4 4 4 4 4 4 4 4 4 4 4 Q =...4 4 T &.) C *.=.=.=.{ 4 4 4 4 K =.=.=.=.=.{ 8 K =.=.8 4 4 4 7 T =.=.' 4 4 P =.*.h g &.$.d K =.=.=.=.=.Y K *.=.=.=.*.{ 7 4 4 4 4 4 4 4 4 4 4 4 4 4 4 4 4 4 4   $ ",
"  4 4 4 4 4 4 4 4 4 4 4 4 4 4 4 4 k =.=.k 4 ' =.U ^ *.) w d B 4 4 4 4 K =.=.q Y =.=.B K =.=.8 4 4 4 4 { =.=.=.h 4 4 { *.^ ^ *.Q 4 K =.=.d d d w K =.=.4 Y =.=.k 4 4 4 4 4 4 4 4 4 4 4 4 4 4 4 4 4 4   $ ",
"  4 4 4 4 4 4 4 4 4 4 4 4 4 4 4 4 4 { =.W d &.$.w ~ =.&.) T e 4 4 4 4 K =.=.8 z =.=.K K =.=.8 4 4 4 k *.{ ' =.Q 4 4 K &.&.&.+.r 4 K =.=.E E L 4 K *.=.4 B *.=.f 4 4 4 4 4 4 4 4 4 4 4 4 4 4 4 4 4 4   $ ",
"  4 4 4 4 4 4 4 4 4 4 4 4 4 4 4 4 4 E =.' Y =.( 5 z O.=.=.=...q 4 4 4 K &.=.) o.=.O.e K =.=.q 4 4 4 ! =.E Q =.{ 4 4 4 ` =.=.E 4 4 K =.=.=.=.( 4 K =.=. .&.=.~ 4 4 4 4 4 4 4 4 4 4 4 4 4 4 4 4 4 4 4 . $ ",
"  4 4 4 4 4 4 4 4 4 4 4 4 4 4 4 4 4 h =.=.' =.P 4 4 8 U ) =.=.V 4 5 5 K *.*.X.{ ( l 5 K =.=.8 4 4 4 X.=.) ) =.=.z 4 4 I =.=.e 4 5 K =.=.B V j 4 K =.=.( =.=.l 4 4 4 4 4 4 4 4 4 4 4 4 4 4 4 4 4 4 4   $ ",
"  4 4 4 4 4 4 4 4 4 4 4 4 4 4 4 4 4 4 { =.=.#.8 4 L P h K =.=.z 4 4 4 K =.=.q 4 4 4 4 K =.=.l j j B =.=.$.+.=.=.! 4 4 P =.=.4 4 4 K =.=.j j j r K =.=.q _ =.) 4 4 4 4 4 4 4 4 4 4 4 4 4 4 4 4 4 4 4   $ ",
"  4 4 4 4 4 4 4 4 4 4 4 4 4 4 4 4 4 4 E =.=./ 4 4 ( =.=.=.=.{ 5 4 4 4 K =.=.8 4 4 4 4 K =.=.=.=.=.^ =.~ 4 4 ! =.X.4 4 L =.=.4 4 4 K =.=.=.=.=.W K =.=.8 V =.*.V 4 4 4 4 4 4 4 4 4 4 4 4 4 4 4 4 4 4   $ ",
"  4 4 4 4 4 4 4 4 4 4 4 4 4 4 4 4 4 4 f ! ! B 4 4 z ~ ( / E e 4 4 4 4 j ~ ~ 7 4 4 4 4 k ! ~ ~ ~ ~ E ~ l 4 4 h ! ~ e 4 l ~ ~ 4 4 4 j ! ~ ~ ~ ~ C k ~ ~ 7 4 T ~ P 4 4 4 4 4 4 4 4 4 4 4 4 4 4 4 4 4 4   $ ",
"  J S 4 4 4 4 4 4 4 4 4 4 4 4 4 4 4 4 4 4 4 4 4 4 4 4 4 4 4 4 4 4 4 4 4 4 4 4 4 4 4 4 4 4 4 4 4 4 4 4 4 4 4 4 4 4 4 4 4 4 4 4 4 4 4 4 4 4 4 4 4 4 4 4 4 4 4 4 4 4 4 4 4 4 4 4 4 4 4 4 4 4 4 4 4 H J   $ ",
"  S M 9 9 9 9 9 9 9 9 9 9 9 9 9 9 9 9 9 9 9 9 9 9 9 9 9 9 9 9 9 9 9 9 9 9 9 9 9 9 9 9 9 9 9 9 9 9 9 9 9 9 9 9 9 9 9 9 9 9 9 9 9 9 9 9 9 9 9 9 9 9 9 9 9 9 9 9 9 6 9 9 9 9 9 7 9 9 9 9 9 9 9 w 0 N N   $ ",
"  > < J H H H H F H H H H H H H H H H H H H H H H H H H H H H H H H H H H H H H H H H H H J H H H H H H H H H H H H H H H H H H H H H H H H H H H H H H F H H H H H H H H H H F S H H H H H H S 1 >   $ ",
"  > < x x x x x x x x x x x x x x x x x x x x x x x x x x x x x i 3 x x x x x x x x x x x x x x x x x x x x x x x x x x x x x x x x x x x x x x x x x x x x x x x x x x x x x x x x x x x x x x 1 >   $ ",
"  > > > > > > > > > > > > > > > > > > > > > > > > > > > > > > > > > > > > > > > > > > > > > > > > > > > > > > > > > > > > > > > > > > > > > > > > > > > > > > > > > > > > > > > > > > > > > > > > >   $ ",
"3 * = > > > > > > > > > > > > > > > > > > > > > > > > > > > > > > > > > > > > > > > > > > > > > > > > > > > > > > > > > > > > > > > > > > > > > > > > > > > > > > > > > > > > > > > > > > > > > = * 2 2 ",
"G   . > > > > > > > > > > > > > > > > > > > > > > > > > > > > > > > > > > > > > > > > > > > > > > > > > > > > > > > > > > > > > > > > > > > > > > > > > > > > > > > > > > > > > > > > > > > > > o   m m ",
"F F n . @ + @ + O @ + + + @ + @ @ + + @ @ + @ + O @ + + + @ + @ + + @ + + + + @ + @ + + @ + + @ @ O + @ + + + @ + @ + + + + + + + @ + @ @ + + + O @ + + @ + @ + @ + + @ @ + @ O + @ + @ @ + + X c b m m ",
"F G D                                                                                                                                                                                           b m m m "
};
