/* XPM */
static char *result[] = {
/* columns rows colors chars-per-pixel */
"100 38 99 2 ",
"   c #000000",
".  c #000112",
"X  c #020A17",
"o  c #020B1B",
"O  c #031417",
"+  c #031522",
"@  c #061E26",
"#  c #082227",
"$  c #09252A",
"%  c #0C2E3C",
"&  c #001E40",
"*  c #0F2F46",
"=  c #12374E",
"-  c #133950",
";  c #003861",
":  c #1F5A6C",
">  c #014875",
",  c #235B7D",
"<  c #23667B",
"1  c #276586",
"2  c #28698A",
"3  c #419EB3",
"4  c #41A9B4",
"5  c #0484D1",
"6  c #0A86D2",
"7  c #0F88D2",
"8  c #1185D1",
"9  c #1D86D2",
"0  c #178CD3",
"q  c #1E91D5",
"w  c #2387D2",
"e  c #2988D2",
"r  c #358BD3",
"t  c #3D8CD3",
"y  c #2294D5",
"u  c #2B9BD8",
"i  c #33A4DB",
"p  c #37A8DC",
"a  c #3CAEDE",
"s  c #3FB2DF",
"d  c #3EB1E1",
"f  c #448FD4",
"g  c #4A91D4",
"h  c #5495D6",
"j  c #5A97D6",
"k  c #5F99D7",
"l  c #629AD7",
"z  c #659CD8",
"x  c #6B9ED9",
"c  c #40A5C7",
"v  c #46AEC1",
"b  c #40A6C8",
"n  c #46BAC1",
"m  c #4AB4CA",
"M  c #4AB8CB",
"N  c #4EBCD4",
"B  c #46B7DC",
"V  c #49BBDF",
"C  c #6FA0D9",
"Z  c #74A3DA",
"A  c #7AA6DB",
"S  c #7EA8DC",
"D  c #43B7E1",
"F  c #44B9E2",
"G  c #48BDE4",
"H  c #4BC3CD",
"J  c #4EC3D4",
"K  c #4ECCD5",
"L  c #4BC2E6",
"P  c #4CC4E9",
"I  c #84ABDD",
"U  c #89AEDE",
"Y  c #8EB1DF",
"T  c #92B3DF",
"R  c #95B5E0",
"E  c #99B7E1",
"W  c #9CB9E2",
"Q  c #A4BEE4",
"!  c #A7C0E4",
"~  c #ACC3E5",
"^  c #B1C6E7",
"/  c #B3C8E7",
"(  c #B6CAE8",
")  c #BBCEE9",
"_  c #BFD0EA",
"`  c #C4D4EC",
"'  c #C8D6ED",
"]  c #CCD9EE",
"[  c #D0DCEF",
"{  c #D3DEF0",
"}  c #D6E0F1",
"|  c #DAE4F3",
" . c #E2E9F5",
".. c #E8EEF7",
"X. c #EAEFF8",
"o. c #EEF2F9",
"O. c #F2F5FB",
"+. c #F6F8FC",
"@. c #FFFFFF",
/* pixels */
"K K H   O O O O O O O O O O O O O O O O O O O O O O O O O O O O O O O O O O O O O O O O O O O O O O O o O O O o O O o O O o O O O O O O O O o o O O O o o O O O o O o O O o O O O O O O O O o   M J N J ",
"K K H X @ # # @ @ @ @ # # @ @ # @ @ @ @ @ # @ @ # @ @ # + o + + @ @ @ @ @ @ # + + + + + + @ @ @ @ + + + + + + + + + + + + + + + + O + o + + + + + + + + + + + + + + + + + + + + + + + o + + + o M N J J ",
"K   % P P L L L L P L L L P L L L P L V L P L P P L L L i 5 5 5 L L P L P P P i 5 5 5 5 5 L P G d 5 5 5 5 5 5 5 5 5 5 5 5 5 5 5 5 5 6 5 5 5 5 5 5 5 5 5 5 5 5 5 5 5 5 5 5 5 5 5 5 5 5 5 5 5 5 5 &   N J ",
"n : < F D D D s D D D D D D D D D D B B D D D D D D D a y 5 5 5 d F F F D F d u 5 5 5 5 5 F F F i 5 5 5 5 5 5 5 5 5 5 5 5 5 5 5 5 5 5 5 5 5 5 5 5 5 5 5 5 5 5 5 5 5 5 5 5 5 5 5 5 5 6 y q y 7 5 > ; v v ",
"  P G 5 5 5 5 5 5 5 5 5 5 5 5 5 5 5 5 5 5 5 5 5 5 5 5 5 5 5 5 5 5 5 5 5 5 5 5 5 5 5 5 5 5 5 5 5 5 5 5 5 5 5 5 5 5 5 5 5 5 5 5 5 5 5 5 5 5 5 5 5 5 5 5 5 5 5 5 5 5 5 5 5 5 5 5 5 5 5 q L L G u 5 5 5   $ ",
"  L G 5 5 5 5 5 5 5 5 5 5 5 5 5 5 5 5 5 5 5 5 5 5 5 5 5 5 5 5 5 6 5 5 5 5 5 5 5 5 5 5 5 5 5 5 5 5 5 5 5 5 5 5 5 5 5 5 5 5 5 5 5 5 5 5 5 5 5 5 5 5 5 5 5 5 5 5 5 5 5 5 5 5 5 5 5 5 5 0 i B G D p 7 5   $ ",
"  L L 5 5 5 5 5 5 5 5 5 5 5 5 5 5 5 5 5 5 5 5 5 5 5 5 5 5 5 5 5 5 5 5 5 5 5 5 5 5 5 5 5 5 5 5 5 5 5 5 5 5 5 5 5 5 5 5 5 5 5 5 5 5 5 6 5 5 5 6 6 5 5 5 5 5 5 5 5 5 5 5 5 5 5 5 5 5 5 5 5 i G G L 0 5   $ ",
"  L G 5 5 5 5 5 5 5 5 5 5 5 5 5 5 5 5 5 5 5 5 5 5 5 z ' ' ' ` Q r 5 5 5 I ` { ) l 5 5 ! ` ` ` ` ` ^ 5 5 5 ~ ` E 5 5 h ` ) 5 A ` [ ' T 5 5 5 5 5 5 5 5 5 5 5 5 5 5 5 5 5 5 5 5 5 5 5 5 5 8 y D G 0 5   $ ",
"  L G 5 5 5 5 5 5 5 5 5 5 5 5 5 5 5 5 5 5 5 5 5 5 5 I @.@.+.@.@.| 5 5 ) @.@.@.@.@.U 5 | @.@.@.@.@. .5 5 5 ^ @...5 5 Q @.{ S @.@.@.@. .5 5 5 5 5 5 5 5 5 5 5 5 5 5 5 5 5 5 5 5 5 5 5 5 5 5 5 a P 0 5   $ ",
"  L G 5 5 5 5 5 5 5 5 5 5 5 5 5 5 5 5 5 5 5 5 5 5 5 I @.@.5 T @.@.5 Z @.@.T e [ @.X.5 t f ] @.| f f 5 5 5 k @.@.l 5 | @.R ` @.{ e f Z 5 5 5 5 5 5 5 5 5 5 5 5 5 5 5 5 5 5 5 5 5 5 5 5 5 5 5 5 5 5 5   $ ",
"  L F 5 5 5 5 5 5 5 5 5 5 5 5 5 5 5 5 5 5 5 5 5 5 5 I @.+.I ' @.[ 5 ~ @.O.5 5 I @.@.h 5 5 ' @.} 5 5 5 5 5 5 ..@.^ t @.+.e ) @.+.] Q r 6 5 5 5 5 5 5 5 5 5 5 5 5 5 5 5 5 5 5 5 5 5 5 5 5 5 5 5 5 5 5   $ ",
"  L V 5 5 5 5 5 5 5 5 5 5 5 5 5 5 5 5 5 8 5 5 5 5 5 I @.@.@.@.+.T 5 ` @...5 5 Z @.@.A 5 5 ' @.| 5 5 5 5 5 5 ~ @.| W @.] 5 z O.@.@.@. .w 5 5 6 5 5 5 5 5 5 5 5 5 5 5 5 5 5 5 5 5 5 5 5 5 5 5 5 5 5 5   $ ",
"  F D 5 5 5 5 5 5 5 5 5 5 5 5 5 5 6 5 5 5 5 5 5 6 5 I @.+.w Y @.@.l ~ @.O.5 5 U @.@.f 5 5 ' @.| 5 5 5 5 5 5 j @.@.| @.Y 5 5 w R ] @.@.Z 5 5 8 5 5 5 8 5 5 5 5 5 5 5 5 5 5 5 5 5 5 5 5 5 5 5 5 5 5 5 . $ ",
"  5 5 5 5 5 5 5 5 5 5 5 5 5 5 5 5 5 5 5 5 5 5 5 5 5 I @.@.6 S @.@.R A @.@.E f { @...5 5 5 ' @.{ 5 5 5 5 5 5 5  .@.@.+.w 5 U U j I @.@.x 5 5 5 5 5 5 5 5 8 5 5 5 5 5 5 5 5 5 5 5 5 5 5 5 5 5 5 5 5 5   $ ",
"  5 5 5 5 5 5 5 5 5 5 5 5 5 5 5 5 5 5 5 5 6 6 5 5 5 I @.@.+.@.@.o.f 5 ` @.@.@.@.O.A 5 5 5 ' @.{ 5 5 5 5 5 6 5 ~ @.@.' 5 5 ' @.@.+.@. .8 5 5 5 5 5 5 5 5 5 5 5 5 5 5 5 5 5 5 5 5 5 5 5 5 5 5 5 5 5 5   $ ",
"  5 5 5 5 5 5 5 5 5 5 5 5 5 5 5 5 5 6 5 5 5 5 5 5 5 k ) ) ) ( T r 5 5 5 I ` ' ^ g 5 5 5 5 T ) Q 5 5 6 5 5 5 5 g ) ) Z 5 5 x ) ] ' ! r 5 5 5 5 5 5 5 5 5 5 5 5 5 5 5 5 5 5 5 5 5 5 5 5 5 5 5 5 5 5 5   $ ",
"  5 5 5 5 5 5 5 5 5 5 5 5 5 5 5 5 5 5 5 5 5 5 5 5 5 5 5 5 5 5 6 5 6 5 5 5 5 5 5 5 5 5 6 5 5 5 5 5 6 5 5 6 5 5 5 5 5 5 5 5 6 5 5 5 5 5 5 5 5 5 5 6 5 5 5 5 6 5 5 5 5 5 5 5 5 5 5 5 5 5 5 5 5 5 5 5 5   $ ",
"  5 5 5 5 5 5 5 5 5 5 5 5 5 5 5 5 5 5 5 5 5 5 5 5 5 5 5 5 6 5 5 5 5 5 5 5 6 5 5 5 5 5 5 5 5 5 5 5 5 5 5 5 5 5 5 5 6 5 5 5 5 5 5 5 5 6 5 5 5 5 5 5 5 5 5 5 5 5 5 5 5 5 5 5 5 5 5 5 5 5 5 5 5 5 5 5 5   $ ",
"  5 5 5 5 5 5 5 5 5 5 5 5 5 5 5 5 5 5 5 6 5 5 5 5 5 5 5 5 5 5 6 5 5 5 5 5 5 5 5 5 6 5 5 6 5 5 5 5 5 5 5 5 5 5 5 5 5 5 6 5 5 5 5 5 5 5 5 5 5 5 5 5 5 5 6 5 5 5 5 5 5 5 5 5 5 5 5 5 5 5 5 5 5 5 5 5 5 . $ ",
"  5 5 5 5 5 5 5 5 5 5 5 5 5 5 5 5 5 5 5 5 5 5 5 5 5 5 5 5 5 5 6 5 5 6 5 5 5 5 5 5 5 5 5 5 5 5 5 5 6 5 5 5 5 5 5 5 5 5 5 5 5 6 5 5 6 5 5 5 5 5 5 5 5 5 5 5 5 5 5 5 5 5 5 5 5 5 5 5 5 5 5 5 5 5 5 5 5   $ ",
"  5 5 5 5 5 5 5 5 5 5 5 5 5 5 5 5 5 5 5 5 5 5 z ` ` ` _ Q e 5 5 5 h ' ` U 6 5 l ' ` A 5 h ` ~ 5 z ` ` ` ( T 8 5 5 5 U ` [ ` l 5 5 l ` ` ) 5 5 A ' ' Q 5 5 5 5 5 5 5 5 5 5 5 5 5 5 5 5 5 5 5 5 5 5 5   $ ",
"  5 5 5 5 5 5 5 5 5 5 5 5 5 5 5 5 5 5 5 6 5 5 I @.@.@.@.@. .8 6 6 Q @.@.| 5 5 I @.@...8 Z @. .5 I @.@.@.@.@...t 5 ) @.@.+.@.+.I 5 I @.@.@.j 5 ` @.@. .5 5 5 5 5 5 5 5 5 5 5 5 5 5 5 5 5 5 5 5 5 5 5   $ ",
"  5 5 5 5 5 5 5 5 5 5 5 5 5 5 5 5 5 5 8 5 5 5 I @.@.6 T @.@.l 5 5  .@.@.@.j 5 I @.@.@.Q C @. .5 I @.@.f I O.@.` Z @.@.T e [ @.o.5 I @.@.@.! 5 o.@.@. .5 5 5 5 5 5 5 5 5 5 5 5 5 5 5 5 5 5 5 5 5 5 5   $ ",
"  5 5 5 5 5 5 5 5 5 5 5 5 5 5 5 5 5 5 5 5 5 5 I @.@.6 Z @.@.g 5 k @.|  .@.^ 5 I @.O.@.O.I @. .5 I @.@.9 5 ' @. .~ @.o.5 5 I @.@.h I @.o.@.| C @...@. .5 6 5 5 5 5 5 5 5 5 5 5 5 5 5 5 5 5 5 5 5 5 5   $ ",
"  5 5 5 5 5 5 5 5 5 5 5 5 5 5 5 5 5 5 5 5 5 5 I @.@...@.@.) 5 5 ^ @.^ / @...5 I @.} } @.| @. .5 I @.@.9 5 ) @.o.` @...5 5 C @.@.A I @.{ O.@.) @._ @. .5 5 5 5 5 5 5 5 5 5 5 5 5 5 5 5 5 5 5 5 5 5 5 . $ ",
"  5 5 5 5 5 5 5 5 5 5 5 5 5 5 5 5 5 5 5 5 5 5 I @.@.' @.@.z 5 5 ..@.[ [ @.@.l I @.} x @.@.@. .5 I @.@.9 5 ] @.| ~ @.O.5 5 U @.@.f I @.] ] @.@. ./ @. .5 5 5 5 5 5 5 5 5 5 5 5 5 5 5 5 5 5 5 5 5 5 5   $ ",
"  5 5 5 5 5 5 5 5 5 5 5 5 5 5 5 5 5 5 5 5 5 5 I @.@.9 { @.[ 5 C @.@.O.O.@.@.( I @.} 5 _ @.@. .5 I @.@.k U +.@./ A @.@.E f { @...5 I @.[ R @.@.^ ( @. .5 5 5 5 5 5 5 5 5 5 5 5 5 5 5 5 5 5 5 5 5 5 5   $ ",
"  5 5 5 5 5 5 5 5 5 5 5 5 5 5 5 5 5 5 5 5 5 5 I @.@.9 A @.@.C ) @.( 5 5 / @...I @.} 5 f O.@. .5 I @.@.@.@.@.| e 5 ` @.@.@.@.O.Z 5 I @.[ t @.@.x / @.| 5 5 5 5 5 5 5 5 5 5 5 5 5 5 5 5 5 5 5 5 5 5 5   $ ",
"  5 5 5 5 5 5 5 5 5 5 5 5 5 5 5 5 5 5 5 5 5 5 k ) ) 8 5 ~ ) Y Q ) z 5 5 j ) ) x ) E 5 5 Y ) Q 5 k ) ) ) ~ I 5 5 5 5 U ) ] ^ g 5 5 k ) R 5 ! ( 5 I _ Q 5 5 5 5 5 5 5 5 5 5 5 5 5 5 5 5 5 5 5 5 5 5 5   $ ",
"  P G 5 5 5 5 5 5 5 5 5 5 5 5 5 5 5 5 6 5 5 5 5 5 5 5 5 5 5 5 5 5 5 5 5 5 5 5 5 5 5 5 5 5 5 5 5 5 5 5 5 5 5 5 5 5 5 5 5 5 5 5 5 5 5 5 5 5 5 5 5 5 5 5 5 5 5 5 5 5 5 5 5 5 5 5 5 5 5 5 5 5 5 5 5 L P   $ ",
"  G B 0 0 0 0 0 0 0 0 0 0 0 0 0 8 0 0 0 0 0 0 0 0 0 0 0 0 0 0 0 0 0 0 0 0 0 0 0 0 0 0 0 0 0 0 0 0 0 0 0 0 0 0 0 0 0 0 0 0 0 0 0 0 0 0 0 0 0 0 0 0 0 0 0 0 0 0 0 7 0 0 0 0 0 8 0 0 0 0 0 0 0 w q V V   $ ",
"  , 1 P L L L L J L L L L L L L V L L L L L J L L L L L L L L L L L L L L L L L L J L L L L L L L L L L L L L L L L L L L L L L L L L L L L L L L J L L L L L L L L L L L L L J G L L L L L L G 2 ,   $ ",
"  , 1 c c c c v c c c c c c c c c c c c c c c c c c c c c c c v c c c c c c c c b b b b b c c c c c c c c c c c c c c c c c c c c c c c c c c c c c c c c c c c c c c c c c c c c c c c c c c c 2 ,   $ ",
"  , , , , , , , , , , , , , , , , , , , , , , , , , , , , , , , , , , , , , , , , , , , , , , , , , , , , , , , , , , , , , , , , , , , , , , , , , , , , , , , , , , , , , , , , , , , , , , , , ,   $ ",
"4 * = , , , , , , , , , , , , , , , , , , , , , , , , , , , , , , , , , , , , , , , , , , , , , , , , , , , , , , , , , , , , , , , , , , , , , , , , , , , , , , , , , , , , , , , , , , , , , - * 3 3 ",
"K   . , , 1 , , , , , , , , , , , , , , , , , , , , , , , 1 , , , , , , , , , , , , , , , , , , , , , , , , , , , , , , , , , , , , , , , , , , , , , , , , , , , , , , , , , , , , , , , , , , o   N N ",
"J H M . + @ + + @ + + @ + @ + + @ + + @ + @ + + + + + @ @ + + + + + + @ O + + + + @ + + O @ + @ + + @ + + + + @ + + @ + O @ + + + @ + + + @ + + @ O @ + + + + @ @ + + @ + + @ O + @ + @ @ + + X v m N N ",
"J K H                                                                                                                                                                                           m N N N "
};
