/* XPM */
static char *result[] = {
/* columns rows colors chars-per-pixel */
"100 38 99 2 ",
"   c #000000",
".  c #000310",
"X  c #041722",
"o  c #001A31",
"O  c #123546",
"+  c #143845",
"@  c #11354B",
"#  c #143C51",
"$  c #013D64",
"%  c #1B4A67",
"&  c #144E69",
"*  c #1F5C6E",
"=  c #235C7E",
"-  c #2C737F",
";  c #015285",
":  c #0A5786",
">  c #015F99",
",  c #02629D",
"<  c #266485",
"1  c #2B6F80",
"2  c #206A8C",
"3  c #2C7080",
"4  c #2B7390",
"5  c #2D7A92",
"6  c #348397",
"7  c #37839B",
"8  c #378C9A",
"9  c #3988A2",
"0  c #3487A8",
"q  c #358BA9",
"w  c #3E97AC",
"e  c #3E9CAC",
"r  c #3DA0BF",
"t  c #4194B4",
"y  c #409DB2",
"u  c #439FBC",
"i  c #0484D1",
"p  c #0B86D2",
"a  c #0F88D2",
"s  c #1285D1",
"d  c #1E86D2",
"f  c #178CD3",
"g  c #198DD4",
"h  c #1F92D5",
"j  c #359ECC",
"k  c #2387D2",
"l  c #2888D2",
"z  c #358BD3",
"x  c #3D8CD3",
"c  c #2395D6",
"v  c #2D9ED9",
"b  c #34A0D3",
"n  c #35A6DB",
"m  c #39AADD",
"M  c #448FD4",
"N  c #4B91D4",
"B  c #5394D5",
"V  c #5F99D7",
"C  c #629AD7",
"Z  c #659CD8",
"A  c #6B9ED9",
"S  c #48A4C7",
"D  c #46AEC0",
"F  c #41A7C9",
"G  c #4BB2CE",
"H  c #4BBACD",
"J  c #4DAED3",
"K  c #4DB5D3",
"L  c #4EBBD3",
"P  c #74A3DA",
"I  c #7AA6DB",
"U  c #7EA8DC",
"Y  c #46BAE2",
"T  c #4ABFE5",
"R  c #4EC0D4",
"E  c #4BC1E5",
"W  c #84ABDD",
"Q  c #89AEDE",
"!  c #8FB1DF",
"~  c #92B3DF",
"^  c #95B5E0",
"/  c #9DBAE2",
"(  c #A4BEE4",
")  c #ABC3E5",
"_  c #B1C7E7",
"`  c #B2C8E7",
"'  c #BBCEE9",
"]  c #C4D4EC",
"[  c #C8D6ED",
"{  c #CCD9EE",
"}  c #D0DCEF",
"|  c #D3DEF0",
" . c #D9E3F2",
".. c #E4EBF6",
"X. c #E8EDF7",
"o. c #EEF2F9",
"O. c #F1F4FA",
"+. c #F6F8FC",
"@. c #FFFFFF",
/* pixels */
"R R R R R R R R R L R R L R R R L R R L R R R L R L L R L L L L L L L L L L L L L L L L L L L L L L L L L L L L K L L L K L K L L K L L K L L K K L K K L K K L K K K K K K K K K K K K K K K K K K K K ",
"R R R L R L L R R L R L L R L H L L L L L L L L L L L L L L L L L L L L L L L L L L K L L K K L K L K K K L K L K K K L K L K K K K K K K K K K K K K K K K K K K K K K K K K K K K K K K J K K K J K K ",
"R R R -                                                                                                                                                                                         J K K J ",
"R H D 6 * * * * * * * * * * * * * * * * * * * * * * * * * $ $ $ & * * * * * * * $ $ $ $ $ * * * = $ $ $ $ $ $ $ $ $ $ $ $ $ $ $ $ $ $ $ $ $ $ $ $ $ $ $ $ $ $ $ $ $ $ $ $ $ $ $ $ $ $ & $ $ $ $ u S K K ",
"R e   r E E E E E E E E E E E E E E E E E E T T E E E E T i i i n E E T E E E T i i i i i Y T T L i i i i i i i i i i i i i i i i i i i i i i i i i i i i i i i i i i i i i i i i i i i i i i i o   K K ",
"8 8 q j n n n n n n n n n n n m n n n n n n n v n m n n n i i i c n n n n n n n i i i i i n n b n i i i i i i i i i i i i i i i i i i i i i i i i i i i i i i i i i i i i i i i i i f n n n g i , > 7 9 ",
"  5 E v i i i i i i i i i i i i i i i i i i i i i i i i i i i i i i i i i i i i i i i i i i i i i i i i i i i i i i i i i i i i i i i i i i i i i i i i i i i i i i i i i i i i i i h E E E h i i i   + ",
"  5 E v i i i i i i i i i i i i i i i i i i i i i i i i i i i i i i i i i i i i i i i i i i i i i i i i i i i i i i i i i i i i i i i i i i i i i i i i i i i i i i i i i i i i i i a h m E Y Y p i   + ",
"  5 E c i i i i i i i i i i i i i i i i i i i i i i i i p i i i i i i i i i i i i i i i i i i i i i i i i i i i i i i i i i i i i i i i i i i i i i i i i i i i i i i i i i i i i i i i n E E E s i   + ",
"  5 E v i i i i i i i i i i i i i i i i i i i i i i i p i i i i i i i i p i i i i i i i i p i i i i i i i i i i i i i i i i i i i i i i i i i i i i i i i i i i i i i i i i i i i i i i i p Y E a i   + ",
"  5 E v i i i i i i i i i i i i i i i i i i i i i i i i i i i i i i i p i i i i i i i p i i i i i i i i i i i i i i i i p i i i p i i i i i i i i i i i i i i i i i i i i i i i i i i i i i m E a i   + ",
"  5 E v i i i i i i i i i i i i i i i i i i i i i i i i i i i i i i i i i i i i i i i i i i i i i i p i i i i p i i i i i i i i i i i i i p i i i i i i i i i i i i i i i i i i i i i i i i i i i i   + ",
"  5 E v i i i i i i i i i i i i i i i i i i i i i i i i i i i i i i i i i i p i i i i i i p p i i i i i i i i i i i i i i i i i i i i i i i i i i i i i i i i i i i i i i i i i i i i i i i i i i i   # ",
"  5 E v i i i i i i i i i i i i i i i i i i i i i i i i i i i i i i i i i i i i i p i i i i i i i p i i i i i i i i i i i i i p i i i i p i i i i i i i i i i i i i i i i i i i i i i i i i i i i i   + ",
"  2 m h i i i i i i i i i i i i i i i i i i i i i i p i i i i i p i i i i i i i i p i p i i i i i i i i i i i i p i i i i i i i i i i i i i i i i i i i i i i i i i i i i i i i i i i i i i i i i i   + ",
"  ; i i i i i i i i i i i i Z ] ] ] ] ( z i i i W ] } ] C i i ) [ ] [ ] [ _ i i i ( [ ~ i i B ] ' i W [ | } ^ i i i i Z ] ] [ ] ( x i i i Q ] } ' C i i ) ] [ [ ] ] _ i i i i i i i i i i i i i i i   + ",
"  ; i i i i i i i i i i i i W @.@.O.@.@. .i i ' @.@.@.@.+.Q i  .@.@.@.@.@...i p i _ @.X.i i ( @.{ W +.@.@.@...i i i i W @.@.O.@.@. .i i ' @.@.@.@.+.Q i  .@.@.@.@.@...i i i i i i i i i i i i i i i   + ",
"  ; i i i i i i i i i i i i W @.@.i ^ @.@.i P @.@.~ l } @.O.i x M { @. .M M i i i C @.@.Z i  .@.^ ] @.| l M P i i i i W @.@.i ^ @.@.i P @.@.^ l } @.O.i x M { @. .M x i i i i i i i i i i i i i i i   + ",
"  ; i i i i i i i i i i i i W @.@.I [ @.| i ) @.O.i i W @.@.B i i [ @. .i i i i i i ..@._ x @.+.l ' @.+.{ ( z i i i i W @.@.U [ @.} i ) @.O.i i W @.@.B i i [ @. .i i i i i i i i i i i i i i i i i   + ",
"  ; i i i i i i i i i i i i U @.@.@.@.+.~ i ] @.X.i i P @.@.I i i [ @.| i i i i i i _ @...~ @.{ i A o.@.@.@.X.k i i i Q @.@.@.@.+.~ i ] @.X.i i P @.@.I i i [ @. .i i i i i i i i i i i i i i i i i   # ",
"  ; i i i i i i i i i i i i W @.@.k Q @.@.C ) @.O.i i Q @.@.M p i [ @. .i p i i i i B @.@.| @.! i i k ^ { @.@.P i i i W @.@.k Q @.@.C ) @.O.i i W @.@.M i i [ @. .i i i i i i i i i i i i i i i i i   + ",
"  ; i i i i i i i i i i i i W @.+.i I @.@.^ I @.@./ M } @.X.i i i [ @. .i i i i i i i ..@.@.+.d i Q ! B W @.@.A i i i W @.+.i U @.@.~ I @.@.~ M | @.X.i i i [ @. .i i i i i i i i i i i i i i i i i   + ",
"  ; i i i i i i i i i i i i W @.@.@.@.@.o.M i ] @.@.@.@.+.P i i i [ @. .i i i i i i i ( @.@.[ i i { @.@.@.@...s i i i W @.@.@.@.@.X.M i ] @.@.@.@.+.P i i i [ @. .i i i i i i i i i i i i i i i i i   + ",
"  ; i i i i i i i i i i i i V ' ' ' ' / z i i i Q ' { _ N i i i i ~ ' / i i i i i i i B ` ] P i i A ' { [ ( z i i i i V ' ' ' ' ( z i i i W ] } ` N i i i i ~ ' / i i i i i i i i i i i i i i i i i   + ",
"  ; i i i i i i i i i i i i i i i i i i i i i i i i i i p i i i i i i i i i i i i i i i p i i i i i i i i i i i i i i i i i i i i i i i i i i i i i i i i i i i i i i i i i i i i i i i i i i i i i   # ",
"  ; i i i i i i i i i i i i i i i i i i i i i i i i i i i i i i i i i i p i i i i i i i i i i i i i i i i i i i i i i s i i i i i i i i i i i i i i i i i i i i i i i i i i i i i i i i i i i i i i   + ",
"  ; i i i i i i i i i i i i i i i i i i i i i i i i i i i i i i i i i i i i i i i i i i i i i p i p i i i i i i i i i i i i i i i i i i i i p i i i i i i i i i i i i i i i i i i i i i i i i i i i   + ",
"  ; i i i i i i i i i i i i i i i i i i i i i i i i i i i i i i i i i i i i p i i i i i i i i i i i i i i i i i i i i i i i i i i i i i i i i i i i i i i i i i i i i i i i i i i i i i i i i i i i   + ",
"  ; i i i i i i i i i i i i i i i i i i i i i i i i i i i i i i p i i i i i i p i i i i i i i i i i i i i i i i i i i i i i i p i i i i i i i i i i i i i i i i i i i i i i i i i i i i i i i i i i   + ",
"  ; i i i i i i i i i i i i i i i i i i i i i i i i i i i i i i i i i i i i i i i i i i i i i i i i p i i i i i i i i i i i i i i i i i i i i i i i i i i i i i i i i i i i i i i i i i i i i i i i   + ",
"  : f p i i i i i i i i i i i i i i i i i i i i i i i i i i i i i i i i i i i i i i i i i i i i i i i i i i i i i i i i i i i i i i i i i i i i i i i i i i i i i i i i i i i i i i i i i i i i f f   + ",
"  5 E v i i i i i i i i i i i i i i i i i i i i i i i i i i i i i i i i i i i i i i i i i i i i i i i i i i i i i i i i i i i i i i i i i i i i i i i i i i i i i i i i i i i i i i i i i i i i T E   + ",
"  < F b v v v v v v v v v v v v n v v v v v v v v v v v v v v v v v v v v v v v v v v v v v v v v v v v v v v v v v v v v v v v v v v v v v v v v v v v v v v v v v v v v v v v v v v v v v n v F F   + ",
"  @ = F E E E E E E E E E E E E T E E E E E E E E E E E E E E E T T T T E E E E E E E E E E E E E E E E E E E E E E E E E E E E E E E E E E E E E E E E E E E E E E E E E E E E E E E E E E E E < =   + ",
"y 6 O 4 0 0 0 0 0 0 0 0 0 0 0 0 0 0 0 0 0 0 0 0 0 0 0 0 0 0 0 0 9 0 0 0 0 0 0 0 0 0 0 0 0 0 0 0 0 0 9 0 0 0 0 0 0 0 0 0 0 0 0 0 0 0 0 0 0 0 0 0 0 0 0 0 0 0 0 0 0 0 0 0 0 0 0 0 0 0 0 0 0 0 0 0 # O t t ",
"L w   % = = = = = = = = = = = = = = = = = = = = = = = = = = = = = = = = = = = = = = = = = = = = = = = < = = = = = = = = = = = = = = = = = = = = = = = = = = = = = = = = = = = = = = = = = = = =     J J ",
"L L G 1 X X X X X X X X X X X X X X X X X X X X X X X X X X X X X X X X X X X X X X X X X X X X X X X X X X X X X X X X X X X X X X X X X X X X X X X X X X X X X X X X X X X X X X X X X X X . S S J J ",
"L L L 3                                                                                                                                                                                         J J J J "
};
