/* XPM */
static char *result[] = {
/* columns rows colors chars-per-pixel */
"100 38 252 2 ",
"   c black",
".  c #000001",
"X  c #000101",
"o  c #000010",
"O  c #000011",
"+  c #000013",
"@  c #010514",
"#  c #020A17",
"$  c #020B1B",
"%  c #031416",
"&  c #031417",
"*  c #031517",
"=  c #001122",
"-  c #001222",
";  c #041722",
":  c #021824",
">  c #031824",
",  c #041B25",
"<  c #061E26",
"1  c #061F26",
"2  c #061F27",
"3  c #082227",
"4  c #09242A",
"5  c #09252A",
"6  c #0C2E3C",
"7  c #001E40",
"8  c #0E2F45",
"9  c #0F2F46",
"0  c #12374E",
"q  c #133950",
"w  c #003861",
"e  c #1F5A6C",
"r  c #014875",
"t  c #22597C",
"y  c #235B7D",
"u  c #235B7E",
"i  c #235C7E",
"p  c #245C7F",
"a  c #245D7F",
"s  c #23667B",
"d  c #266384",
"f  c #276586",
"g  c #276687",
"h  c #28698A",
"j  c #409DB2",
"k  c #419EB4",
"l  c #41A9B4",
"z  c #0082D0",
"x  c #0083D1",
"c  c #0183D1",
"v  c #0382D1",
"b  c #0283D1",
"n  c #0383D1",
"m  c #0483D1",
"M  c #0384D1",
"N  c #0084D2",
"B  c #0284D2",
"V  c #0384D2",
"C  c #0385D2",
"Z  c #0484D1",
"A  c #0584D1",
"S  c #0485D2",
"D  c #0485D3",
"F  c #0686D3",
"G  c #0486D4",
"H  c #0885D1",
"J  c #0A86D2",
"K  c #0C87D2",
"L  c #0F88D2",
"P  c #1185D1",
"I  c #1E86D2",
"U  c #1189D2",
"Y  c #148AD3",
"T  c #148BD3",
"R  c #158BD3",
"E  c #168CD3",
"W  c #178CD3",
"Q  c #1E91D5",
"!  c #2387D2",
"~  c #2888D2",
"^  c #338AD3",
"/  c #368BD3",
"(  c #3C8CD3",
")  c #3E8DD3",
"_  c #2193D5",
"`  c #2696D6",
"'  c #2A9AD8",
"]  c #2B9BD8",
"[  c #31A1DA",
"{  c #30A2DB",
"}  c #35A6DB",
"|  c #36A7DB",
" . c #32A3DC",
".. c #37A8DC",
"X. c #3BADDE",
"o. c #3DAFDE",
"O. c #3FB2DF",
"+. c #3EB1E1",
"@. c #438FD4",
"#. c #458FD4",
"$. c #4A91D4",
"%. c #4C91D5",
"&. c #5093D5",
"*. c #5294D5",
"=. c #5796D6",
"-. c #5F99D7",
";. c #619AD7",
":. c #629AD7",
">. c #649BD7",
",. c #659CD8",
"<. c #699DD8",
"1. c #6C9FD9",
"2. c #40A5C7",
"3. c #46AFC0",
"4. c #46AFC1",
"5. c #47ACC3",
"6. c #40A6C8",
"7. c #46BAC1",
"8. c #48BAC7",
"9. c #4AB2CA",
"0. c #49B6C8",
"q. c #4BB4CC",
"w. c #4AB8CB",
"e. c #4DBFD2",
"r. c #4EBBD4",
"t. c #45B6DC",
"y. c #46B7DC",
"u. c #48BBDE",
"i. c #49BBDF",
"p. c #71A1D9",
"a. c #75A3DA",
"s. c #76A4DA",
"d. c #77A4DA",
"f. c #78A5DB",
"g. c #7AA5DB",
"h. c #7CA7DB",
"j. c #7DA7DB",
"k. c #7EA8DC",
"l. c #40B4E0",
"z. c #41B4E0",
"x. c #41B5E1",
"c. c #42B6E1",
"v. c #43B7E1",
"b. c #44B8E1",
"n. c #44B8E3",
"m. c #45BAE3",
"M. c #48BDE3",
"N. c #48BDE4",
"B. c #48BEE4",
"V. c #49BEE4",
"C. c #4BC0CD",
"Z. c #4BC0CE",
"A. c #4AC4CC",
"S. c #4BC6CE",
"D. c #4EC1D4",
"F. c #4EC7D5",
"G. c #4DCBD3",
"H. c #4EC9D6",
"J. c #4ECDD5",
"K. c #4ECED6",
"L. c #4BC1E5",
"P. c #4BC2E5",
"I. c #4BC1E6",
"U. c #4BC2E6",
"Y. c #4CC2E5",
"T. c #4CC3E6",
"R. c #4CC3E7",
"E. c #4CC4E7",
"W. c #4CC4E9",
"Q. c #80A9DC",
"!. c #82AADC",
"~. c #84ABDD",
"^. c #85ACDD",
"/. c #87ACDD",
"(. c #88ADDD",
"). c #89AEDE",
"_. c #8AAFDE",
"`. c #8BAFDE",
"'. c #8EB1DF",
"]. c #8FB1DF",
"[. c #92B3DF",
"{. c #94B4E0",
"}. c #95B5E0",
"|. c #96B5E0",
" X c #96B6E0",
".X c #9AB8E1",
"XX c #9CB9E2",
"oX c #9EBAE2",
"OX c #9FBBE2",
"+X c #A3BDE3",
"@X c #A4BEE4",
"#X c #A8C1E5",
"$X c #A9C1E5",
"%X c #AAC2E5",
"&X c #ABC2E5",
"*X c #ACC3E5",
"=X c #ADC4E6",
"-X c #AFC5E6",
";X c #B0C6E7",
":X c #B2C7E7",
">X c #B2C8E7",
",X c #B3C8E7",
"<X c #B8CBE9",
"1X c #B9CCE9",
"2X c #BBCEE9",
"3X c #BCCEEA",
"4X c #BDCEEA",
"5X c #BDCFEA",
"6X c #BFD0EA",
"7X c #C0D1EB",
"8X c #C1D1EB",
"9X c #C2D2EB",
"0X c #C4D3EC",
"qX c #C5D5EC",
"wX c #C6D5EC",
"eX c #C8D6ED",
"rX c #C9D7ED",
"tX c #CAD8ED",
"yX c #CAD8EE",
"uX c #CBD8EE",
"iX c #CCD9EE",
"pX c #CDDAEF",
"aX c #CEDAEF",
"sX c #CFDBEF",
"dX c #D0DCEF",
"fX c #D1DDF0",
"gX c #D2DDF0",
"hX c #D4DFF1",
"jX c #D5DFF1",
"kX c #D8E2F2",
"lX c #DAE3F2",
"zX c #DBE4F3",
"xX c #DCE5F3",
"cX c #E0E8F4",
"vX c #E1E8F5",
"bX c #E2E9F5",
"nX c #E3EAF5",
"mX c #E7EDF7",
"MX c #E8EDF7",
"NX c #E9EEF7",
"BX c #EEF2F9",
"VX c #F0F3FA",
"CX c #F1F5FA",
"ZX c #F3F6FB",
"AX c #F6F8FC",
"SX c #F7F9FC",
"DX c #F9FAFD",
"FX c #FAFBFD",
"GX c #FBFCFE",
"HX c #FCFDFE",
"JX c #FEFEFF",
"KX c white",
/* pixels */
"J.J.S.  * * * * * * * * * * * * * * * * * * * * * * * * * * * * * * * * * * * * * * * * * * * * & & & & & & & & & & & & & & & & & & & & & & & & & & & & & & & & & & & & & & & % % % % % % % %   w.D.D.D.",
"J.G.A.# 1 1 1 1 1 1 1 1 1 1 1 1 1 1 1 1 1 1 1 1 1 1 1 1 > = = = < 1 1 1 1 1 1 : = = = = - 2 1 1 , = = = = = = = = = = = = = = = = = = = = = = = = = = = = = = = = = = = = = = = = = = = = = = + 0.e.D.D.",
"K.  6 W.R.R.R.R.R.R.R.R.R.R.R.R.R.R.R.R.R.R.R.R.R.R.R.R. .D D N I.R.R.R.R.R.R.{ D D D D F E.R.R.+.D D D D D D D D D D D D D D D D D D D D D D D D D D D D D D D D D D D D D D D D D D D D D D G 7   D.D.",
"7.e s n.v.v.v.v.v.v.v.v.v.v.v.v.v.v.v.v.v.v.v.v.v.v.l.X.` Z Z c x.v.v.v.v.v.v.] Z Z Z Z A b.v.v...Z Z Z Z Z Z Z Z Z Z Z Z Z Z Z Z Z Z Z Z Z Z Z Z Z Z Z Z Z Z Z Z Z Z Z Z Z Z Z Z Z K _ _ _ U S r w 3.4.",
"  R.B.z M M M M M M M M M M M M M M M M M M M Z Z A A A A A A A A A Z Z M M M Z Z Z Z Z Z M M M M Z Z Z Z Z Z Z Z Z Z Z Z Z Z Z Z Z Z Z Z Z Z Z Z Z Z Z Z Z Z Z Z Z Z Z Z Z Z Z Z Z Q P.L.L.' Z Z D   3 ",
"  U.N.x Z Z Z Z Z Z Z Z Z Z Z Z Z Z Z Z Z A A A A A A A A A A A A A A A A A Z Z Z Z Z Z Z Z Z Z Z Z Z Z Z Z Z Z Z Z Z Z Z Z Z Z Z A A A A Z Z Z Z Z Z Z Z Z Z Z Z Z Z Z Z Z Z Z Z Z T } O.L.o.| L D . 5 ",
"  U.N.x Z Z Z Z Z Z Z Z Z Z Z Z Z Z Z Z A A A A A A A A A A A A A A A A A A A A A A A Z Z Z Z Z Z Z Z Z Z Z Z Z Z Z Z Z Z Z A A A A A A A A A A Z Z Z Z Z Z Z Z Z Z Z Z Z Z Z Z Z Z Z Z [ L.L.Y.E D . 5 ",
"  U.N.x Z Z Z Z Z Z Z Z Z Z Z Z Z Z Z A A A A A A A A A A A A A A A A A A A A A A A A A A A A A Z Z Z Z Z Z Z Z Z Z Z Z A A A A A A A A A A A A A A Z Z Z Z Z Z Z Z Z Z Z Z Z Z Z Z Z Z Y _ z.Y.E D . 5 ",
"  U.N.x Z Z Z Z Z Z Z Z Z Z Z Z Z Z A A A A A A A A A A A A A A A A A A A A A A A A A A A A A A A m n v v n n n m m A A A A A A A A A A A A A A A A A Z Z Z Z Z Z Z Z Z Z Z Z Z Z Z Z Z Z Z O.T.E D . 5 ",
"  U.N.x Z Z Z Z Z Z Z Z Z Z Z Z Z A A A A A A A A A A A A A A A A A A A A A A A A A A A A A A A A A A A A A A A A A A A A A A A A A A A A A A A A A A A Z Z Z Z Z Z Z Z Z Z Z Z Z Z Z Z Z Z H J A D . 5 ",
"  U.N.x Z Z Z Z Z Z Z Z Z Z Z Z Z A A A A A A A A A A A A A A A A A A A A A A A A A A A A A A A A A A A A A A A A A A A A A A A A A A A A A A A A A A A A Z Z Z Z Z Z Z Z Z Z Z Z Z Z Z Z Z Z Z Z D . 5 ",
"  U.N.x Z Z Z Z Z Z Z Z Z Z Z Z A A A A A A A A A A A A A A A A A A A A A A A A A A A A A A A A A A A A A A A A A A A A A A A A A A A A A A A A A A A A A A Z Z Z Z Z Z Z Z Z Z Z Z Z Z Z Z Z Z Z D . 5 ",
"  m.c.c Z Z Z Z Z Z Z Z Z Z Z Z A A A A A A A A A A A A A A A A A A A A A A A A A A A A A A A A A A A A A A A A A A A A A A A A A A A A A A A A A A A A A A Z Z Z Z Z Z Z Z Z Z Z Z Z Z Z Z Z Z Z D . 5 ",
"  B b Z Z Z Z Z Z Z Z Z Z ,.qXqXqX8X@X/ A A A /.0XgX4X;.A A $XqXqXqXqXqX>XA A A &XqX.XA A *.qX5XA j.wXhXyX}.A A A A ,.qXqXqX8X@X/ A A A /.0XgX4X;.A A $XqXqXqXqXqX>XZ Z Z Z Z Z Z Z Z Z Z Z Z Z Z D . 5 ",
"  S Z Z Z Z Z Z Z Z Z Z Z ~.KXKXZXKXKXzXA A 3XKXKXJXKXGX).A lXKXKXKXKXKXmXA A A ,XKXNXA A #XKXfXQ.JXKXKXKXnXA A A A ~.KXKXZXKXKXzXA A 3XKXKXJXKXGX).A lXKXKXKXKXKXmXZ Z Z Z Z Z Z Z Z Z Z Z Z Z Z D . 5 ",
"  S Z Z Z Z Z Z Z Z Z Z Z ~.KXGXA |.KXFXA a.JXKX{.~ dXKXBXA ( #.iXKXzX#.) A A A -.KXKX>.A lXKX{.8XKXjX~ #.d.A A A A ~.KXGXA |.KXFXA a.JXKX{.~ dXKXBXA ( #.iXKXzX#.) Z Z Z Z Z Z Z Z Z Z Z Z Z Z Z D . 5 ",
"  S Z Z Z Z Z Z Z Z Z Z Z ~.KXHXk.rXKXfXA *XKXVXA A ^.KXKX&.A A eXKXkXA A A A A A nXKX;X( GXSX~ 4XKXDXaX+X^ A A A A ~.KXHXk.rXKXfXA *XKXVXA A ^.KXKX&.A A eXKXkXZ Z Z Z Z Z Z Z Z Z Z Z Z Z Z Z Z D . 5 ",
"  S Z Z Z Z Z Z Z Z Z Z Z ~.KXKXKXKXAX{.A 9XKXMXA A p.KXKXg.A A eXKXkXA A A A A A -XKXvX.XKXpXA <.VXKXKXKXmX! A A A ~.KXKXKXKXAX{.A 9XKXMXA A p.KXKXg.A A eXKXkXZ Z Z Z Z Z Z Z Z Z Z Z Z Z Z Z Z D . 5 ",
"  S Z Z Z Z Z Z Z Z Z Z Z ~.KXHX! `.KXKX:.=XKXCXA A (.KXKX#.A A eXKXkXA A A A A A =.JXJXxXKX'.A A I  XsXKXKXd.A A A ~.KXHX! `.KXKX:.=XKXCXA A (.KXKX#.A A eXKXkXZ Z Z Z Z Z Z Z Z Z Z Z Z Z Z Z Z D . 5 ",
"  S Z Z Z Z Z Z Z Z Z Z Z ~.KXGXA h.KXKX Xf.KXKXXX@.jXKXmXA A A eXKXkXA A A A A A A cXKXKXAXI A _.].=.!.KXKX1.A A A ~.KXGXA h.KXKX Xf.KXKXXX@.jXKXmXA A A eXKXkXZ Z Z Z Z Z Z Z Z Z Z Z Z Z Z Z Z D . 5 ",
"  S Z Z Z Z Z Z Z Z Z Z Z ~.KXKXFXKXKXBX@.A 7XKXKXKXKXAXs.A A A eXKXkXA A A A A A A &XKXKXtXA A yXKXKXKXKXbXP A A A ~.KXKXFXKXKXBX@.A 7XKXKXKXKXAXs.A A A eXKXkXZ Z Z Z Z Z Z Z Z Z Z Z Z Z Z Z Z D . 5 ",
"  S Z Z Z Z Z Z Z Z Z Z Z -.2X2X2X<XOX/ A A A /.6XuX:X$.A A A A [.2XoXA A A A A A A %.2X2Xp.A A 1.1XuXtX%X^ A A A A -.2X2X2X<XOX/ A A A /.6XuX:X$.A A A A [.2XoXZ Z Z Z Z Z Z Z Z Z Z Z Z Z Z Z Z D . 5 ",
"  S Z Z Z Z Z Z Z Z Z Z Z Z Z Z Z A A A A A A A A A A A A A A A A A A A A A A A A A A A A A A A A A A A A A A A A A A A A A A A A A A A A A A A A A A A A A Z Z Z Z Z Z Z Z Z Z Z Z Z Z Z Z Z Z Z D . 4 ",
"  S Z Z Z Z Z Z Z Z Z Z Z Z Z Z Z Z A A A A A A A A A A A A A A A A A A A A A A A A A A A A A A A A A A A A A A A A A A A A A A A A A A A A A A A A A A A A Z Z Z Z Z Z Z Z Z Z Z Z Z Z Z Z Z Z Z D . 4 ",
"  S Z Z Z Z Z Z Z Z Z Z Z Z Z Z Z Z Z A A A A A A A A A A A A A A A A A A A A A A A A A A A A A A A A A A A A A A A A A A A A A A A A A A A A A A A A A A Z Z Z Z Z Z Z Z Z Z Z Z Z Z Z Z Z Z Z Z D . 4 ",
"  S Z Z Z Z Z Z Z Z Z Z Z Z Z Z Z Z Z Z A A A A A A A A A A A A A A A A A A A A A A A A A A A A A A A A A A A A A A A A A A A A A A A A A A A A A A A A Z Z Z Z Z Z Z Z Z Z Z Z Z Z Z Z Z Z Z Z Z D . 4 ",
"  S Z Z Z Z Z Z Z Z Z Z Z Z Z Z Z Z Z Z Z A A A A A A A A A A A A A A A A A A A A A A A A A A A A A A A A A A A A A A A A A A A A A A A A A A A A A A Z Z Z Z Z Z Z Z Z Z Z Z Z Z Z Z Z Z Z Z Z Z D . 4 ",
"  S Z Z Z Z Z Z Z Z Z Z Z Z Z Z Z Z Z Z Z Z Z A A A A A A A A A A A A A A A A A A A A A A A A A A Z Z Z Z Z Z Z Z Z Z A A A A A A A A A A A A A A A Z Z Z Z Z Z Z Z Z Z Z Z Z Z Z Z Z Z Z Z Z Z Z D . 4 ",
"  V M Z Z Z Z Z Z Z Z Z Z Z Z Z Z Z Z Z Z Z Z Z Z Z Z A A A A A A A A Z Z Z Z Z Z Z Z Z Z Z Z Z Z Z Z Z Z Z Z Z Z Z Z Z Z Z Z A A A A A A A A A Z Z Z Z Z Z Z Z Z Z Z Z Z Z Z Z Z Z Z Z Z Z Z Z M C . 4 ",
"  R.V.x Z Z Z Z Z Z Z Z Z Z Z Z Z Z Z Z Z Z Z Z Z Z Z Z Z Z Z Z Z Z Z Z Z Z Z Z Z Z Z Z Z Z Z Z Z Z Z Z Z Z Z Z Z Z Z Z Z Z Z Z Z Z Z Z Z Z Z Z Z Z Z Z Z Z Z Z Z Z Z Z Z Z Z Z Z Z Z Z Z Z Z x M.R.X 4 ",
"  u.y.R W W W W W W W W W W W W W W W W W W W W W W W W W W W W W W W W W W W W W W W W W W W W W W W W W W W W W W W W W W W W W W W W W W W W W W W W W W W W W W W W W W W W W W W W W W W R t.i.X 4 ",
"  t f R.P.P.P.P.P.P.P.P.P.P.P.P.P.P.P.P.P.P.P.P.P.P.P.P.P.P.P.P.P.P.P.P.P.P.P.P.P.P.P.P.P.P.P.P.P.P.P.P.P.P.P.P.P.P.P.P.P.P.P.P.P.P.P.P.P.P.P.P.P.P.P.P.P.P.P.P.P.P.P.P.P.P.P.P.P.P.P.P.P.P.P.T.h t   4 ",
"  i d 6.2.2.2.2.2.2.2.2.2.2.2.2.2.2.2.2.2.2.2.2.2.2.2.2.2.2.2.2.2.2.2.2.2.2.2.2.2.2.2.2.2.2.2.2.2.2.2.2.2.2.2.2.2.2.2.2.2.2.2.2.2.2.2.2.2.2.2.2.2.2.2.2.2.2.2.2.2.2.2.2.2.2.2.2.2.2.2.2.2.2.2.6.g i   4 ",
"  i y y y y y y y y y y y y y y y y y y y y y y y y y y y y y y y y y y y y y y y y y y y y y y y y y y y y y y y y y y y y y y y y y y y y y y y y y y y y y y y y y y y y y y y y y y y y y y y i   4 ",
"l 9 0 i y y y y y y y y y y y y y y y y y y y y y y y y y y y y y y y y y y y y y y y y y y y y y y y y y y y y y y y y y y y y y y y y y y y y y y y y y y y y y y y y y y y y y y y y y y y u q 8 j k ",
"H.  o a i i i i i i i i i i i i i i i i i i i i i i i i i i i i i i i i i i i i i i i i i i i i i i i i i i i i i i i i i i i i i i i i i i i i i i i i i i i i i i i i i i i i i i i i i i i p $   r.r.",
"F.C.8.O ; ; ; ; ; ; ; ; ; ; ; ; ; ; ; ; ; ; ; ; ; ; ; ; ; ; ; ; ; ; ; ; ; ; ; ; ; ; ; ; ; ; ; ; ; ; ; ; ; ; ; ; ; ; ; ; ; ; ; ; ; ; ; ; ; ; ; ; ; ; ; ; ; ; ; ; ; ; ; ; ; ; ; ; ; ; ; ; ; ; ; @ 5.q.r.r.",
"F.F.Z.                                                                                                                                                                                          9.r.r.r."
};
