/* XPM */
static char *c20e126a0e844161e7797696dd469e8aUhJniDicABy6iWUC[] = {
/* columns rows colors chars-per-pixel */
"100 38 106 2 ",
"   c #000000",
".  c #000112",
"X  c #020A17",
"o  c #020B1B",
"O  c #031417",
"+  c #031522",
"@  c #061E26",
"#  c #082227",
"$  c #09252A",
"%  c #0C2E3C",
"&  c #0F2F46",
"*  c #133950",
"=  c #003861",
"-  c #1F5A6C",
";  c #014875",
":  c #235B7D",
">  c #23667B",
",  c #276586",
"<  c #28698A",
"1  c #419EB3",
"2  c #41A9B4",
"3  c #0484D1",
"4  c #0A86D2",
"5  c #0F88D2",
"6  c #1185D1",
"7  c #1D86D2",
"8  c #178CD3",
"9  c #1E91D5",
"0  c #2387D2",
"q  c #2988D2",
"w  c #358BD3",
"e  c #3D8DD3",
"r  c #2294D5",
"t  c #2B9BD8",
"y  c #33A4DB",
"u  c #3CAEDE",
"i  c #3FB2DF",
"p  c #3EB1E1",
"a  c #458FD4",
"s  c #4B91D5",
"d  c #5495D6",
"f  c #5A97D6",
"g  c #5E98D7",
"h  c #629AD7",
"j  c #659CD8",
"k  c #6B9ED9",
"l  c #40A5C7",
"z  c #46AEC1",
"x  c #40A6C8",
"c  c #46BAC1",
"v  c #48BAC7",
"b  c #4AB4CA",
"n  c #4EBCD4",
"m  c #46B7DC",
"M  c #49BBDF",
"N  c #75A3DA",
"B  c #7BA6DB",
"V  c #7EA8DC",
"C  c #43B7E1",
"Z  c #44B9E2",
"A  c #48BDE4",
"S  c #4BC3CD",
"D  c #4EC3D4",
"F  c #4ECCD5",
"G  c #4BC2E6",
"H  c #4CC4E9",
"J  c #84ABDD",
"K  c #8AAEDE",
"L  c #8DB1DF",
"P  c #92B3DF",
"I  c #95B5E0",
"U  c #99B7E1",
"Y  c #9CB9E2",
"T  c #A3BDE3",
"R  c #ABC3E5",
"E  c #B0C6E7",
"W  c #B3C8E7",
"Q  c #B7CBE8",
"!  c #BBCEE9",
"~  c #BFD0EA",
"^  c #C4D4EC",
"/  c #C8D6ED",
"(  c #CBD9EE",
")  c #D0DCEF",
"_  c #D2DEF0",
"`  c #D7E1F1",
"'  c #DAE3F2",
"]  c #DBE4F3",
"[  c #DFE7F4",
"{  c #E0E8F4",
"}  c #E1E8F5",
"|  c #E3EAF5",
" . c #E5EBF6",
".. c #E7EDF7",
"X. c #E8EDF7",
"o. c #E9EEF7",
"O. c #EAEFF8",
"+. c #EEF2F9",
"@. c #F0F3FA",
"#. c #F3F6FB",
"$. c #F4F6FB",
"%. c #F6F8FC",
"&. c #F9FAFD",
"*. c #FAFBFD",
"=. c #FCFDFE",
"-. c #FDFEFE",
/* pixels */
"F F S   O O O O O O O O O O O O O O O O O O O O O O O O o O O o O O O O O O O O O O O O O O O O O o O O o O O o O O o o O O O O o O O O O O o o O O o O + O O o O O + O O o O O O O O O O O o   n D n D ",
"F F S X @ # # @ @ @ @ # # @ @ # @ # # @ @ # @ # @ @ @ # + + + + # # @ # # @ # + + o + + + @ @ @ @ + + + + + + + + + + + + + + + + o + o + + + + + + + + + + + + o + + + + + + o + + + o + + + . b D D D ",
"F   % H H G G G G H G G G H G G G G G A G G G G G G G H y 3 3 3 G H H G G H G y 3 3 3 3 3 H A G p 3 3 3 3 3 3 3 3 3 3 3 3 3 3 3 3 3 3 3 3 3 3 3 3 3 3 3 3 3 3 3 3 3 3 3 3 3 3 3 3 3 3 3 3 3 3 3 &   n D ",
"c - > Z C C C i C C C C C C C C C C m m C C Z C C C C u r 3 3 3 p C C C C C p t 3 3 3 3 3 C Z Z y 3 3 3 3 3 3 3 3 3 3 3 3 3 3 3 3 3 3 3 3 3 3 3 3 3 3 3 3 3 3 3 3 3 3 3 3 3 3 3 3 3 4 r 9 r 5 3 ; = z 2 ",
"  H A 3 3 3 3 3 3 3 3 3 3 3 3 3 3 3 3 3 3 3 3 3 3 3 3 3 3 3 3 4 3 3 3 3 3 3 3 3 3 3 3 3 3 3 3 3 3 3 3 3 3 3 3 3 3 3 3 3 3 3 3 3 3 3 3 3 3 3 3 3 3 3 3 3 3 3 3 3 3 3 3 3 3 3 3 3 3 3 8 G G G t 3 3 3   $ ",
"  G A 3 3 3 3 3 3 3 3 3 3 3 3 3 3 3 3 3 3 3 3 3 3 3 3 4 3 3 3 3 3 3 3 3 3 3 3 3 3 3 3 3 3 3 3 3 3 3 3 3 3 3 3 3 3 3 3 3 3 3 3 3 3 3 3 3 3 3 3 3 3 3 3 3 3 3 3 3 3 3 3 3 3 3 3 3 3 3 8 y i G u y 4 3   $ ",
"  G G 3 3 3 3 3 3 3 3 3 3 3 3 3 3 3 3 3 3 3 3 3 3 3 3 3 3 3 3 3 3 3 3 3 3 3 3 3 3 3 3 3 3 3 3 3 3 3 3 3 3 3 3 3 3 3 3 3 3 3 3 3 3 3 3 4 3 3 3 3 3 3 3 3 3 3 3 3 3 3 3 3 3 3 3 3 3 3 3 3 y Z G G 8 3   $ ",
"  G A 3 3 3 3 3 3 3 3 3 3 3 3 3 3 3 3 3 3 3 3 3 3 3 3 3 3 4 3 3 3 3 3 3 3 3 3 3 3 3 3 3 3 3 3 3 3 3 3 3 3 3 3 3 3 3 3 3 3 3 3 3 3 3 3 3 3 3 3 3 3 3 3 3 3 3 3 3 3 3 3 3 3 3 3 3 3 3 3 3 8 r C G 8 3   $ ",
"  G Z 3 3 3 3 3 3 3 3 3 3 3 3 3 3 3 3 3 3 3 3 3 3 4 3 3 3 3 3 4 3 3 3 3 3 3 3 3 3 3 4 3 3 3 3 3 3 3 3 3 3 3 3 3 3 3 3 3 3 3 3 3 3 3 3 3 3 4 3 3 3 3 3 3 3 3 3 3 3 3 3 3 3 3 3 3 3 3 3 3 3 3 m G 8 3   $ ",
"  H Z 3 3 3 3 3 3 3 3 3 3 3 3 3 3 3 3 3 3 4 3 4 3 3 3 3 3 3 3 3 4 3 3 3 3 3 3 3 3 3 3 3 4 3 3 3 3 3 3 3 3 3 3 3 3 3 3 3 3 3 3 3 3 3 3 3 3 3 3 3 3 3 3 3 3 3 3 3 3 3 3 3 3 3 3 3 3 3 3 3 3 3 3 4 3 3   $ ",
"  G Z 3 3 3 3 3 3 3 3 3 3 3 3 3 3 3 3 3 3 3 3 3 3 3 3 3 3 3 3 3 3 3 3 3 3 3 3 3 3 4 3 3 3 3 3 3 3 3 3 3 3 3 3 3 3 3 3 3 3 3 3 3 3 3 3 3 3 3 3 4 3 3 3 3 3 3 3 3 3 3 3 3 3 3 3 3 3 3 3 3 3 3 3 3 3 3   $ ",
"  G A 3 3 3 3 3 3 3 3 3 3 3 3 3 3 3 3 3 3 3 3 3 3 3 3 3 4 3 3 3 3 3 4 3 3 3 3 3 3 3 3 3 3 3 3 3 3 3 3 3 3 3 3 3 3 3 3 3 3 3 3 3 3 3 3 3 3 3 3 3 3 3 3 3 3 3 3 3 3 3 3 3 3 3 3 3 3 3 3 3 3 3 3 3 3 3   $ ",
"  Z C 3 3 3 3 3 3 3 3 3 3 3 3 3 4 3 3 3 3 3 3 3 3 3 3 3 3 3 3 5 3 3 3 3 3 3 3 3 3 3 3 3 3 3 3 3 3 3 3 3 3 3 3 3 3 3 3 3 3 3 3 3 3 3 3 3 3 3 3 6 3 3 3 3 4 3 3 3 3 3 3 3 3 3 3 3 3 3 3 3 3 3 3 3 3 3 . $ ",
"  3 3 3 j / / ^ ^ T w 3 3 3 J ^ ) ! h 3 3 R ^ ( / / / E 3 3 3 T ^ I 4 3 d ^ ! 3 J / _ ( P 3 3 3 3 k / / ^ ^ Y 0 3 h ^ / 7 3 3 3 3 s ^ ^ L 3 3 T / T 3 3 T ^ J h ^ ^ / ( / N j ( ^ ^ ^ T q 3 3 3 3 3   $ ",
"  3 3 3 J =.=.%.=.=.[ 3 3 ! =.=.=.=.=.K 3 ' =.=.=.=.*.o.3 3 3 W =.+.3 3 R =._ V =.=.=.=...3 3 3 3 J =.&.=.=.=.} 7 K =.=.0 3 3 3 3 R =.=.[ 3 3 L =.=.h d =.%.a J =.=.=.=.-.P K =.=.=.=.=.{ 6 3 3 3 3   $ ",
"  3 3 3 K =.=.3 P =.=.3 N =.=.P q ) =.+.3 e a ( =.) a a 3 3 3 h =.=.j 3 ' =.I ^ =._ q a B 3 3 3 3 J =.=.0 Y =.=.N J =.=.0 3 3 3 3 ..=.=.=.g 3 3 { =.^ ^ =.W 3 J =.=.a a a 0 J =.=.3 P =.=.h 3 3 3 3   $ ",
"  3 3 3 K =.=.V ( =.( 3 R =.@.3 3 J =.=.d 3 3 / =.' 3 3 3 3 3 4 ..=.E a -.$.0 ^ -.&.) T w 3 3 3 3 J =.=.7 k =.=.K J =.=.0 3 3 3 g -.{ { =.W 3 3 J =.=.*.@.w 3 J =.=.R R J 3 J =.=.3 B =.=.a 3 3 3 3   $ ",
"  3 3 3 J =.=.=.=.&.P 3 ^ =.O.4 3 N =.=.V 3 3 / =.' 3 3 3 3 3 3 E =.{ P -.( 3 k @.-.-.-...q 3 4 3 J =.=.) +.=.@.w J =.=.0 3 3 3 Q -.R E -...3 3 3 ` =.=.W 3 3 J =.=.=.=.( 3 J =.=.o.=.=.! 3 3 3 3 3   $ ",
"  3 3 3 K =.=.0 L =.=.j R =.%.4 3 L =.=.a 3 3 / =.[ 3 3 3 3 3 3 d =.-.[ -.L 3 3 0 P ) -.&.B 3 3 3 J =.=.O...( k 3 J =.=.7 3 3 3 o.-.) ) -.-.j 3 3 P =.=.q 3 3 J =.=.N N j 3 J =.=.( =.=.j 3 3 3 3 3 . $ ",
"  3 3 3 J =.=.3 V =.=.P V =.=.P a _ =.O.3 3 3 / =.) 3 3 3 3 3 3 3 { -.-.$.0 3 K L f J -.-.k 3 3 3 K =.=.0 3 3 3 3 J =.=.h f g N -.-.%.@.-.-.! 3 3 P =.=.3 3 3 J =.=.g g g e J =.=.0 ' =.) 3 3 3 3 3   $ ",
"  3 3 3 J =.=.=.=.=.+.a 3 ^ =.=.=.=.$.B 3 3 3 / =.) 3 3 3 3 3 3 3 R =.=./ 3 3 ( -.-.-.-.| 6 3 3 4 J =.=.0 3 3 3 3 J =.=.=.=.=.( -.! 3 3 Q -.O.3 3 L =.=.3 3 3 J =.=.=.=.=.R J =.=.7 B =.=.N 3 3 3 3   $ ",
"  3 3 3 h ! ! ! ! P w 3 3 3 K ! ( W s 3 3 3 3 P ! T 3 5 3 4 3 3 3 s ! ! N 3 3 k ! / ( R w 3 3 3 3 g ! ! 6 3 3 3 3 j ! ! ! ! ! R ! k 3 3 f ! ! e 3 j ! ! 3 3 3 h ! ! ! ! ! V h ~ ~ 5 3 R Q P 3 3 3 3   $ ",
"  3 3 3 3 3 3 3 3 3 3 3 3 3 3 3 3 3 3 4 3 3 3 3 3 3 3 4 3 3 3 3 3 3 3 3 3 3 3 3 3 3 3 3 3 3 3 3 3 3 3 3 3 3 3 3 3 3 3 3 3 3 3 3 3 3 3 3 3 3 4 3 3 3 3 3 3 3 3 3 3 3 3 3 3 3 3 3 3 3 3 3 3 3 3 3 3 3   $ ",
"  3 3 3 3 3 3 3 3 3 3 3 3 3 3 3 3 3 3 3 3 3 3 3 3 3 3 3 3 3 3 3 3 3 3 5 3 3 3 3 4 3 3 3 3 3 4 3 3 3 4 3 3 3 3 3 3 3 3 3 3 4 3 3 3 3 3 3 3 3 3 3 3 3 5 3 3 3 3 3 3 3 3 3 3 3 3 3 3 3 3 3 3 3 3 3 3 3   $ ",
"  3 3 3 3 3 3 3 3 3 3 3 3 3 3 3 3 3 3 3 3 3 3 3 3 3 3 3 3 3 3 3 3 3 3 3 3 3 3 3 3 3 3 3 3 3 3 3 3 3 3 3 3 3 3 3 3 3 3 3 3 3 3 3 3 3 3 3 3 3 3 3 3 3 3 3 3 3 3 3 3 3 3 3 3 3 3 3 3 3 3 3 3 3 3 3 3 3 . $ ",
"  3 3 3 3 3 3 3 3 3 3 3 3 3 3 3 3 3 3 3 3 3 3 3 3 3 3 3 3 3 3 3 3 3 3 3 4 3 3 3 3 3 3 3 3 3 3 3 3 3 3 3 3 3 3 3 3 4 3 3 3 3 3 3 3 3 3 3 3 3 3 3 3 3 3 3 3 3 3 3 3 3 3 3 3 3 3 3 3 3 3 3 3 3 3 3 3 3   $ ",
"  3 3 3 3 3 3 3 3 3 3 3 3 3 3 3 3 3 3 3 3 3 3 3 3 3 3 3 3 3 3 4 3 3 3 3 3 3 3 3 3 3 3 3 3 3 3 3 3 3 3 3 3 3 3 3 3 3 3 3 4 3 3 3 3 3 3 3 3 3 3 3 3 3 3 3 3 3 3 3 3 3 3 3 3 3 3 3 3 3 3 3 3 3 3 3 3 3   $ ",
"  3 3 3 3 3 3 3 3 3 3 3 3 3 3 3 3 3 3 3 3 3 3 3 3 3 3 3 3 3 3 3 3 3 3 3 3 3 4 3 3 3 3 3 3 3 3 3 3 3 3 3 3 3 3 3 3 3 3 3 3 3 3 3 3 3 3 3 3 3 3 3 3 3 3 3 3 3 3 3 3 3 3 3 3 3 3 3 3 3 3 3 3 3 3 3 3 3   $ ",
"  3 3 3 3 3 3 3 3 3 3 3 3 3 3 3 3 3 3 3 3 3 3 3 3 3 3 3 3 3 3 3 3 3 3 3 3 3 3 3 3 3 3 3 3 3 3 3 3 3 3 3 3 3 3 3 3 3 3 3 3 3 3 3 3 3 3 3 3 3 3 3 3 3 3 3 3 3 3 3 3 3 3 3 3 3 3 3 3 3 3 3 3 3 3 3 3 3   $ ",
"  H Z 3 3 3 3 3 3 3 3 3 3 3 3 3 3 3 3 3 3 3 3 3 3 3 3 3 3 3 3 3 3 3 3 3 3 3 3 3 3 3 3 3 3 3 3 3 3 3 3 3 3 3 3 3 3 3 3 3 3 3 3 3 3 3 3 3 3 3 3 3 3 3 3 3 3 4 3 3 3 3 3 3 3 3 3 3 3 3 3 3 3 3 3 3 G H   $ ",
"  M m 8 8 8 8 8 8 8 8 8 8 8 8 8 8 8 8 8 8 8 8 8 8 8 8 8 8 8 8 8 8 8 8 8 8 8 7 8 8 8 8 8 8 8 8 8 8 8 8 8 8 8 8 8 8 8 8 8 8 8 7 8 8 8 8 8 8 8 8 8 8 8 8 8 8 8 8 6 8 8 8 8 8 8 8 8 8 8 8 7 8 8 q 8 m A   $ ",
"  : , H G G G G G G G G G G G G A G G G G G G G G G D G A G G G G G G G G G G G G G G G G G A G G G G D G G G G G G G G G G G G G G G G G G G G G G G D G G G G G G G G G G G G G G G G G G H A < :   $ ",
"  : , l l l l l l l l l l l l z l l l l l l l x l l l l l l l l y 2 l l l l l l l l l l l l l l l l l l l l l l l l l l l l l l l l l l l l l l l l l l l l l l l l l l l l l l l l l l l l l l < :   $ ",
"  : : : : : : : : : : : : : : : : : : : : : : : : : : : : : : : : : : : : : : : : : : : : : : : : : : : : : : : : : : : : : : : : : : : : : : : : : : : : : : : : : : : : : : : : : : : : : : : : :   $ ",
"2 & * : : : : : : : : : : : : : : : : : : : : : : : : : : : : : : : : : : : : : : : : : : : : : : : : : : : : : : : : : : : : : : : : : : : : : : : : : : : : : : : : : : : : : : : : : : : : : * & 1 1 ",
"F   . : : : : : : : : , : : : : : : : : : : : : : : : : : : : : : : : : : : : : : : : , : : : : : : : : : : : : : : : : : : : : : : : : : : : : : : : : : : : : : : : : : : : : : : : : : : : : o   n n ",
"D D v . + @ + + o + + @ @ + @ + + @ + + @ + + + @ + @ O @ + + + + + @ + O + + + + + + + O @ + @ + @ + @ + + + @ + + @ + O + + @ + @ + + + @ + + @ O @ + + + + @ + @ + @ + + @ O @ + + @ O @ + X z b n n ",
"F D n                                                                                                                                                                                           b n n n "
};
