/* XPM */
static char *_76d00a99b3f4bd7b228b945c72e7bb7ZY74ych0POA4gddY[] = {
/* columns rows colors chars-per-pixel */
"100 38 118 2 ",
"   c #000000",
".  c #000310",
"X  c #041722",
"o  c #001A31",
"O  c #123546",
"+  c #143845",
"@  c #11354B",
"#  c #143C51",
"$  c #013D64",
"%  c #1B4A67",
"&  c #144E69",
"*  c #1F5C6E",
"=  c #235C7E",
"-  c #2C737F",
";  c #015285",
":  c #0A5786",
">  c #015F99",
",  c #02629D",
"<  c #266485",
"1  c #2B6F80",
"2  c #206A8C",
"3  c #2C7080",
"4  c #2B7390",
"5  c #2D7A92",
"6  c #348397",
"7  c #37839B",
"8  c #378C9A",
"9  c #3988A2",
"0  c #3487A8",
"q  c #358BA9",
"w  c #3E97AC",
"e  c #3E9CAC",
"r  c #3DA0BF",
"t  c #4194B4",
"y  c #409DB2",
"u  c #439FBC",
"i  c #0484D1",
"p  c #0B86D2",
"a  c #0F88D2",
"s  c #1185D1",
"d  c #1D86D2",
"f  c #178CD3",
"g  c #198DD4",
"h  c #1F92D5",
"j  c #359ECC",
"k  c #2387D2",
"l  c #2988D2",
"z  c #358BD3",
"x  c #3D8DD3",
"c  c #2395D6",
"v  c #2D9ED9",
"b  c #3FA5C8",
"n  c #34A0D3",
"m  c #35A6DB",
"M  c #39AADD",
"N  c #458FD4",
"B  c #4B91D5",
"V  c #5495D6",
"C  c #5A97D6",
"Z  c #5E98D7",
"A  c #629AD7",
"S  c #659CD8",
"D  c #6B9ED9",
"F  c #48A4C7",
"G  c #46AEC0",
"H  c #41A7C9",
"J  c #4BB2CE",
"K  c #4BBACD",
"L  c #4DAED3",
"P  c #4DB5D3",
"I  c #4EBBD3",
"U  c #75A3DA",
"Y  c #7BA6DB",
"T  c #7EA8DC",
"R  c #42B5E0",
"E  c #46BAE2",
"W  c #4ABFE5",
"Q  c #4EC0D4",
"!  c #4BC1E5",
"~  c #84ABDD",
"^  c #8AAFDE",
"/  c #8DB1DF",
"(  c #92B3DF",
")  c #95B5E0",
"_  c #9CB9E2",
"`  c #A3BDE3",
"'  c #A7C0E4",
"]  c #ABC3E5",
"[  c #B0C6E7",
"{  c #B3C8E7",
"}  c #B7CBE8",
"|  c #BBCEE9",
" . c #BFD0EA",
".. c #C4D4EC",
"X. c #C8D6ED",
"o. c #CBD9EE",
"O. c #D0DCEF",
"+. c #D2DEF0",
"@. c #D7E1F1",
"#. c #D9E3F2",
"$. c #DCE5F3",
"%. c #E0E8F4",
"&. c #E2E9F5",
"*. c #E3EAF5",
"=. c #E5EBF6",
"-. c #E7EDF7",
";. c #E8EDF7",
":. c #E9EEF7",
">. c #EAEFF8",
",. c #EEF2F9",
"<. c #F0F3FA",
"1. c #F4F7FB",
"2. c #F6F8FC",
"3. c #F7F9FC",
"4. c #FAFBFD",
"5. c #FBFCFE",
"6. c #FDFEFE",
"7. c #FEFEFF",
/* pixels */
"Q Q Q Q Q Q Q Q Q I Q Q I Q Q Q Q I Q Q I Q Q I Q I I Q I I I I I I I I I I I I I I I I I I I I I I I I I I I I P I I I P I P I I P I I P I I P P I P P I P P I P P P P P P P P P P P P P P P P P P P P ",
"Q Q Q I Q I I Q Q I Q I I Q I K I I I I I I I I I I I I I I I I I I I I I I I I I I P I I P P I P I P P P I P I P P P I P I P P P P P P P P P P P P P P P P P P P P P P P P P P P P P L P P P P P L P P ",
"Q Q Q -                                                                                                                                                                                         L P P L ",
"Q K G 6 * * * * * * * * * * * * * * * * * * * * * * * * * $ $ $ & * * * * * * * $ $ $ $ $ * * * = $ $ $ $ $ $ $ $ $ $ $ $ $ $ $ $ $ $ $ $ $ $ $ $ $ $ $ $ $ $ $ $ $ $ $ $ $ $ $ $ $ $ & $ $ $ $ u F P P ",
"Q e   r ! ! ! ! ! ! ! ! ! ! ! ! ! ! ! ! ! ! ! ! ! ! ! ! ! i i i m ! ! W ! ! ! W i i i i i E W W I i i i i i i i i i i i i i i i i i i i i i i i i i i i i i i i i i i i i i i i i i i i i i i i o   P P ",
"8 8 q j m m m m m m m m m m m M m m m m m m m n m M m m m i i i c m m m m m m m i i i i i m m n m i i i i i i i i i i i i i i i i i i i i i i i i i i i i i i i i i i i i i i i i i f m m m g i , > 7 9 ",
"  5 ! v i i i i i i i i i i i i i i i i i i i i i i i i i i i i i i i i i i i i i i i i i i i i i i i i i i i i i i i i i i i i i i i i i i i i i i i i i i i i i i i i i i i i i i h ! ! ! c i i i   + ",
"  5 ! v i i i i i i i i i i i i i i i i i i i i i i i i i i i i i i i i i i i i i i i i i i i i i i i i i i i i i i i i i i i i i i i i i i i i i i i i i i i i i i i i i i i i i i a h M ! E E p i   + ",
"  5 ! v i i i i i i i i i i i i i i i i i i i i i i i p p i i i i i i i i i i i p i i i i i i i i i i i i i i i i i i i i i i i i i i i i i i i i i i i i i i i i i i i i i i i i i i i m ! ! ! s i   + ",
"  5 ! v i i i i i i i i i i i i i i i i i i i i i i i i i i i i i i i i i i i i i i i i i i i i i i i i i i i i i i i i i i i i p i i i i i i i i i i i i i i i i i i i i i i i i i i i i i E ! a i   + ",
"  5 ! v i i i i i i i i i i i i i i i i i i i i i i i i i i i i i i i i p i i i i i i i i i i i i i i i i i i i i i i i p i i i i i i i i i i i i i i i i i i i i i i i i i i i i i i i i i R ! a i   + ",
"  5 ! v i i i i i i i i i i i i i i i i i i i i i i i i i i i p i p p i i i i i i i i i i p i i i i i i i i i i i i i i p i i i i i i i i i i p i i i i i i i i i i i i i i i i i i i i i i i i i i   + ",
"  5 ! v i i i i i i i i i i i i i i i i i i i i i i i i i i i i i i i i i i i i i i i i i i i i i i p i i i i p i p i i i i i i i i i i i i i i i i i i i i i i i i i i i i i i i i i i i i i i i i   # ",
"  5 W v i i i i i i i i i i i i i i i i i i i i i i i i i i i i i i p i i i i i i i i i i i i i i i i i i i i i i i i i i i i i i i i p i i i i i i i i i i i i i i i i i i i i i i i i i i i i i i   + ",
"  2 m h i i i i i i i i i i i i i i i i i i p i i i i p i i i i p i i i i i i p i i i i i i i i i i i i i i i i i i i i i i p i i i i i i i i i i i i i i i i i i i i i i i i i i i i i i i i i i i   + ",
"  ; i i i S ...... .' z i i i ~ ..O.| A i i ` ......X...{ i p i ` X._ i i V ..| i ~ ..+.o.) p i i i S ........_ k i A ....d i i i i B ..X.( i i ' ..' i i ' ..T S ..........U S ...... ._ l i i i i   + ",
"  ; i i i ~ 7.7.1.7.7.$.i i | 7.7.7.7.7.^ i #.7.7.7.7.7.;.i i i } 7.;.i i ' 7.O.~ 7.7.7.7.*.i i p i ~ 5.7.7.7.7.&.d ~ 7.7.d i i i i ] 7.7.$.i i ( 6.7.C V 4.2.x ~ 7.7.7.7.7.( ~ 7.7.7.7.7.&.p i i i   + ",
"  ; i i i ~ 7.5.i ( 7.5.i U 7.7.( l O.7.,.i x N o.7.$.N x i i i A 7.7.S i $.7.(  .7.@.l N U i i i i ~ 5.7.k _ 7.7.Y ~ 7.7.d i i i i &.7.7.7.Z i i &.7.....6.{ i ~ 7.7.N N B l ~ 7.7.i ( 7.7.A i i i   + ",
"  ; i i i ~ 7.7.T o.7.+.i ] 7.<.i i ~ 7.7.V i i X.7.#.i i i i i i &.7.[ x 7.4.l | 7.5.o.` z i i i i ~ 5.7.d D 7.7.~ ~ 7.7.k i i i A 7.*.&.7.[ i i ~ 7.6.4.2.z i ~ 7.7.] ] ~ i ~ 7.7.i U 7.7.B i i i   + ",
"  ; i i i ~ 7.7.7.7.3.( i ..7.-.i i U 7.7.Y i i X.7.#.i i i i i i ] 7.*.( 7.O.i D <.7.7.7.;.l i i p ~ 7.7.O.,.7.,.z ~ 7.7.k i i i } 7.] [ 7.&.i i i $.7.7.] i i ~ 7.7.7.7.o.i ~ 7.7.-.7.7.| i i i i   # ",
"  ; i i i ~ 7.7.k ^ 7.7.A ] 7.,.i i ^ 7.7.N i i X.7.@.i i i i i i C 7.7.$.7./ i i d ( O.7.7.U i i i ~ 7.7.>.;.o.D i ~ 7.7.d i i i ;.7.o.o.7.7.D i i ( 7.7.l i i ~ 7.7.Y U Z i ~ 7.7.o.7.7.S i i i i   + ",
"  ; i i i ~ 7.5.i T 7.7.) Y 7.7._ N o.7.-.i i i X.7.@.i i p i i i i &.7.7.2.d i ^ / C ~ 7.7.D i i i ~ 7.7.k i i i i ~ 7.7.A Z Z U 7.7.2.2.5.7.} i i / 7.6.i i i ~ 7.7.C Z Z x ~ 7.7.d @.7.+.i i i i   + ",
"  ; i i i ~ 7.7.5.7.7.,.N i  .7.7.7.7.3.Y i i i ..5.+.i i i i i i i ' 7.7.o.i i o.7.7.7.7.&.s i i p ~ 5.7.d i i i i ~ 7.7.7.7.7.o.7.| i i } 7.;.i i ^ 7.6.i i i ~ 7.7.7.7.7.[ ~ 7.7.d Y 7.7.D i i i   + ",
"  ; i i i Z | | | | _ z i i i ~ ..o.[ B i i i i ( ..` i i i i i i i B | } U i i D } o.o.` z i i i i Z | | s i i i i A | | | | | ] } D i i C } ..x i S | | i i i A | | |  .} T A | | p i ] | / i i i   + ",
"  ; i i i i i i i i i i i i i i i i i i i i i i i i i i i i i i i i i i i i i i i i i p i i i i i i i i i i i i i i i i i i i i i i i i i i i i i i i i i i i i i i i i i i i i i i i i i i i i i i   # ",
"  ; i i i i i i i i i i i i i i i i i i i i i i i i i i i i p i i i i i i i i p i i i i i i i i i p i i i i i i i i i s i i i i i i i i i i i i i i i i i i i i i i i i i i i i i i i i i i i i i i   + ",
"  ; i i i i i i i i i i i i i i i i i i i i i i i i i i i i i i i i i p i i i i i i i i i i i i i i i i i i i i i i i i i i i i i i i i i i i i i i i i i i i i i i i i i i i i i i i i i i i i i i   + ",
"  ; i i i i i i i i i i i i i i i i i i i i i i i i i i i i i i i i i i i i i i i i i i i i p i i i i i i i i i i i i i i i i i i i i i i i p i i i i i i i i i i i i i i i i i i i i i i i i i i i   + ",
"  ; i i i i i i i i i i i i i i i i i i i i i i i i i i i i i i i i p i p i i i i i i i i i i i i p i i i i i i i i i i i i i i i i i i i i i i i i i i i i i i i i i i i i i i i i i i i i i i i i   + ",
"  ; i i i i i i i i i i i i i i i i i i i i i i i i i i i i i i i i i i i i i i i i i i i i i i i i i i i i i i i i i i i i i i i i i i i i i i i i i i i i i i i i i i i i i i i i i i i i i i i i   + ",
"  : f p i i i i i i i i i i i i i i i i i i i i i i i i i i i i i i i i i i i i i i i i i i i i i i i i i i i i i i i i i i i i i i i i i i i i i i i i i i i i i i i i i i i i i i i i i i i i f f   + ",
"  5 ! v i i i i i i i i i i i i i i i i i i i i i i i i i i i i i i i i i i i i i i i i i i i i i i i i i i i i i i i i i i i i i i i i i i i i i i i i i i i i i i i i i i i i i i i i i i i i W !   + ",
"  < b n v v v v v v v m v v v v v v v v v v v v v v v v v v v v n v v v v v v v v v v v v v v v v v v v v v v v v v v v m v v v v v v v v v v v v v v v v v v v v v v v v v v v v v v v v v m v H H   + ",
"  @ = H ! ! ! ! ! ! W ! ! ! ! ! ! ! ! ! ! ! ! ! ! ! ! ! ! ! ! ! W W ! W ! ! ! ! ! ! ! ! ! ! ! ! ! ! ! ! ! ! ! ! ! ! ! ! W ! ! ! ! ! ! ! ! ! ! ! ! ! ! ! ! ! ! ! ! ! ! ! ! ! ! ! ! ! ! ! ! ! ! ! < =   + ",
"y 6 O 4 0 0 0 0 0 0 0 0 0 0 0 0 0 0 0 0 0 0 0 0 0 0 0 0 0 0 0 0 0 0 0 0 0 0 0 0 0 0 0 0 0 0 0 0 0 0 0 0 0 0 0 0 0 0 0 0 0 0 0 0 0 0 0 0 0 0 0 0 0 0 0 0 0 0 0 0 0 0 0 0 0 0 0 0 0 0 0 0 0 0 0 0 # O t t ",
"I w   % = = = = = = = = = = = = = = = = = = = = = = = = = = = = = = = = = = = = = = = = = = = = = = = = = = = = = = = = = = = = = = = = = = = = = = = = = = = = = = = = = = = = = = = = = = = =     L L ",
"I I J 1 X X X X X X X X X X X X X X X X X X X X X X X X X X X X X X X X X X X X X X X X X X X X X X X X X X X X X X X X X X X X X X X X X X X X X X X X X X X X X X X X X X X X X X X X X X X . F F L L ",
"I I I 3                                                                                                                                                                                         L L L L "
};
