/* XPM */
static char *result[] = {
/* columns rows colors chars-per-pixel */
"100 38 212 2 ",
"   c black",
".  c #000001",
"X  c #000101",
"o  c #000010",
"O  c #000011",
"+  c #000013",
"@  c #010514",
"#  c #020A17",
"$  c #020B1B",
"%  c #031416",
"&  c #031417",
"*  c #031517",
"=  c #001122",
"-  c #001222",
";  c #041722",
":  c #021824",
">  c #031824",
",  c #041B25",
"<  c #061E26",
"1  c #061F26",
"2  c #061F27",
"3  c #082227",
"4  c #09242A",
"5  c #09252A",
"6  c #0C2E3C",
"7  c #001E40",
"8  c #0E2F45",
"9  c #0F2F46",
"0  c #12374E",
"q  c #133950",
"w  c #003861",
"e  c #1F5A6C",
"r  c #014875",
"t  c #22597C",
"y  c #235B7D",
"u  c #235B7E",
"i  c #235C7E",
"p  c #245C7F",
"a  c #245D7F",
"s  c #23667B",
"d  c #266384",
"f  c #276586",
"g  c #276687",
"h  c #28698A",
"j  c #409DB2",
"k  c #419EB4",
"l  c #41A9B4",
"z  c #0082D0",
"x  c #0083D1",
"c  c #0183D1",
"v  c #0382D1",
"b  c #0283D1",
"n  c #0383D1",
"m  c #0483D1",
"M  c #0384D1",
"N  c #0084D2",
"B  c #0284D2",
"V  c #0384D2",
"C  c #0385D2",
"Z  c #0484D1",
"A  c #0584D1",
"S  c #0485D2",
"D  c #0485D3",
"F  c #0686D3",
"G  c #0486D4",
"H  c #0885D1",
"J  c #0A86D2",
"K  c #0C87D2",
"L  c #0F88D2",
"P  c #1085D1",
"I  c #1185D1",
"U  c #1E86D2",
"Y  c #1189D2",
"T  c #148AD3",
"R  c #148BD3",
"E  c #158BD3",
"W  c #168CD3",
"Q  c #178CD3",
"!  c #1E91D5",
"~  c #2387D2",
"^  c #2C89D2",
"/  c #368BD3",
"(  c #398CD3",
")  c #3C8CD3",
"_  c #2193D5",
"`  c #2696D6",
"'  c #2A9AD8",
"]  c #2B9BD8",
"[  c #31A1DA",
"{  c #30A2DB",
"}  c #35A6DB",
"|  c #36A7DB",
" . c #32A3DC",
".. c #37A8DC",
"X. c #3BADDE",
"o. c #3DAFDE",
"O. c #3FB2DF",
"+. c #3EB1E1",
"@. c #438FD4",
"#. c #4890D4",
"$. c #5294D5",
"%. c #5996D6",
"&. c #5C98D6",
"*. c #619AD7",
"=. c #659CD8",
"-. c #6B9ED8",
";. c #6D9FD9",
":. c #40A5C7",
">. c #46AFC0",
",. c #46AFC1",
"<. c #47ACC3",
"1. c #40A6C8",
"2. c #46BAC1",
"3. c #48BAC7",
"4. c #4AB2CA",
"5. c #49B6C8",
"6. c #4BB4CC",
"7. c #4AB8CB",
"8. c #4DBFD2",
"9. c #4EBBD4",
"0. c #45B6DC",
"q. c #46B7DC",
"w. c #48BBDE",
"e. c #49BBDF",
"r. c #71A1D9",
"t. c #74A2DA",
"y. c #75A3DA",
"u. c #7BA6DB",
"i. c #7DA7DB",
"p. c #7EA8DC",
"a. c #40B4E0",
"s. c #41B4E0",
"d. c #41B5E1",
"f. c #42B6E1",
"g. c #43B7E1",
"h. c #44B8E1",
"j. c #44B8E3",
"k. c #45BAE3",
"l. c #48BDE3",
"z. c #48BDE4",
"x. c #48BEE4",
"c. c #49BEE4",
"v. c #4BC0CD",
"b. c #4BC0CE",
"n. c #4AC4CC",
"m. c #4BC6CE",
"M. c #4EC1D4",
"N. c #4EC7D5",
"B. c #4DCBD3",
"V. c #4EC9D6",
"C. c #4ECDD5",
"Z. c #4ECED6",
"A. c #4BC1E5",
"S. c #4BC2E5",
"D. c #4BC1E6",
"F. c #4BC2E6",
"G. c #4CC2E5",
"H. c #4CC3E6",
"J. c #4CC3E7",
"K. c #4CC4E7",
"L. c #4CC4E9",
"P. c #81AADC",
"I. c #82AADC",
"U. c #88ADDD",
"Y. c #89AEDE",
"T. c #90B2DF",
"R. c #91B2DF",
"E. c #92B3DF",
"W. c #9AB8E1",
"Q. c #A3BDE3",
"!. c #A4BEE3",
"~. c #A5BFE4",
"^. c #A8C1E5",
"/. c #ACC3E5",
"(. c #ADC4E6",
"). c #B2C7E7",
"_. c #BBCEE9",
"`. c #BFD0EA",
"'. c #C2D2EB",
"]. c #C6D5EC",
"[. c #CAD8EE",
"{. c #CCD9EE",
"}. c #D1DDF0",
"|. c #D4DFF0",
" X c #D6E0F1",
".X c #D6E1F1",
"XX c #DBE4F3",
"oX c #DEE6F4",
"OX c #DFE7F4",
"+X c #E1E8F5",
"@X c #E2E9F5",
"#X c #E3EAF5",
"$X c #E4EBF6",
"%X c #E5EBF6",
"&X c #E7EDF7",
"*X c #EDF1F9",
"=X c #EEF2F9",
"-X c #EFF3FA",
";X c #F0F4FA",
":X c #F1F4FA",
">X c #F2F5FA",
",X c #F3F6FB",
"<X c #F4F7FB",
"1X c #F6F8FC",
"2X c #F7F9FC",
"3X c #F9FBFD",
"4X c #FBFCFD",
"5X c #FBFCFE",
"6X c #FCFDFE",
"7X c #FDFEFE",
"8X c #FEFEFF",
"9X c white",
/* pixels */
"C.C.m.  * * * * * * * * * * * * * * * * * * * * * * * * * * * * * * * * * * * * * * * * * * * * & & & & & & & & & & & & & & & & & & & & & & & & & & & & & & & & & & & & & & & % % % % % % % %   7.M.M.M.",
"C.B.n.# 1 1 1 1 1 1 1 1 1 1 1 1 1 1 1 1 1 1 1 1 1 1 1 1 > = = = < 1 1 1 1 1 1 : = = = = - 2 1 1 , = = = = = = = = = = = = = = = = = = = = = = = = = = = = = = = = = = = = = = = = = = = = = = + 5.8.M.M.",
"Z.  6 L.J.J.J.J.J.J.J.J.J.J.J.J.J.J.J.J.J.J.J.J.J.J.J.J. .D D N D.J.J.J.J.J.J.{ D D D D F K.J.J.+.D D D D D D D D D D D D D D D D D D D D D D D D D D D D D D D D D D D D D D D D D D D D D D G 7   M.M.",
"2.e s j.g.g.g.g.g.g.g.g.g.g.g.g.g.g.g.g.g.g.g.g.g.g.a.X.` Z Z c d.g.g.g.g.g.g.] Z Z Z Z A h.g.g...Z Z Z Z Z Z Z Z Z Z Z Z Z Z Z Z Z Z Z Z Z Z Z Z Z Z Z Z Z Z Z Z Z Z Z Z Z Z Z Z Z K _ _ _ Y S r w >.,.",
"  J.x.z M M M M M M M M M M M M M M M M M M M Z Z A A A A A A A A A Z Z M M M Z Z Z Z Z Z M M M M Z Z Z Z Z Z Z Z Z Z Z Z Z Z Z Z Z Z Z Z Z Z Z Z Z Z Z Z Z Z Z Z Z Z Z Z Z Z Z Z Z ! S.A.A.' Z Z D   3 ",
"  F.z.x Z Z Z Z Z Z Z Z Z Z Z Z Z Z Z Z Z A A A A A A A A A A A A A A A A A Z Z Z Z Z Z Z Z Z Z Z Z Z Z Z Z Z Z Z Z Z Z Z Z Z Z Z A A A A Z Z Z Z Z Z Z Z Z Z Z Z Z Z Z Z Z Z Z Z Z R } O.A.o.| L D . 5 ",
"  F.z.x Z Z Z Z Z Z Z Z Z Z Z Z Z Z Z Z A A A A A A A A A A A A A A A A A A A A A A A Z Z Z Z Z Z Z Z Z Z Z Z Z Z Z Z Z Z Z A A A A A A A A A A Z Z Z Z Z Z Z Z Z Z Z Z Z Z Z Z Z Z Z Z [ A.A.G.W D . 5 ",
"  F.z.x Z Z Z Z Z Z Z Z Z Z Z Z Z Z Z A A A A A A A A A A A A A A A A A A A A A A A A A A A A A Z Z Z Z Z Z Z Z Z Z Z Z A A A A A A A A A A A A A A Z Z Z Z Z Z Z Z Z Z Z Z Z Z Z Z Z Z T _ s.G.W D . 5 ",
"  F.z.x Z Z Z Z Z Z Z Z Z Z Z Z Z Z A A A A A A A A A A A A A A A A A A A A A A A A A A A A A A A m n v v n n n m m A A A A A A A A A A A A A A A A A Z Z Z Z Z Z Z Z Z Z Z Z Z Z Z Z Z Z Z O.H.W D . 5 ",
"  F.z.x Z Z Z Z Z Z Z Z Z Z Z Z Z A A A A A A A A A A A A A A A A A A A A A A A A A A A A A A A A A A A A A A A A A A A A A A A A A A A A A A A A A A A Z Z Z Z Z Z Z Z Z Z Z Z Z Z Z Z Z Z H J A D . 5 ",
"  F.z.x Z Z Z Z Z Z Z Z Z Z Z Z Z A ) t.$.A A A A A A A A A A A A A A A A A A A A A A A A A A A A A A A A A A A A A A A A A A A A A A A A A A A A A A A A Z Z Z Z Z Z Z Z Z Z Z Z Z Z Z Z Z Z Z Z D . 5 ",
"  F.z.x Z Z Z Z Z Z Z Z Z Z Z ( _.>X9X9X9X2X X=.A A A A A A A A A A A A A A A A A A A A A A A A A A A A A A A A A A A A A A A A A A A A A A A A A A A A A A Z Z Z Z Z Z Z Z Z Z Z Z Z Z Z Z Z Z Z D . 5 ",
"  k.f.c Z Z Z Z Z Z Z Z Z Z u.>X9X9X9X9X9X9X9X5X^.A A A A A A A A A A A A A A A A A A A A A A A A A A A A A A A A A A A A A A A A A A A A A A A A A A A A A Z Z Z Z Z Z Z Z Z Z Z Z Z Z Z Z Z Z Z D . 5 ",
"  B b Z Z Z Z Z Z Z Z Z Z / *X9X9X9X,XXX=X9X9X9X5X;.A A A A A A A A U.T.T.r.A A A A A A A A A A A A A A A A A A A A A A A A A A A A A A A A A A A A A A A A A Z Z Z Z Z Z Z Z Z Z Z Z Z Z Z Z Z Z D . 5 ",
"  S Z Z Z Z Z Z Z Z Z Z Z '.9X9X9XOX/ A I {.9X9X9X@XA A A A A A A A ;X9X9X[.A A A A A A A A A A A A A A A A A A A A A A A A A A A A A A A A A A A A A A A A A Z Z Z Z Z Z Z Z Z Z Z Z Z Z Z Z Z Z D . 5 ",
"  S Z Z Z Z Z Z Z Z Z Z P <X9X9X9XI.A A A %.8X9X9X9X%.A A A A A A A ;X9X9X[.A A A A A A A A A A A A A A A A A A A A A A A A A A A A A A A A A A A A A A A A A Z Z Z Z Z Z Z Z Z Z Z Z Z Z Z Z Z Z D . 5 ",
"  S Z Z Z Z Z Z Z Z Z Z *.9X9X9X9X~ A A A A :X9X9X9XE.A A A A A A A #X;X;X`.A A A A A A A A A A A A A A A A A A A A A A A A A A A A A A A A A A A A A A A A A Z Z Z Z Z Z Z Z Z Z Z Z Z Z Z Z Z Z D . 5 ",
"  S Z Z Z Z Z Z Z Z Z Z i.9X9X9X1XA A A A A &X9X9X9XQ.A A A A A A A A A A A A A A A A A A A A A A A A A A A A A A A A A A A A A A A A A A A A A A A A A A A A Z Z Z Z Z Z Z Z Z Z Z Z Z Z Z Z Z Z D . 5 ",
"  S Z Z Z Z Z Z Z Z Z Z P.9X9X9X1XA A A A A %X9X9X9X!.A A A A A A A A A A A A A A A A A A A A A A A A A A A A A A A A A A A A A A A A A A A A A A A A A A A A Z Z Z Z Z Z Z Z Z Z Z Z Z Z Z Z Z Z D . 5 ",
"  S Z Z Z Z Z Z Z Z Z Z -.9X9X9X8XU A A A A -X9X9X9XR.A A A A A A A A A A A A A A A A A A A A A A A A A A A A A A A A A A A A A A A A A A A A A A A A A A A A Z Z Z Z Z Z Z Z Z Z Z Z Z Z Z Z Z Z D . 5 ",
"  S Z Z Z Z Z Z Z Z Z Z ^ 4X9X9X9Xy.A A A #.6X9X9X9X&.A A A A A A A A A A A A A A A A A A A A A A A A A A A A A A A A A A A A A A A A A A A A A A A A A A A A Z Z Z Z Z Z Z Z Z Z Z Z Z Z Z Z Z Z D . 5 ",
"  S Z Z Z Z Z Z Z Z Z Z Z .X9X9X9X}.I A A `.9X9X9X#XA A A A A A A A !.(.(.Y.A A A A A A A A A A A A A A A A A A A A A A A A A A A A A A A A A A A A A A A A Z Z Z Z Z Z Z Z Z Z Z Z Z Z Z Z Z Z Z D . 5 ",
"  S Z Z Z Z Z Z Z Z Z Z Z *.3X9X9X9X$X].oX9X9X9X5Xr.A A A A A A A A ;X9X9X[.A A A A A A A A A A A A A A A A A A A A A A A A A A A A A A A A A A A A A A A A Z Z Z Z Z Z Z Z Z Z Z Z Z Z Z Z Z Z Z D . 4 ",
"  S Z Z Z Z Z Z Z Z Z Z Z Z ~.7X9X9X9X9X9X9X9X8X/.A A A A A A A A A ;X9X9X[.A A A A A A A A A A A A A A A A A A A A A A A A A A A A A A A A A A A A A A A A Z Z Z Z Z Z Z Z Z Z Z Z Z Z Z Z Z Z Z D . 4 ",
"  S Z Z Z Z Z Z Z Z Z Z Z Z Z t.OX9X9X9X9X9XOXy.A A A A A A A A A A |.+X+X).A A A A A A A A A A A A A A A A A A A A A A A A A A A A A A A A A A A A A A A Z Z Z Z Z Z Z Z Z Z Z Z Z Z Z Z Z Z Z Z D . 4 ",
"  S Z Z Z Z Z Z Z Z Z Z Z Z Z Z Z @.i.W.p.@.A A A A A A A A A A A A A A A A A A A A A A A A A A A A A A A A A A A A A A A A A A A A A A A A A A A A A A Z Z Z Z Z Z Z Z Z Z Z Z Z Z Z Z Z Z Z Z Z D . 4 ",
"  S Z Z Z Z Z Z Z Z Z Z Z Z Z Z Z Z Z Z Z A A A A A A A A A A A A A A A A A A A A A A A A A A A A A A A A A A A A A A A A A A A A A A A A A A A A A A Z Z Z Z Z Z Z Z Z Z Z Z Z Z Z Z Z Z Z Z Z Z D . 4 ",
"  S Z Z Z Z Z Z Z Z Z Z Z Z Z Z Z Z Z Z Z Z Z A A A A A A A A A A A A A A A A A A A A A A A A A A Z Z Z Z Z Z Z Z Z Z A A A A A A A A A A A A A A A Z Z Z Z Z Z Z Z Z Z Z Z Z Z Z Z Z Z Z Z Z Z Z D . 4 ",
"  V M Z Z Z Z Z Z Z Z Z Z Z Z Z Z Z Z Z Z Z Z Z Z Z Z A A A A A A A A Z Z Z Z Z Z Z Z Z Z Z Z Z Z Z Z Z Z Z Z Z Z Z Z Z Z Z Z A A A A A A A A A Z Z Z Z Z Z Z Z Z Z Z Z Z Z Z Z Z Z Z Z Z Z Z Z M C . 4 ",
"  J.c.x Z Z Z Z Z Z Z Z Z Z Z Z Z Z Z Z Z Z Z Z Z Z Z Z Z Z Z Z Z Z Z Z Z Z Z Z Z Z Z Z Z Z Z Z Z Z Z Z Z Z Z Z Z Z Z Z Z Z Z Z Z Z Z Z Z Z Z Z Z Z Z Z Z Z Z Z Z Z Z Z Z Z Z Z Z Z Z Z Z Z Z x l.J.X 4 ",
"  w.q.E Q Q Q Q Q Q Q Q Q Q Q Q Q Q Q Q Q Q Q Q Q Q Q Q Q Q Q Q Q Q Q Q Q Q Q Q Q Q Q Q Q Q Q Q Q Q Q Q Q Q Q Q Q Q Q Q Q Q Q Q Q Q Q Q Q Q Q Q Q Q Q Q Q Q Q Q Q Q Q Q Q Q Q Q Q Q Q Q Q Q Q E 0.e.X 4 ",
"  t f J.S.S.S.S.S.S.S.S.S.S.S.S.S.S.S.S.S.S.S.S.S.S.S.S.S.S.S.S.S.S.S.S.S.S.S.S.S.S.S.S.S.S.S.S.S.S.S.S.S.S.S.S.S.S.S.S.S.S.S.S.S.S.S.S.S.S.S.S.S.S.S.S.S.S.S.S.S.S.S.S.S.S.S.S.S.S.S.S.S.S.S.H.h t   4 ",
"  i d 1.:.:.:.:.:.:.:.:.:.:.:.:.:.:.:.:.:.:.:.:.:.:.:.:.:.:.:.:.:.:.:.:.:.:.:.:.:.:.:.:.:.:.:.:.:.:.:.:.:.:.:.:.:.:.:.:.:.:.:.:.:.:.:.:.:.:.:.:.:.:.:.:.:.:.:.:.:.:.:.:.:.:.:.:.:.:.:.:.:.:.:.1.g i   4 ",
"  i y y y y y y y y y y y y y y y y y y y y y y y y y y y y y y y y y y y y y y y y y y y y y y y y y y y y y y y y y y y y y y y y y y y y y y y y y y y y y y y y y y y y y y y y y y y y y y y i   4 ",
"l 9 0 i y y y y y y y y y y y y y y y y y y y y y y y y y y y y y y y y y y y y y y y y y y y y y y y y y y y y y y y y y y y y y y y y y y y y y y y y y y y y y y y y y y y y y y y y y y y u q 8 j k ",
"V.  o a i i i i i i i i i i i i i i i i i i i i i i i i i i i i i i i i i i i i i i i i i i i i i i i i i i i i i i i i i i i i i i i i i i i i i i i i i i i i i i i i i i i i i i i i i i i p $   9.9.",
"N.v.3.O ; ; ; ; ; ; ; ; ; ; ; ; ; ; ; ; ; ; ; ; ; ; ; ; ; ; ; ; ; ; ; ; ; ; ; ; ; ; ; ; ; ; ; ; ; ; ; ; ; ; ; ; ; ; ; ; ; ; ; ; ; ; ; ; ; ; ; ; ; ; ; ; ; ; ; ; ; ; ; ; ; ; ; ; ; ; ; ; ; ; ; @ <.6.9.9.",
"N.N.b.                                                                                                                                                                                          4.9.9.9."
};
