/* XPM */
static char *result[] = {
/* columns rows colors chars-per-pixel */
"100 38 204 2 ",
"   c black",
".  c #000001",
"X  c #000101",
"o  c #000010",
"O  c #000011",
"+  c #000013",
"@  c #010514",
"#  c #020A17",
"$  c #020B1B",
"%  c #031416",
"&  c #031417",
"*  c #031517",
"=  c #001122",
"-  c #001222",
";  c #041722",
":  c #021824",
">  c #031824",
",  c #041B25",
"<  c #061E26",
"1  c #061F26",
"2  c #061F27",
"3  c #082227",
"4  c #09242A",
"5  c #09252A",
"6  c #0C2E3C",
"7  c #001E40",
"8  c #0E2F45",
"9  c #0F2F46",
"0  c #12374E",
"q  c #133950",
"w  c #003861",
"e  c #1F5A6C",
"r  c #014875",
"t  c #22597C",
"y  c #235B7D",
"u  c #235B7E",
"i  c #235C7E",
"p  c #245C7F",
"a  c #245D7F",
"s  c #23667B",
"d  c #266384",
"f  c #276586",
"g  c #276687",
"h  c #28698A",
"j  c #409DB2",
"k  c #419EB4",
"l  c #41A9B4",
"z  c #0082D0",
"x  c #0083D1",
"c  c #0183D1",
"v  c #0382D1",
"b  c #0283D1",
"n  c #0383D1",
"m  c #0483D1",
"M  c #0384D1",
"N  c #0084D2",
"B  c #0284D2",
"V  c #0384D2",
"C  c #0385D2",
"Z  c #0484D1",
"A  c #0584D1",
"S  c #0485D2",
"D  c #0485D3",
"F  c #0686D3",
"G  c #0486D4",
"H  c #0885D1",
"J  c #0A86D2",
"K  c #0C87D2",
"L  c #0F88D2",
"P  c #1185D1",
"I  c #1E86D2",
"U  c #1189D2",
"Y  c #148AD3",
"T  c #148BD3",
"R  c #158BD3",
"E  c #168CD3",
"W  c #178CD3",
"Q  c #1E91D5",
"!  c #2387D2",
"~  c #2F89D2",
"^  c #338AD3",
"/  c #368BD3",
"(  c #398CD3",
")  c #3B8CD3",
"_  c #2193D5",
"`  c #2696D6",
"'  c #2A9AD8",
"]  c #2B9BD8",
"[  c #31A1DA",
"{  c #30A2DB",
"}  c #35A6DB",
"|  c #36A7DB",
" . c #32A3DC",
".. c #37A8DC",
"X. c #3BADDE",
"o. c #3DAFDE",
"O. c #3FB2DF",
"+. c #3EB1E1",
"@. c #438FD4",
"#. c #4790D4",
"$. c #5494D5",
"%. c #5A97D6",
"&. c #629AD7",
"*. c #40A5C7",
"=. c #46AFC0",
"-. c #46AFC1",
";. c #47ACC3",
":. c #40A6C8",
">. c #46BAC1",
",. c #48BAC7",
"<. c #4AB2CA",
"1. c #49B6C8",
"2. c #4BB4CC",
"3. c #4AB8CB",
"4. c #4DBFD2",
"5. c #4EBBD4",
"6. c #45B6DC",
"7. c #46B7DC",
"8. c #48BBDE",
"9. c #49BBDF",
"0. c #71A1D9",
"q. c #74A2DA",
"w. c #78A5DB",
"e. c #7EA8DC",
"r. c #40B4E0",
"t. c #41B4E0",
"y. c #41B5E1",
"u. c #42B6E1",
"i. c #43B7E1",
"p. c #44B8E1",
"a. c #44B8E3",
"s. c #45BAE3",
"d. c #48BDE3",
"f. c #48BDE4",
"g. c #48BEE4",
"h. c #49BEE4",
"j. c #4BC0CD",
"k. c #4BC0CE",
"l. c #4AC4CC",
"z. c #4BC6CE",
"x. c #4EC1D4",
"c. c #4EC7D5",
"v. c #4DCBD3",
"b. c #4EC9D6",
"n. c #4ECDD5",
"m. c #4ECED6",
"M. c #4BC1E5",
"N. c #4BC2E5",
"B. c #4BC1E6",
"V. c #4BC2E6",
"C. c #4CC2E5",
"Z. c #4CC3E6",
"A. c #4CC3E7",
"S. c #4CC4E7",
"D. c #4CC4E9",
"F. c #80A9DC",
"G. c #81AADC",
"H. c #88ADDD",
"J. c #89AEDE",
"K. c #90B2DF",
"L. c #91B2DF",
"P. c #92B3DF",
"I. c #9AB8E1",
"U. c #9CB9E2",
"Y. c #A0BBE2",
"T. c #A0BCE3",
"R. c #A1BCE3",
"E. c #A4BEE3",
"W. c #A7C0E4",
"Q. c #ACC3E5",
"!. c #ADC4E6",
"~. c #B2C7E7",
"^. c #B2C8E7",
"/. c #B7CBE8",
"(. c #B8CBE9",
"). c #B9CCE9",
"_. c #BFD0EA",
"`. c #CAD8EE",
"'. c #CDDAEE",
"]. c #D0DCEF",
"[. c #D2DEF0",
"{. c #D4DFF0",
"}. c #DBE4F3",
"|. c #DDE6F4",
" X c #DEE6F4",
".X c #E1E8F5",
"XX c #E2E9F5",
"oX c #E3EAF5",
"OX c #E5EBF6",
"+X c #EBF0F8",
"@X c #ECF0F8",
"#X c #ECF1F8",
"$X c #EEF2F9",
"%X c #EFF3F9",
"&X c #F0F4FA",
"*X c #F1F5FA",
"=X c #F2F5FA",
"-X c #F4F6FB",
";X c #F7F9FC",
":X c #F9FBFD",
">X c #FAFBFD",
",X c #FDFEFE",
"<X c #FEFEFF",
"1X c white",
/* pixels */
"n.n.z.  * * * * * * * * * * * * * * * * * * * * * * * * * * * * * * * * * * * * * * * * * * * * & & & & & & & & & & & & & & & & & & & & & & & & & & & & & & & & & & & & & & & % % % % % % % %   3.x.x.x.",
"n.v.l.# 1 1 1 1 1 1 1 1 1 1 1 1 1 1 1 1 1 1 1 1 1 1 1 1 > = = = < 1 1 1 1 1 1 : = = = = - 2 1 1 , = = = = = = = = = = = = = = = = = = = = = = = = = = = = = = = = = = = = = = = = = = = = = = + 1.4.x.x.",
"m.  6 D.A.A.A.A.A.A.A.A.A.A.A.A.A.A.A.A.A.A.A.A.A.A.A.A. .D D N B.A.A.A.A.A.A.{ D D D D F S.A.A.+.D D D D D D D D D D D D D D D D D D D D D D D D D D D D D D D D D D D D D D D D D D D D D D G 7   x.x.",
">.e s a.i.i.i.i.i.i.i.i.i.i.i.i.i.i.i.i.i.i.i.i.i.i.r.X.` Z Z c y.i.i.i.i.i.i.] Z Z Z Z A p.i.i...Z Z Z Z Z Z Z Z Z Z Z Z Z Z Z Z Z Z Z Z Z Z Z Z Z Z Z Z Z Z Z Z Z Z Z Z Z Z Z Z Z K _ _ _ U S r w =.-.",
"  A.g.z M M M M M M M M M M M M M M M M M M M Z Z A A A A A A A A A Z Z M M M Z Z Z Z Z Z M M M M Z Z Z Z Z Z Z Z Z Z Z Z Z Z Z Z Z Z Z Z Z Z Z Z Z Z Z Z Z Z Z Z Z Z Z Z Z Z Z Z Z Q N.M.M.' Z Z D   3 ",
"  V.f.x Z Z Z Z Z Z Z Z Z Z Z Z Z Z Z Z Z A A A A A A A A A A A A A A A A A Z Z Z Z Z Z Z Z Z Z Z Z Z Z Z Z Z Z Z Z Z Z Z Z Z Z Z A A A A Z Z Z Z Z Z Z Z Z Z Z Z Z Z Z Z Z Z Z Z Z T } O.M.o.| L D . 5 ",
"  V.f.x Z Z Z Z Z Z Z Z Z Z Z Z Z Z Z Z A A A A A A A A A A A A A A A A A A A A A A A Z Z Z Z Z Z Z Z Z Z Z Z Z Z Z Z Z Z Z A A A A A A A A A A Z Z Z Z Z Z Z Z Z Z Z Z Z Z Z Z Z Z Z Z [ M.M.C.E D . 5 ",
"  V.f.x Z Z Z Z Z Z Z Z Z Z Z Z Z Z Z A A A A A A A A A A A A A A A A A A A A A A A A A A A A A Z Z Z Z Z Z Z Z Z Z Z Z A A A A A A A A A A A A A A Z Z Z Z Z Z Z Z Z Z Z Z Z Z Z Z Z Z Y _ t.C.E D . 5 ",
"  V.f.x Z Z Z Z Z Z Z Z Z Z Z Z Z Z A A A A A A A A A A A A A A A A A A A A A A A A A A A A A A A m n v v n n n m m A A A A A A A A A A A A A A A A A Z Z Z Z Z Z Z Z Z Z Z Z Z Z Z Z Z Z Z O.Z.E D . 5 ",
"  V.f.x Z Z Z Z Z Z Z Z Z Z Z Z Z A A A A A A A A A A A A A A A A A A A A A A A A A A A A A A A A A A A A A A A A A A A A A A A A A A A A A A A A A A A Z Z Z Z Z Z Z Z Z Z Z Z Z Z Z Z Z Z H J A D . 5 ",
"  V.f.x Z Z Z Z Z Z Z Z Z Z Z Z Z A A A A A A A A A A A A A A A A A A A A A A A A A A A A A A A A A A A A A A A A A A A A A A A A A A A A A A A A A A A A Z Z Z Z Z Z Z Z Z Z Z Z Z Z Z Z Z Z Z Z D . 5 ",
"  V.f.x Z Z Z Z Z Z Z Z @.-X,X,X,XR.A A A E.,X,X,X(.A A A A A A A A A A A A A A A A A A A A A A A A A A A A A A A A A A A A A A A A A A A A A A A A A A A A Z Z Z Z Z Z Z Z Z Z Z Z Z Z Z Z Z Z Z D . 5 ",
"  s.u.c Z Z Z Z Z Z Z Z Z Q.1X1X1X&X~ A ! %X1X1X=X/ A A A A A A A A A A A A A A A A A A A A A A A A A A A A A A A A A A A A A A A A A A A A A A A A A A A A Z Z Z Z Z Z Z Z Z Z Z Z Z Z Z Z Z Z Z D . 5 ",
"  B b Z Z Z Z Z Z Z Z Z Z I @X1X1X1X^.A W.1X1X1XY.A A A A A A A A A H.K.K.0.A A A A A A A A A A A A A A A A A A A A A A A A A A A A A A A A A A A A A A A A A Z Z Z Z Z Z Z Z Z Z Z Z Z Z Z Z Z Z D . 5 ",
"  S Z Z Z Z Z Z Z Z Z Z Z Z P.1X1X1X;X$.&X1X1XOXP A A A A A A A A A &X1X1X`.A A A A A A A A A A A A A A A A A A A A A A A A A A A A A A A A A A A A A A A A A Z Z Z Z Z Z Z Z Z Z Z Z Z Z Z Z Z Z D . 5 ",
"  S Z Z Z Z Z Z Z Z Z Z Z Z Z |.1X1X1X#X1X1X1XG.A A A A A A A A A A &X1X1X`.A A A A A A A A A A A A A A A A A A A A A A A A A A A A A A A A A A A A A A A A A Z Z Z Z Z Z Z Z Z Z Z Z Z Z Z Z Z Z D . 5 ",
"  S Z Z Z Z Z Z Z Z Z Z Z Z Z q.<X1X1X1X1X1X[.A A A A A A A A A A A oX&X&X_.A A A A A A A A A A A A A A A A A A A A A A A A A A A A A A A A A A A A A A A A A Z Z Z Z Z Z Z Z Z Z Z Z Z Z Z Z Z Z D . 5 ",
"  S Z Z Z Z Z Z Z Z Z Z Z Z Z Z '.1X1X1X1X1X&.A A A A A A A A A A A A A A A A A A A A A A A A A A A A A A A A A A A A A A A A A A A A A A A A A A A A A A A A Z Z Z Z Z Z Z Z Z Z Z Z Z Z Z Z Z Z D . 5 ",
"  S Z Z Z Z Z Z Z Z Z Z Z Z Z Z XX1X1X1X1X1XT.A A A A A A A A A A A A A A A A A A A A A A A A A A A A A A A A A A A A A A A A A A A A A A A A A A A A A A A A Z Z Z Z Z Z Z Z Z Z Z Z Z Z Z Z Z Z D . 5 ",
"  S Z Z Z Z Z Z Z Z Z Z Z Z Z U.1X1X1X1X1X1X*X^ A A A A A A A A A A A A A A A A A A A A A A A A A A A A A A A A A A A A A A A A A A A A A A A A A A A A A A A Z Z Z Z Z Z Z Z Z Z Z Z Z Z Z Z Z Z D . 5 ",
"  S Z Z Z Z Z Z Z Z Z Z Z Z ^ &X1X1X$X+X1X1X1X/.A A A A A A A A A A A A A A A A A A A A A A A A A A A A A A A A A A A A A A A A A A A A A A A A A A A A A A A Z Z Z Z Z Z Z Z Z Z Z Z Z Z Z Z Z Z D . 5 ",
"  S Z Z Z Z Z Z Z Z Z Z Z Z ).1X1X1XI.L.1X1X1X:X$.A A A A A A A A A E.!.!.J.A A A A A A A A A A A A A A A A A A A A A A A A A A A A A A A A A A A A A A A A Z Z Z Z Z Z Z Z Z Z Z Z Z Z Z Z Z Z Z D . 5 ",
"  S Z Z Z Z Z Z Z Z Z Z Z %.>X1X1XoXA A  X1X1X1X`.A A A A A A A A A &X1X1X`.A A A A A A A A A A A A A A A A A A A A A A A A A A A A A A A A A A A A A A A A Z Z Z Z Z Z Z Z Z Z Z Z Z Z Z Z Z Z Z D . 4 ",
"  S Z Z Z Z Z Z Z Z Z Z Z ].1X1X1XF.A A w.<X1X1X<X0.A A A A A A A A &X1X1X`.A A A A A A A A A A A A A A A A A A A A A A A A A A A A A A A A A A A A A A A A Z Z Z Z Z Z Z Z Z Z Z Z Z Z Z Z Z Z Z D . 4 ",
"  S Z Z Z Z Z Z Z Z Z Z e.1X1X1X{.Z Z A A ].1X1X1X}.A A A A A A A A {..X.X~.A A A A A A A A A A A A A A A A A A A A A A A A A A A A A A A A A A A A A A A Z Z Z Z Z Z Z Z Z Z Z Z Z Z Z Z Z Z Z Z D . 4 ",
"  S Z Z Z Z Z Z Z Z Z Z #.&.&.&.) Z Z Z A ( &.&.&.&.A A A A A A A A A A A A A A A A A A A A A A A A A A A A A A A A A A A A A A A A A A A A A A A A A A Z Z Z Z Z Z Z Z Z Z Z Z Z Z Z Z Z Z Z Z Z D . 4 ",
"  S Z Z Z Z Z Z Z Z Z Z Z Z Z Z Z Z Z Z Z A A A A A A A A A A A A A A A A A A A A A A A A A A A A A A A A A A A A A A A A A A A A A A A A A A A A A A Z Z Z Z Z Z Z Z Z Z Z Z Z Z Z Z Z Z Z Z Z Z D . 4 ",
"  S Z Z Z Z Z Z Z Z Z Z Z Z Z Z Z Z Z Z Z Z Z A A A A A A A A A A A A A A A A A A A A A A A A A A Z Z Z Z Z Z Z Z Z Z A A A A A A A A A A A A A A A Z Z Z Z Z Z Z Z Z Z Z Z Z Z Z Z Z Z Z Z Z Z Z D . 4 ",
"  V M Z Z Z Z Z Z Z Z Z Z Z Z Z Z Z Z Z Z Z Z Z Z Z Z A A A A A A A A Z Z Z Z Z Z Z Z Z Z Z Z Z Z Z Z Z Z Z Z Z Z Z Z Z Z Z Z A A A A A A A A A Z Z Z Z Z Z Z Z Z Z Z Z Z Z Z Z Z Z Z Z Z Z Z Z M C . 4 ",
"  A.h.x Z Z Z Z Z Z Z Z Z Z Z Z Z Z Z Z Z Z Z Z Z Z Z Z Z Z Z Z Z Z Z Z Z Z Z Z Z Z Z Z Z Z Z Z Z Z Z Z Z Z Z Z Z Z Z Z Z Z Z Z Z Z Z Z Z Z Z Z Z Z Z Z Z Z Z Z Z Z Z Z Z Z Z Z Z Z Z Z Z Z Z x d.A.X 4 ",
"  8.7.R W W W W W W W W W W W W W W W W W W W W W W W W W W W W W W W W W W W W W W W W W W W W W W W W W W W W W W W W W W W W W W W W W W W W W W W W W W W W W W W W W W W W W W W W W W W R 6.9.X 4 ",
"  t f A.N.N.N.N.N.N.N.N.N.N.N.N.N.N.N.N.N.N.N.N.N.N.N.N.N.N.N.N.N.N.N.N.N.N.N.N.N.N.N.N.N.N.N.N.N.N.N.N.N.N.N.N.N.N.N.N.N.N.N.N.N.N.N.N.N.N.N.N.N.N.N.N.N.N.N.N.N.N.N.N.N.N.N.N.N.N.N.N.N.N.N.Z.h t   4 ",
"  i d :.*.*.*.*.*.*.*.*.*.*.*.*.*.*.*.*.*.*.*.*.*.*.*.*.*.*.*.*.*.*.*.*.*.*.*.*.*.*.*.*.*.*.*.*.*.*.*.*.*.*.*.*.*.*.*.*.*.*.*.*.*.*.*.*.*.*.*.*.*.*.*.*.*.*.*.*.*.*.*.*.*.*.*.*.*.*.*.*.*.*.*.:.g i   4 ",
"  i y y y y y y y y y y y y y y y y y y y y y y y y y y y y y y y y y y y y y y y y y y y y y y y y y y y y y y y y y y y y y y y y y y y y y y y y y y y y y y y y y y y y y y y y y y y y y y y i   4 ",
"l 9 0 i y y y y y y y y y y y y y y y y y y y y y y y y y y y y y y y y y y y y y y y y y y y y y y y y y y y y y y y y y y y y y y y y y y y y y y y y y y y y y y y y y y y y y y y y y y y u q 8 j k ",
"b.  o a i i i i i i i i i i i i i i i i i i i i i i i i i i i i i i i i i i i i i i i i i i i i i i i i i i i i i i i i i i i i i i i i i i i i i i i i i i i i i i i i i i i i i i i i i i i p $   5.5.",
"c.j.,.O ; ; ; ; ; ; ; ; ; ; ; ; ; ; ; ; ; ; ; ; ; ; ; ; ; ; ; ; ; ; ; ; ; ; ; ; ; ; ; ; ; ; ; ; ; ; ; ; ; ; ; ; ; ; ; ; ; ; ; ; ; ; ; ; ; ; ; ; ; ; ; ; ; ; ; ; ; ; ; ; ; ; ; ; ; ; ; ; ; ; ; @ ;.2.5.5.",
"c.c.k.                                                                                                                                                                                          <.5.5.5."
};
