/* XPM */
static char *result[] = {
/* columns rows colors chars-per-pixel */
"100 38 219 2 ",
"   c black",
".  c #000001",
"X  c #000101",
"o  c #000010",
"O  c #000011",
"+  c #000013",
"@  c #010514",
"#  c #020A17",
"$  c #020B1B",
"%  c #031416",
"&  c #031417",
"*  c #031517",
"=  c #001122",
"-  c #001222",
";  c #041722",
":  c #021824",
">  c #031824",
",  c #041B25",
"<  c #061E26",
"1  c #061F26",
"2  c #061F27",
"3  c #082227",
"4  c #09242A",
"5  c #09252A",
"6  c #0C2E3C",
"7  c #001E40",
"8  c #0E2F45",
"9  c #0F2F46",
"0  c #12374E",
"q  c #133950",
"w  c #003861",
"e  c #1F5A6C",
"r  c #014875",
"t  c #22597C",
"y  c #235B7D",
"u  c #235B7E",
"i  c #235C7E",
"p  c #245C7F",
"a  c #245D7F",
"s  c #23667B",
"d  c #266384",
"f  c #276586",
"g  c #276687",
"h  c #28698A",
"j  c #409DB2",
"k  c #419EB4",
"l  c #41A9B4",
"z  c #0082D0",
"x  c #0083D1",
"c  c #0183D1",
"v  c #0382D1",
"b  c #0283D1",
"n  c #0383D1",
"m  c #0483D1",
"M  c #0384D1",
"N  c #0084D2",
"B  c #0284D2",
"V  c #0384D2",
"C  c #0385D2",
"Z  c #0484D1",
"A  c #0584D1",
"S  c #0485D2",
"D  c #0485D3",
"F  c #0686D3",
"G  c #0486D4",
"H  c #0885D1",
"J  c #0A86D2",
"K  c #0C87D2",
"L  c #0F88D2",
"P  c #1185D1",
"I  c #1886D1",
"U  c #1E86D2",
"Y  c #1189D2",
"T  c #148AD3",
"R  c #148BD3",
"E  c #158BD3",
"W  c #168CD3",
"Q  c #178CD3",
"!  c #1E91D5",
"~  c #2387D2",
"^  c #2888D2",
"/  c #338AD3",
"(  c #398CD3",
")  c #2193D5",
"_  c #2696D6",
"`  c #2A9AD8",
"'  c #2B9BD8",
"]  c #31A1DA",
"[  c #30A2DB",
"{  c #35A6DB",
"}  c #36A7DB",
"|  c #32A3DC",
" . c #37A8DC",
".. c #3BADDE",
"X. c #3DAFDE",
"o. c #3FB2DF",
"O. c #3EB1E1",
"+. c #438FD4",
"@. c #458FD4",
"#. c #4A91D4",
"$. c #4C91D5",
"%. c #5093D5",
"&. c #5394D5",
"*. c #5996D6",
"=. c #619AD7",
"-. c #6B9ED8",
";. c #40A5C7",
":. c #46AFC0",
">. c #46AFC1",
",. c #47ACC3",
"<. c #40A6C8",
"1. c #46BAC1",
"2. c #48BAC7",
"3. c #4AB2CA",
"4. c #49B6C8",
"5. c #4BB4CC",
"6. c #4AB8CB",
"7. c #4DBFD2",
"8. c #4EBBD4",
"9. c #45B6DC",
"0. c #46B7DC",
"q. c #48BBDE",
"w. c #49BBDF",
"e. c #71A1D9",
"r. c #74A2DA",
"t. c #75A3DA",
"y. c #76A4DA",
"u. c #77A4DA",
"i. c #78A5DB",
"p. c #7AA5DB",
"a. c #40B4E0",
"s. c #41B4E0",
"d. c #41B5E1",
"f. c #42B6E1",
"g. c #43B7E1",
"h. c #44B8E1",
"j. c #44B8E3",
"k. c #45BAE3",
"l. c #48BDE3",
"z. c #48BDE4",
"x. c #48BEE4",
"c. c #49BEE4",
"v. c #4BC0CD",
"b. c #4BC0CE",
"n. c #4AC4CC",
"m. c #4BC6CE",
"M. c #4EC1D4",
"N. c #4EC7D5",
"B. c #4DCBD3",
"V. c #4EC9D6",
"C. c #4ECDD5",
"Z. c #4ECED6",
"A. c #4BC1E5",
"S. c #4BC2E5",
"D. c #4BC1E6",
"F. c #4BC2E6",
"G. c #4CC2E5",
"H. c #4CC3E6",
"J. c #4CC3E7",
"K. c #4CC4E7",
"L. c #4CC4E9",
"P. c #85ACDD",
"I. c #86ACDD",
"U. c #87ACDD",
"Y. c #87ADDD",
"T. c #89AEDE",
"R. c #8BAFDE",
"E. c #90B2DF",
"W. c #91B2DF",
"Q. c #92B3DF",
"!. c #94B4E0",
"~. c #96B5E0",
"^. c #9AB8E1",
"/. c #9CB9E2",
"(. c #9FBBE2",
"). c #A1BCE3",
"_. c #A8C1E5",
"`. c #ACC3E5",
"'. c #ADC4E6",
"]. c #B2C7E7",
"[. c #B6CAE8",
"{. c #B9CCE9",
"}. c #BBCEE9",
"|. c #BCCEEA",
" X c #BDCEEA",
".X c #BECFEA",
"XX c #BFD0EA",
"oX c #C0D1EB",
"OX c #C2D2EB",
"+X c #C4D3EC",
"@X c #C4D4EC",
"#X c #C5D4EC",
"$X c #C5D5EC",
"%X c #C7D5ED",
"&X c #CBD8EE",
"*X c #CCD9EE",
"=X c #CFDBEF",
"-X c #D0DCEF",
";X c #D2DDF0",
":X c #D5DFF1",
">X c #D9E2F2",
",X c #E7EDF7",
"<X c #E8EDF7",
"1X c #EBF0F8",
"2X c #EDF1F9",
"3X c #EEF2F9",
"4X c #F0F3FA",
"5X c #F0F4FA",
"6X c #F1F4FA",
"7X c #F1F5FA",
"8X c #F6F8FC",
"9X c #F8FAFC",
"0X c #F8FAFD",
"qX c #F9FAFD",
"wX c #FBFCFE",
"eX c #FCFDFE",
"rX c #FDFDFE",
"tX c #FEFEFF",
"yX c white",
/* pixels */
"C.C.m.  * * * * * * * * * * * * * * * * * * * * * * * * * * * * * * * * * * * * * * * * * * * * & & & & & & & & & & & & & & & & & & & & & & & & & & & & & & & & & & & & & & & % % % % % % % %   6.M.M.M.",
"C.B.n.# 1 1 1 1 1 1 1 1 1 1 1 1 1 1 1 1 1 1 1 1 1 1 1 1 > = = = < 1 1 1 1 1 1 : = = = = - 2 1 1 , = = = = = = = = = = = = = = = = = = = = = = = = = = = = = = = = = = = = = = = = = = = = = = + 4.7.M.M.",
"Z.  6 L.J.J.J.J.J.J.J.J.J.J.J.J.J.J.J.J.J.J.J.J.J.J.J.J.| D D N D.J.J.J.J.J.J.[ D D D D F K.J.J.O.D D D D D D D D D D D D D D D D D D D D D D D D D D D D D D D D D D D D D D D D D D D D D D G 7   M.M.",
"1.e s j.g.g.g.g.g.g.g.g.g.g.g.g.g.g.g.g.g.g.g.g.g.g.a..._ Z Z c d.g.g.g.g.g.g.' Z Z Z Z A h.g.g. .Z Z Z Z Z Z Z Z Z Z Z Z Z Z Z Z Z Z Z Z Z Z Z Z Z Z Z Z Z Z Z Z Z Z Z Z Z Z Z Z Z K ) ) ) Y S r w :.>.",
"  J.x.z M M M M M M M M M M M M M M M M M M M Z Z A A A A A A A A A Z Z M M M Z Z Z Z Z Z M M M M Z Z Z Z Z Z Z Z Z Z Z Z Z Z Z Z Z Z Z Z Z Z Z Z Z Z Z Z Z Z Z Z Z Z Z Z Z Z Z Z Z ! S.A.A.` Z Z D   3 ",
"  F.z.x Z Z Z Z Z Z Z Z Z Z Z Z Z Z Z Z Z A A A A A A A A A A A A A A A A A Z Z Z Z Z Z Z Z Z Z Z Z Z Z Z Z Z Z Z Z Z Z Z Z Z Z Z A A A A Z Z Z Z Z Z Z Z Z Z Z Z Z Z Z Z Z Z Z Z Z R { o.A.X.} L D . 5 ",
"  F.z.x Z Z Z Z Z Z Z Z Z Z Z Z Z Z Z Z A A A A A A A A A A A A A A A A A A A A A A A Z Z Z Z Z Z Z Z Z Z Z Z Z Z Z Z Z Z Z A A A A A A A A A A Z Z Z Z Z Z Z Z Z Z Z Z Z Z Z Z Z Z Z Z ] A.A.G.W D . 5 ",
"  F.z.x Z Z Z Z Z Z Z Z Z Z P.$X@X( Z W.$X_.A A A A A A A A A A A A A A A A A A A A A A A A A A Z Z Z Z Z Z Z Z Z Z Z Z A A A A A A A A A A A A A A Z Z Z Z Z Z Z Z Z Z Z Z Z Z Z Z Z Z T ) s.G.W D . 5 ",
"  F.z.x Z Z Z Z Z Z Z Z Z Z @.8XyX{.^ 5XyXR.A A A P U I A A A A A A A A A A A A A A A A A A A A A m n v v n n n m m A A A A A A A A A A A A A A A A A Z Z Z Z Z Z Z Z Z Z Z Z Z Z Z Z Z Z Z o.H.W D . 5 ",
"  F.z.x Z Z Z Z Z Z Z Z Z Z Z '.yXqX{.yX>XA A A A ).yX=XA A A A A A A A A A A A A A A A A A A A A A A A A A A A A A A A A A A A A A A A A A A A A A A A Z Z Z Z Z Z Z Z Z Z Z Z Z Z Z Z Z Z H J A D . 5 ",
"  F.z.x Z Z Z Z Z Z Z Z Z Z Z ~ 2XyXyXrX-.A A A A Q.,X}.A A A A A A A A A A A A A A A A A A A A A A A A A A A A A A A A A A A A A A A A A A A A A A A A A Z Z Z Z Z Z Z Z Z Z Z Z Z Z Z Z Z Z Z Z D . 5 ",
"  F.z.x Z Z Z Z Z Z Z Z Z Z Z Z oXyXyX1XA A A A A A A A A A A A A A A A A A A A A A A A A A A A A A A A A A A A A A A A A A A A A A A A A A A A A A A A A A Z Z Z Z Z Z Z Z Z Z Z Z Z Z Z Z Z Z Z D . 5 ",
"  k.f.c Z Z Z Z Z Z Z Z Z Z Z &.qXrXeXyX(.A A A A A A A A A A A A A A A A A A A A A A A A A A A A A A A A A A A A A A A A A A A A A A A A A A A A A A A A A Z Z Z Z Z Z Z Z Z Z Z Z Z Z Z Z Z Z Z D . 5 ",
"  B b Z Z Z Z Z Z Z Z Z Z Z Z *XyX%X#XyX6X/ A A A u..X^.A A A A A A A A A A A A A A A A A A A A A A A A A A A A A A A A A A A A A A A A A A A A A A A A A A A Z Z Z Z Z Z Z Z Z Z Z Z Z Z Z Z Z Z D . 5 ",
"  S Z Z Z Z Z Z Z Z Z Z Z Z u.tX0X%.$.9XyX[.A A A ).yX=XA A A A A A A A A A A A A A A A A A A A A A A A A A A A A A A A A A A A A A A A A A A A A A A A A A A Z Z Z Z Z Z Z Z Z Z Z Z Z Z Z Z Z Z D . 5 ",
"  S Z Z Z Z Z Z Z Z Z Z Z Z ~.}.~.A A !.}.].A A A *.E.r.A A A A A A A A A A A A A A A A A A A A A A A A A A A A A A A A A A A A A A A A A A A A A A A A A A A Z Z Z Z Z Z Z Z Z Z Z Z Z Z Z Z Z Z D . 5 ",
"  S Z Z Z Z Z Z Z Z Z Z Z Z Z A A A A A A A A A A A A A A A A A A A A A A A A A A A A A A A A A A A A A A A A A A A A A A A A A A A A A A A A A A A A A A A A Z Z Z Z Z Z Z Z Z Z Z Z Z Z Z Z Z Z D . 5 ",
"  S Z Z Z Z Z Z Z Z Z Z Z Z Z Z A A A A A A A A A A A A A A A A A A A A A A A A A A A A A A A A A A A A A A A A A A A A A A A A A A A A A A A A A A A A A A A Z Z Z Z Z Z Z Z Z Z Z Z Z Z Z Z Z Z D . 5 ",
"  S Z Z Z Z Z Z Z Z Z Z Z Z Z Z A A A A A A A A A A A A A A A A A A A A A A A A A A A A A A A A A A A A A A A A A A A A A A A A A A A A A A A A A A A A A A A Z Z Z Z Z Z Z Z Z Z Z Z Z Z Z Z Z Z D . 5 ",
"  S Z Z Z Z Z Z Z Z Z Z Z Z Z Z A A A A A A A A A A A A A A A A A A A A A A A A A A A A A A A A A A A A A A A A A A A A A A A A A A A A A A A A A A A A A A A Z Z Z Z Z Z Z Z Z Z Z Z Z Z Z Z Z Z D . 5 ",
"  S Z Z Z Z Z Z Z Z Z Z Z Z Z Z U.+X;X X=.A A A A A A A A A A A A A A A A A A A A A A A A A A A A A A A A A A A A A A A A A A A A A A A A A A A A A A A A A A Z Z Z Z Z Z Z Z Z Z Z Z Z Z Z Z Z Z D . 5 ",
"  S Z Z Z Z Z Z Z Z Z Z Z Z Z |.yXyXtXyXwXT.A A A A P U I A A A A A A A A A A A A A A A A A A A A A A A A A A A A A A A A A A A A A A A A A A A A A A A A A Z Z Z Z Z Z Z Z Z Z Z Z Z Z Z Z Z Z Z D . 5 ",
"  S Z Z Z Z Z Z Z Z Z Z Z Z t.tXyX!.^ -XyX3XA A A A ).yX=XA A A A A A A A A A A A A A A A A A A A A A A A A A A A A A A A A A A A A A A A A A A A A A A A A Z Z Z Z Z Z Z Z Z Z Z Z Z Z Z Z Z Z Z D . 4 ",
"  S Z Z Z Z Z Z Z Z Z Z Z Z `.yX4XZ A P.yXyX%.A A A Q.,X}.A A A A A A A A A A A A A A A A A A A A A A A A A A A A A A A A A A A A A A A A A A A A A A A A A Z Z Z Z Z Z Z Z Z Z Z Z Z Z Z Z Z Z Z D . 4 ",
"  S Z Z Z Z Z Z Z Z Z Z Z Z OXyX<XZ Z e.yXyXp.A A A A A A A A A A A A A A A A A A A A A A A A A A A A A A A A A A A A A A A A A A A A A A A A A A A A A A Z Z Z Z Z Z Z Z Z Z Z Z Z Z Z Z Z Z Z Z D . 4 ",
"  S Z Z Z Z Z Z Z Z Z Z Z Z '.yX7XZ Z Y.yXyX@.A A A A A A A A A A A A A A A A A A A A A A A A A A A A A A A A A A A A A A A A A A A A A A A A A A A A A Z Z Z Z Z Z Z Z Z Z Z Z Z Z Z Z Z Z Z Z Z D . 4 ",
"  S Z Z Z Z Z Z Z Z Z Z Z Z i.yXyX/.+.:XyX,XA A A A u..X^.A A A A A A A A A A A A A A A A A A A A A A A A A A A A A A A A A A A A A A A A A A A A A A Z Z Z Z Z Z Z Z Z Z Z Z Z Z Z Z Z Z Z Z Z Z D . 4 ",
"  S Z Z Z Z Z Z Z Z Z Z Z Z Z oXyXyXyXyX8Xy.Z A A A ).yX=XA A A A A A A A A A A A A A A A A A A A Z Z Z Z Z Z Z Z Z Z A A A A A A A A A A A A A A A Z Z Z Z Z Z Z Z Z Z Z Z Z Z Z Z Z Z Z Z Z Z Z D . 4 ",
"  V M Z Z Z Z Z Z Z Z Z Z Z Z Z I.XX&X].#.Z Z Z Z Z *.E.r.A A A A A A Z Z Z Z Z Z Z Z Z Z Z Z Z Z Z Z Z Z Z Z Z Z Z Z Z Z Z Z A A A A A A A A A Z Z Z Z Z Z Z Z Z Z Z Z Z Z Z Z Z Z Z Z Z Z Z Z M C . 4 ",
"  J.c.x Z Z Z Z Z Z Z Z Z Z Z Z Z Z Z Z Z Z Z Z Z Z Z Z Z Z Z Z Z Z Z Z Z Z Z Z Z Z Z Z Z Z Z Z Z Z Z Z Z Z Z Z Z Z Z Z Z Z Z Z Z Z Z Z Z Z Z Z Z Z Z Z Z Z Z Z Z Z Z Z Z Z Z Z Z Z Z Z Z Z Z x l.J.X 4 ",
"  q.0.E Q Q Q Q Q Q Q Q Q Q Q Q Q Q Q Q Q Q Q Q Q Q Q Q Q Q Q Q Q Q Q Q Q Q Q Q Q Q Q Q Q Q Q Q Q Q Q Q Q Q Q Q Q Q Q Q Q Q Q Q Q Q Q Q Q Q Q Q Q Q Q Q Q Q Q Q Q Q Q Q Q Q Q Q Q Q Q Q Q Q Q E 9.w.X 4 ",
"  t f J.S.S.S.S.S.S.S.S.S.S.S.S.S.S.S.S.S.S.S.S.S.S.S.S.S.S.S.S.S.S.S.S.S.S.S.S.S.S.S.S.S.S.S.S.S.S.S.S.S.S.S.S.S.S.S.S.S.S.S.S.S.S.S.S.S.S.S.S.S.S.S.S.S.S.S.S.S.S.S.S.S.S.S.S.S.S.S.S.S.S.S.H.h t   4 ",
"  i d <.;.;.;.;.;.;.;.;.;.;.;.;.;.;.;.;.;.;.;.;.;.;.;.;.;.;.;.;.;.;.;.;.;.;.;.;.;.;.;.;.;.;.;.;.;.;.;.;.;.;.;.;.;.;.;.;.;.;.;.;.;.;.;.;.;.;.;.;.;.;.;.;.;.;.;.;.;.;.;.;.;.;.;.;.;.;.;.;.;.;.;.<.g i   4 ",
"  i y y y y y y y y y y y y y y y y y y y y y y y y y y y y y y y y y y y y y y y y y y y y y y y y y y y y y y y y y y y y y y y y y y y y y y y y y y y y y y y y y y y y y y y y y y y y y y y i   4 ",
"l 9 0 i y y y y y y y y y y y y y y y y y y y y y y y y y y y y y y y y y y y y y y y y y y y y y y y y y y y y y y y y y y y y y y y y y y y y y y y y y y y y y y y y y y y y y y y y y y y u q 8 j k ",
"V.  o a i i i i i i i i i i i i i i i i i i i i i i i i i i i i i i i i i i i i i i i i i i i i i i i i i i i i i i i i i i i i i i i i i i i i i i i i i i i i i i i i i i i i i i i i i i i p $   8.8.",
"N.v.2.O ; ; ; ; ; ; ; ; ; ; ; ; ; ; ; ; ; ; ; ; ; ; ; ; ; ; ; ; ; ; ; ; ; ; ; ; ; ; ; ; ; ; ; ; ; ; ; ; ; ; ; ; ; ; ; ; ; ; ; ; ; ; ; ; ; ; ; ; ; ; ; ; ; ; ; ; ; ; ; ; ; ; ; ; ; ; ; ; ; ; ; @ ,.5.8.8.",
"N.N.b.                                                                                                                                                                                          3.8.8.8."
};
