/* XPM */
static char *result[] = {
/* columns rows colors chars-per-pixel */
"100 38 104 2 ",
"   c #000000",
".  c #000310",
"X  c #041722",
"o  c #001A31",
"O  c #123546",
"+  c #143845",
"@  c #11354B",
"#  c #143C51",
"$  c #013D64",
"%  c #1B4A67",
"&  c #144E69",
"*  c #1F5C6E",
"=  c #235C7E",
"-  c #2C737F",
";  c #015285",
":  c #0A5786",
">  c #015F99",
",  c #02629D",
"<  c #266485",
"1  c #206A8C",
"2  c #2C7080",
"3  c #2B7390",
"4  c #2D7A92",
"5  c #348397",
"6  c #37839B",
"7  c #378C9A",
"8  c #3988A2",
"9  c #3487A8",
"0  c #358BA9",
"q  c #3E9CAC",
"w  c #3DA0BF",
"e  c #4194B4",
"r  c #409DB2",
"t  c #439FBC",
"y  c #0484D1",
"u  c #0C87D2",
"i  c #0F88D2",
"p  c #1185D1",
"a  c #1D86D2",
"s  c #178CD3",
"d  c #1F92D5",
"f  c #359ECC",
"g  c #2387D2",
"h  c #2A88D2",
"j  c #358BD3",
"k  c #3C8DD3",
"l  c #2395D6",
"z  c #2D9ED9",
"x  c #34A0D3",
"c  c #35A6DB",
"v  c #39AADD",
"b  c #448FD4",
"n  c #4B91D4",
"m  c #5595D6",
"M  c #5A97D6",
"N  c #5E98D7",
"B  c #629AD7",
"V  c #659CD8",
"C  c #6B9ED9",
"Z  c #48A4C7",
"A  c #46AEC0",
"S  c #41A7C9",
"D  c #4BB2CE",
"F  c #4BBACD",
"G  c #4DAED3",
"H  c #4DB5D3",
"J  c #4EBBD3",
"K  c #6FA0D9",
"L  c #74A3DA",
"P  c #7AA6DB",
"I  c #7EA8DC",
"U  c #42B5E0",
"Y  c #46BAE2",
"T  c #4ABFE5",
"R  c #4EC0D4",
"E  c #4BC1E5",
"W  c #84ABDD",
"Q  c #89AEDE",
"!  c #8DB1DF",
"~  c #96B5E0",
"^  c #99B7E1",
"/  c #9BB9E1",
"(  c #A3BDE4",
")  c #A7C0E4",
"_  c #ACC3E5",
"`  c #B0C6E7",
"'  c #B3C8E7",
"]  c #B6CAE8",
"[  c #BBCEE9",
"{  c #BFD0EA",
"}  c #C4D4EC",
"|  c #C9D7ED",
" . c #CCD9EE",
".. c #D0DCEF",
"X. c #D2DEF0",
"o. c #D6E0F1",
"O. c #DCE5F3",
"+. c #E2E9F5",
"@. c #E8EEF7",
"#. c #EAEFF8",
"$. c #EDF2F9",
"%. c #F3F6FB",
"&. c #F6F8FC",
"*. c #FFFFFF",
/* pixels */
"R R R R R R R R R J R R J R R R R J R R J R R J R J R J J J J J J J J J J J J J J J J J J J J J J J J J J J J J H J J H J J J H J H J J H J J H H J H H J H H J H H H H H H H H H H H H H H H H H H H H ",
"R R R J R J J R R J R J J R J F J J J J J J J J J J J J J J J J J J J J J J J J J J H J J H H J H J H H H J H J H H H J H H J H H H H H H H H H H H H H H H H H H H H H H H H H H H H G H H H H H G H H ",
"R R R -                                                                                                                                                                                         G H H G ",
"R F A 5 * * * * * * * * * * * * * * * * * * * * * * * * * $ $ $ & * * * * * * * $ $ $ $ $ * * * * $ $ $ $ $ $ $ $ $ $ $ $ $ $ $ $ $ $ $ $ $ $ $ $ $ $ $ $ $ $ $ $ $ $ $ $ $ $ $ $ $ $ & $ $ $ $ t Z H H ",
"R q   w E E E E E E E E E E E E E E E E E E E E E E E E T y y y c E E T E E E T y y y y y Y E E E y y y y y y y y y y y y y y y y y y y y y y y y y y y y y y y y y y y y y y y y y y y y y y y o   H H ",
"7 7 0 f c c c c c c c c c c c v c c c c c c c c c v c c c y y y l c c c c c c c y y y y y c c c c y y y y y y y y y y y y y y y y y y y y y y y y y y y y y y y y y y y y y y y y y s c c c d y , > 6 8 ",
"  4 E z y y y y y y y y y y y y y y y y y y y y y y y y y y y y y y y y y y y y y y y y y y y y y y y y y y y y y y y y y y y y y y y y y y y y y y y y y y y y y y y y y y y y y y d E E E l y y y   + ",
"  4 E z y y y y y y y y y y y y y y y y y y y y y y y y y y y y y y y y y y y y y y y y y y y y y y y y y y y y y y y y y y y y y y y y y y y y y y y y y y y y y y y y y y y y y y u d v E Y Y u y   + ",
"  4 E l y y y y y y y y y y y y y y y y y y B } } } } / g y B } | a y y y y n } } Q y y _ } ) y y ( } I V } } } } } P V } } } } ( h y y y y y y y y y y y y y y y y y y y y y y y y y y v E E E p y   + ",
"  4 E z y y y y y y y y y y y y y y y y y y W *.*.*.*.*.+.a W *.*.a y y y y _ *.*.+.y y ! *.*.M m *.&.b W *.*.*.*.*.^ W *.*.*.*.*.+.p y y y y y y y y y y y y y y y y y y y y y y y y y y y U E i y   + ",
"  4 E z y y y y y y y y y y y y y y y y y y W *.*.g ^ *.*.P W *.*.a y y y y +.*.*.*.M y y +.*.} } *.' y W *.*.b b b h W *.*.y ~ *.*.V y y y y y y y y y y y y y y y y y y y y y y y y y y y v E i y   + ",
"  4 E z y y y y y y y y y y y y y y y y y y W *.*.a V *.*.W W *.*.g y y y N *.+.+.*.` y y W *.*.&.%.j y W *.*._ _ Q y W *.*.y L *.*.n y y y y y y y y y y y y y y y y y y y y y y y y y y y y y y y   + ",
"  4 E z y y y y y y y y y y y y y y y y y y W *.*...%.*.$.k W *.*.a y y y ' *._ ` *.@.y y y o.*.*._ y y W *.*.*.*.| y W *.*.@.&.*.] y y y y y y y y y y y y y y y y y y y y y y y y y y y y y y y y   # ",
"  4 E z y y y y y y y y y y y y y y y y y y W *.*.@.+. .V y W *.*.a y y y @.*.....*.*.V y y ~ *.*.h y y W *.*.L L B y W *.*. .*.*.V y y y y u y y y y y y y y y y y y y y y y y y y y y y y y y y y   + ",
"  1 v d y y y y y y y y y y y y y y y y y y W *.*.a y y y y W *.*.B N N L *.*.%.%.*.*.] y y Q *.*.y y y W *.*.N N N k W *.*.a o.*...y u y y y y y y y y y y y y y y y y y y y y y y y y y y y y y y   + ",
"  ; y y y y y y y y y y y y y y y y y y y y W *.*.g y y y y W *.*.*.*.*.| *.[ y y ] *.@.y y ! *.*.y y y W *.*.*.*.*.` W *.*.a P *.*.K y y y y y y y y y y y y y y y y y y y y y y y y y y y y y y y   + ",
"  ; y y y y y y y y y y y y y y y y y y y y N [ [ p y y y y B [ [ [ [ } ( } V y y N ] } k y V [ [ y y y B [ [ } ] [ W B ] [ p y ( } ! y y y y u y y y y y y y y y y y y y y y y y y y y y y y y y y   + ",
"  ; y y y y y y y y y y y y y y y y y y y y y y u y y y y y y y y y y y y y y y y y y y y y y y y y y y y y y y y y u y y y y y y y y y y y y y y y y y y y y y y y y y y y y y y y y y y y y y y y   + ",
"  ; y y y y y y y y y y y y y y y y y y y y y y y y y y y y y y y y y y y u y y y y y y y y y y y y y y y y y y y y y y y y y y y u y y y y y y y y y y y y y y y y y y y y y y y y y y y y y y y y   + ",
"  ; y y y y y y y y y y y y y y y y y y y y y y y y y y y u y y y y y y y y y y y y y y y y y y y y y y y y y y y y y y u y y y y y y y u y y y y y y u y y y y y y y y y y y y y y y y y y y y y y   + ",
"  ; y y y y y y y y y y y y y y y y y y y y y y y y y y y y y y y y y y y y y y y y y y y y y y u y y y y y y y y y y y y y y y y y y y y y y y y y y y y y y y y y y y y y y y y y y y y y y y y y   + ",
"  ; y y y y y y y y y y y _ } / y y m } { y I } ..| ^ y y y y C } } } } ( h y y y n | | ! y y C } | P y M | _ y V } } } [ ~ a y y y W } X.[ B y y V } } ] y y P } } _ y y y y y y y y y y y y y y y   + ",
"  ; y y y y y y y y y y y ' *.@.y y _ *...I *.*.*.*.@.y y y y W *.*.&.*.*.+.p y y ( *.*.O.y y W *.*.@.p L *.+.y W *.*.*.*.*.@.b y [ *.*.*.*.*.Q y W &.*.*.N y } *.*.O.y y y y y y y y y y y y y y y   + ",
"  ; y y y y y y y y y y y N *.*.B y o.*.~ } *.X.h b P y y y y W *.&.y ^ *.*.V y y +.*.*.*.N y W *.*.*.( K *.+.y W *.*.b W %.*.[ L *.*.~ h ..*.$.p W *.*.*.( y %.*.*.+.y y y y y y y y y y y y y y y   + ",
"  ; y y y y y y y y y y y y +.*._ k *.&.h [ *.&.X.( j y y y y W *.*.y L *.*.n y N *.O.+.*.` y W *.%.*.%.W *.+.y W *.*.a y  .*.+._ *.%.y y W *.*.n W *.$.*.o.K *.@.*.+.y y y y y y y y y y y y y y y   # ",
"  ; y y y y y y y y y y y y _ *.+./ *. .y C $.*.*.*.@.g y y y Q *.*.@.*.*.[ y y ' *._ ' *.@.y W *.o.o.*.O.*.+.y W *.*.g y [ *.#.} *.@.y y K *.*.P W *...%.*.{ *.} *.+.y y y y y y y y y y y y y y y   O ",
"  ; y y y y y y y y y y y y M *.*.O.*.! y y a ~  .*.*.L y y y W *.*.| *.*.V y y @.*...X.*.*.V W *.o.V *.*.*.O.y W *.*.a y  .*.O._ *.%.y y Q *.*.b W *... .*.*.O.] *.O.y y y y y y y y y y y y y y y   + ",
"  ; y y y y y y y y y y y y y O.*.*.&.a y ! ! m W *.*.C y y y W *.*.a X.*...y K *.*.%.%.&.*.] W *.o.y } *.*.+.y W *.*.N Q &.*.] L *.*./ b X.*.@.y W *. .~ *.*.` ] *.+.y y y y y y y y y y y y y y y   + ",
"  ; y y y y y y y y y y y y y ) *.*. .y y  .*.*.*.*.O.p y y y W *.*.g L *.*.K { *.[ y y ] *.$.W *.o.y b %.*.O.y W *.*.*.*.*.O.h y { *.*.*.*.&.L y W *. .k *.*.K ] *.O.y y y y y y y y y y y y y y y   + ",
"  ; y y y y y y y y y y y y y n [ [ K y y C ] |  ._ j y y y y B [ [ p y _ ] ! ( [ B y y M [ [ C [ / y y ! [ ) y N [ [ [ _ W y y y y W }  .' n y y B [ ^ y ) ' y W [ ( y y y y y y y y y y y y y y y   + ",
"  : s u y y y y y y y y y y y y y y y y y y y y y y y y y y y y y y y y y y u y y y y y y y y y y y y y y y y y y y y y y y y y y y y y y y y y y y y y y y y y y y y y y y y y y y y y y y y y s s   + ",
"  4 E z y y y y y y y y y y y y y y y y y y y y y y y y y y y y y y y y y y y y y y y y y y y y y y y y y y y y y y y y y y y y y y y y y y y y y y y y y y y y y y y y y y y y y y y y y y y y T E   + ",
"  < S x z z z z z z z z z z z z z z z z z z z z z z z z z c z z z z z z z z z z z z z z z z z z z z z z z z z z z z z z z z z z z z z z z z z z z z z z z z z z z z z z z z z z z z z z z z c z S S   + ",
"  @ = S E E E E E E E E E E E E E E E E E E E E E E E E T E E E E E E E E E E E E E E E E E E E E E E E E E E E E E E E E E E E E E E E E E E E E E E E E E E E E E E E E E E E E E E E E E E E < =   + ",
"r 5 O 3 9 9 9 9 9 9 9 9 9 9 9 9 9 9 9 9 9 9 9 9 9 9 9 9 9 9 9 9 9 9 9 9 9 9 9 9 9 9 9 9 9 9 9 9 9 9 9 9 9 9 9 9 9 9 9 9 9 9 9 9 9 9 9 9 9 9 9 9 9 9 9 9 9 9 9 9 9 9 9 9 9 9 9 9 9 9 9 9 9 9 9 9 # O e e ",
"J q   % = = = = = = = = = = = = = = = = = = = = = = = = = = = = = = = = = = = = = = = = = = = = = = = = = = = = = = = = = = = = = = = = = = = = = = = = = = = = = = = = = = = = = = = = = = = =     G G ",
"J H D 2 X X X X X X X X X X X X X X X X X X X X X X X X X X X X X X X X X X X X X X X X X X X X X X X X X X X X X X X X X X X X X X X X X X X X X X X X X X X X X X X X X X X X X X X X X X X . Z Z G G ",
"J J J 2                                                                                                                                                                                         G G G G "
};
