/* XPM */
static char *result[] = {
/* columns rows colors chars-per-pixel */
"100 38 97 2 ",
"   c #000000",
".  c #000112",
"X  c #020A17",
"o  c #020B1B",
"O  c #031417",
"+  c #031522",
"@  c #061E26",
"#  c #082227",
"$  c #09252A",
"%  c #0C2E3C",
"&  c #0F2F46",
"*  c #12374E",
"=  c #133950",
"-  c #003861",
";  c #1F5A6C",
":  c #014875",
">  c #235B7D",
",  c #23667B",
"<  c #276586",
"1  c #28698A",
"2  c #419EB3",
"3  c #41A9B4",
"4  c #0484D1",
"5  c #0A86D2",
"6  c #0F88D2",
"7  c #1185D1",
"8  c #1D86D2",
"9  c #178CD3",
"0  c #1E91D5",
"q  c #2387D2",
"w  c #2A88D2",
"e  c #358BD3",
"r  c #3C8CD3",
"t  c #2294D5",
"y  c #2B9BD8",
"u  c #33A4DB",
"i  c #37A8DC",
"p  c #3CAEDE",
"a  c #3FB2DF",
"s  c #3EB1E1",
"d  c #448FD4",
"f  c #4B91D4",
"g  c #5595D6",
"h  c #5A97D6",
"j  c #5E98D7",
"k  c #629AD7",
"l  c #659CD8",
"z  c #6B9ED9",
"x  c #40A5C7",
"c  c #46AEC1",
"v  c #40A6C8",
"b  c #46BAC1",
"n  c #4AB4CA",
"m  c #4AB8CB",
"M  c #4EBCD4",
"N  c #46B7DC",
"B  c #49BBDF",
"V  c #6FA0D9",
"C  c #74A3DA",
"Z  c #7AA6DB",
"A  c #7EA8DC",
"S  c #43B7E1",
"D  c #44B9E2",
"F  c #48BDE4",
"G  c #4BC3CD",
"H  c #4EC3D4",
"J  c #4ECCD5",
"K  c #4BC2E6",
"L  c #4CC4E9",
"P  c #84ABDD",
"I  c #89AEDE",
"U  c #8DB1DF",
"Y  c #96B5E0",
"T  c #99B7E1",
"R  c #9BB9E1",
"E  c #A3BDE4",
"W  c #A7C0E4",
"Q  c #ACC3E5",
"!  c #B0C6E7",
"~  c #B3C8E7",
"^  c #B6CAE8",
"/  c #BBCEE9",
"(  c #BFD0EA",
")  c #C4D4EC",
"_  c #C9D7ED",
"`  c #CCD9EE",
"'  c #D0DCEF",
"]  c #D2DEF0",
"[  c #D6E0F1",
"{  c #DCE5F3",
"}  c #E2E9F5",
"|  c #E8EEF7",
" . c #EAEFF8",
".. c #EDF2F9",
"X. c #F3F6FB",
"o. c #F6F8FC",
"O. c #FFFFFF",
/* pixels */
"J J G   O O O O O O O O O O O O O O O O O O O O O O O O O O O O O O O O O O O O O O O O O O O O O O O O + o O O O o + O O o O O O O O O O O o O O o O O o O O o O O o O O o O O O O O o O O o   m H M H ",
"J J G X @ # # @ @ @ @ # # @ @ # @ @ @ @ @ # @ @ # @ @ # + o + + @ @ @ @ @ @ $ + + + + o + # @ @ @ + + + + + + + o + + + + + o + o o + o + + + + + + + + + + + + + + + + + + + + + + + + + o + o n H H H ",
"J   % L L K K K K L K K K L K K K K K F L K K L K L K K u 4 4 4 F L L L L K K u 4 4 4 4 4 L K K s 4 4 4 4 4 4 4 4 4 4 4 4 4 4 4 4 4 4 4 4 4 4 4 4 4 4 4 4 4 4 4 4 4 4 4 4 4 4 4 4 4 4 4 4 4 4 4 &   M H ",
"b ; , D S S S a S S S S S S S S S S N N S S S S S S S p t 4 4 4 S S S S S S S y 4 4 4 4 4 S D S u 4 4 4 4 4 4 4 4 4 4 4 4 4 4 4 4 4 4 4 4 4 4 4 4 4 4 4 4 4 4 4 4 4 4 4 4 4 4 4 4 4 5 0 0 t 6 4 : - 3 c ",
"  L F 4 4 4 4 4 4 4 4 4 4 4 4 4 4 4 4 4 4 4 4 4 4 4 4 4 4 4 4 5 4 4 4 4 4 4 4 4 4 4 4 4 4 4 4 4 4 4 4 4 4 4 4 4 4 4 4 4 4 4 4 4 4 4 4 4 4 4 4 4 4 4 4 4 4 4 4 4 4 4 4 4 4 4 4 4 4 4 0 K F F y 4 4 4   $ ",
"  K F 4 4 4 4 4 4 4 4 4 4 4 4 4 4 4 4 4 4 4 4 4 4 4 4 4 4 4 4 4 4 4 4 4 4 4 4 4 4 4 4 4 4 4 4 4 4 4 4 4 4 4 4 4 4 4 4 4 4 4 4 4 4 4 4 4 4 4 4 4 4 4 4 4 4 4 4 4 4 4 4 4 4 4 4 4 4 4 9 u N F S i 5 4   $ ",
"  K K 4 4 4 4 4 4 4 4 4 4 4 4 4 4 4 4 4 4 4 4 4 4 4 4 4 4 4 4 4 4 4 4 4 4 4 4 4 4 4 4 4 4 4 4 4 4 4 4 4 4 4 4 4 4 4 4 4 4 4 4 4 4 4 4 5 4 4 4 4 4 4 4 4 4 4 4 4 4 4 4 4 4 4 4 4 4 4 4 4 u F F K 9 4   $ ",
"  K F 4 4 4 4 4 4 4 4 4 4 4 4 4 4 4 4 4 4 4 4 z ) ) _ / E q 4 z ) ) 8 4 4 4 4 f ) ) U 4 4 E ) E 4 4 E ) A l ) ) ) ) ) C l ) ) ) ) E w 4 4 4 4 4 4 4 4 4 4 4 4 4 4 4 4 4 4 4 4 4 4 4 4 4 9 t S F 9 4   $ ",
"  K F 4 4 4 4 4 4 4 4 4 4 4 4 4 4 4 4 4 4 4 4 P O.O.O.O.O.} 8 P O.O.8 4 4 5 4 Q O.O.{ 4 4 U O.O.h g O.o.r P O.O.O.O.O.T P O.O.O.O.O.{ 7 4 4 5 4 5 4 4 4 4 4 4 4 4 4 4 4 4 4 4 4 4 4 4 4 4 4 i L 9 4   $ ",
"  K F 4 4 4 4 4 4 4 4 4 4 4 4 4 4 5 4 4 4 4 4 P O.O.q T O.O.C P O.O.q 4 4 4 4 } O.O.O.h 4 4 } O.) ) O.! 4 P O.O.d d d w P O.O.4 Y O.O.k 4 4 4 4 4 4 4 4 4 4 4 4 4 4 4 4 4 4 4 4 4 4 4 4 4 4 4 5 4 4   $ ",
"  K F 4 4 4 4 4 4 4 4 4 4 4 4 4 4 4 4 4 5 4 4 P O.O.q z O.O.P P O.O.8 4 4 4 j O.{ } O.! 4 4 P O.O.o.o.e 4 P O.O.Q Q P 4 P O.O.4 C O.O.f 4 4 4 4 4 4 4 4 4 4 4 4 4 4 4 4 4 4 4 4 4 4 4 4 4 4 4 4 4 4   $ ",
"  K N 4 4 4 4 4 4 4 4 4 4 4 4 4 4 4 4 4 4 4 4 P O.O.'  .O...e P O.O.8 4 4 4 ~ O.! ! O.} 4 4 4 { O.O.! 4 4 P O.O.O.O._ 4 P O.O.| O.O./ 4 4 4 4 4 4 4 4 4 4 4 4 4 4 4 4 4 4 4 4 4 4 4 4 4 4 4 4 4 4 4   $ ",
"  D S 4 4 4 4 4 4 4 4 4 4 4 4 4 4 4 4 4 4 4 4 P O.O. .} _ l 5 P O.O.8 4 4 4 | O.' ' O.O.k 4 4 Y O.O.w 4 4 P O.O.Z C j 4 P O.O._ O.O.l 4 4 4 4 4 4 4 4 4 4 4 4 4 4 4 4 4 4 4 4 4 4 4 4 4 4 4 4 4 4 4 . $ ",
"  4 4 4 4 4 4 4 4 4 4 4 4 4 4 4 4 4 4 5 4 4 4 P O.O.q 4 4 4 4 P O.O.k j h C O.O.o.o.O.O.^ 4 4 U O.O.4 4 4 P O.O.h j j r P O.O.8 ] O.' 4 7 4 4 4 4 5 4 4 5 4 4 4 4 4 4 4 4 4 4 4 4 4 4 4 4 4 4 4 4 4   $ ",
"  4 4 4 4 4 4 4 4 4 4 4 4 4 4 4 4 4 4 4 4 4 4 P O.O.8 4 5 4 4 P O.O.O.O.O._ O./ 4 4 ~ O. .4 4 U O.O.4 4 4 P O.O.O.O.O.! P O.O.8 C O.o.V 4 4 4 5 4 4 4 4 4 4 4 4 4 4 4 4 4 4 4 4 4 4 4 4 4 4 4 4 4 4   $ ",
"  4 4 4 4 4 4 4 4 4 4 4 4 4 4 4 5 4 4 4 4 4 4 j / ( 7 4 5 4 4 k / / / / / Q / l 4 4 j / / r 4 l / / 4 4 4 j / / / / / A k / / 7 4 W ) I 4 4 4 4 4 4 4 5 4 4 4 4 4 4 4 4 4 4 4 4 4 4 4 4 4 4 4 4 4 4   $ ",
"  4 4 4 4 4 4 4 4 4 4 4 4 4 4 4 4 4 4 4 4 4 4 4 4 4 4 4 4 5 4 4 4 5 4 4 4 4 4 4 4 4 4 4 4 4 4 5 4 4 4 5 4 4 5 4 4 4 5 4 4 4 4 4 4 4 4 4 4 4 5 4 4 4 4 4 4 4 4 4 4 4 4 4 4 4 4 4 4 4 4 4 4 4 4 4 4 4   $ ",
"  4 4 4 4 4 4 4 4 4 4 4 4 4 4 4 4 4 4 4 4 4 4 4 5 4 4 4 4 4 4 4 4 4 4 4 5 4 4 4 4 5 4 4 4 4 4 4 4 4 4 4 4 4 4 4 4 4 5 4 4 5 4 4 4 4 4 4 5 4 4 4 5 4 4 4 4 4 4 4 4 4 4 4 4 4 4 4 4 4 4 4 4 4 4 4 4 4   $ ",
"  4 4 4 4 4 4 4 4 4 4 4 4 4 4 4 4 4 4 4 5 4 4 4 4 4 4 4 4 4 4 4 4 4 4 4 5 4 4 4 4 4 4 4 4 4 4 4 5 4 4 4 4 4 4 4 5 4 4 4 4 4 4 4 4 4 4 4 4 4 4 5 4 4 4 4 4 4 4 4 4 4 4 4 4 4 4 4 4 4 4 4 4 4 4 4 4 4 . $ ",
"  4 4 4 4 4 4 4 4 4 4 4 4 4 4 4 4 4 4 4 4 4 4 4 4 4 4 4 4 4 5 4 4 4 4 5 4 4 4 4 4 4 4 4 4 4 4 4 4 4 4 4 4 4 4 4 4 4 4 4 4 4 4 4 4 4 4 4 4 4 4 4 4 4 4 4 4 4 4 4 4 4 4 4 4 4 4 4 4 4 4 4 4 4 4 4 4 4   $ ",
"  4 4 4 4 4 4 4 4 4 4 Q ) T 4 4 g ) ( 4 P ) ' _ Y 4 4 4 4 l ) ) ) ) R w 4 4 4 g _ ) I 4 4 l ) ) Z 4 h ) Q 4 k ) ) ) ^ Y 8 4 4 4 P ) ' ( k 4 4 k ) ) ^ 4 4 Z ) ) W 4 4 4 4 4 4 4 4 4 4 4 4 4 4 4 4 4   $ ",
"  4 4 4 4 4 4 4 4 4 4 ! O. .4 4 E O.' Z O.O.O.O.} 4 4 4 4 P O.O.o.O.O.} 7 4 4 E O.O.} 4 4 P O.O.} 7 V O.} 4 P O.O.O.O.O.} d 4 / O.O.O.O.O.I 4 P O.O.O.j 4 _ O.O.{ 4 4 4 4 4 4 4 4 4 4 4 4 4 4 4 4 4   $ ",
"  4 4 4 4 4 4 4 4 4 4 k O.O.l 4 { O.Y ) O.] w d C 4 4 4 4 P O.O.4 Y O.O.k 4 4 } O.O.O.h 4 P O.O.O.E C O.} 4 P O.O.f P X.O.) C O.O.Y w ' O...4 P O.O.O.Q 4 ..O.O.{ 4 4 4 4 4 4 4 4 4 4 4 4 4 4 4 4 4   $ ",
"  4 4 4 4 4 4 4 4 4 4 4 } O.Q r O.o.w ( O.o.` E e 5 4 4 4 P O.O.4 C O.O.f 4 j O.{ } O.! 4 P O.X.O.X.P O.} 4 P O.O.8 4 _ O.} E O...4 4 P O.O.g P O.| O.[ V O.| O.{ 4 4 4 4 4 4 4 4 4 4 4 4 4 4 4 4 4   $ ",
"  4 4 4 4 4 4 4 4 4 4 4 ! O.} T O.` 4 z ..O.O.O.| q 4 4 4 P O.O.| O.O.^ 4 4 ~ O.Q ! O.} 4 P O.[ [ O.{ O.} 4 P O.O.8 4 ) O. .) O. .4 4 V O.O.Z P O.' X.O./ O.) O.} 4 4 4 4 4 4 4 4 4 4 4 4 4 4 4 4 4 . $ ",
"  4 4 4 4 4 4 4 4 4 4 4 g O.O.{ O.U 4 4 8 Y ' O.O.C 4 4 4 P O.O._ O.O.z 4 4  .O.] ] O.O.l P O.[ z O.O.O.} 4 P O.O.8 4 _ O.{ Q O.X.4 4 I O.O.d P O.` _ O.O.} ~ O.} 4 4 4 4 4 4 4 4 4 4 4 4 4 4 4 4 4   $ ",
"  4 4 4 4 4 4 4 4 4 4 4 4 { O.O.o.8 4 I U h P O.O.V 4 4 4 P O.O.8 ] O.' 4 z O.O.o.X.O.O./ P O.[ 4 ) O.O.{ 4 P O.O.j I o.O.~ Z O.O.R d ' O. .4 P O.` Y O.O.Q ^ O.} 4 4 4 4 4 4 4 4 4 4 4 4 4 4 4 4 4   $ ",
"  4 4 4 4 4 4 4 4 4 4 4 4 Q O.O._ 4 4 _ O.O.O.O.} 7 4 4 4 P O.O.8 C O.O.V ( O.^ 4 4 ~ O. .P O.[ 4 d X.O.} 4 P O.O.O.O.O.{ q 4 ) O.O.O.O.o.C 4 P O.' r O.O.V ! O.} 4 4 4 4 4 4 4 4 4 4 4 4 4 4 4 4 4   $ ",
"  4 4 4 4 4 4 4 4 4 4 4 4 f ^ / V 4 4 z / _ _ Q e 4 4 4 4 j / / 7 4 Q / U Q ( k 4 4 g / / z / T 4 4 I / E 4 j / / ( Q P 4 4 4 4 P ( _ ! f 4 4 j / T 4 Q ! 4 P ( E 4 4 4 4 4 4 4 4 4 4 4 4 4 4 4 4 4   $ ",
"  L F 4 4 4 4 4 4 4 4 4 4 4 4 4 4 4 4 4 4 4 4 4 4 4 4 4 4 4 4 4 4 4 4 4 4 4 4 4 4 4 4 4 4 4 4 4 4 4 4 4 4 4 4 4 4 4 4 4 4 4 4 4 4 4 4 4 4 4 4 4 4 4 4 4 4 4 4 4 4 4 4 4 4 4 4 4 4 4 4 4 4 4 4 4 L L   $ ",
"  B N 9 9 9 9 9 9 9 9 9 9 9 9 9 9 9 9 9 9 9 9 9 9 9 9 9 9 9 9 9 9 9 9 9 9 9 9 9 9 9 9 9 9 9 9 9 9 9 9 9 9 9 9 9 9 9 9 9 9 9 9 9 9 9 9 9 9 9 9 9 9 9 9 9 9 9 9 9 9 9 9 9 9 9 7 9 9 9 9 9 9 9 q 9 N F   $ ",
"  > 1 K K K K K K K K K K H K K K K K K K K K K K K K K H K K K F H K K K K K K K K K K K K K K K H K K K K K K K K K K K K K F K K K K K K K K K K K K K K K K K K K K K K K H K K K K K K F F 1 >   $ ",
"  > < v v v v v x x x x x x x c x x x x x x x c x x x x x x x c i 3 x x x x x x v v v v v v x x x x x x x x x x x x x x x x x x c x x x x x x x x x x x x x x x x x x x x x x x c x x x x x x x 1 >   $ ",
"  > > > > > > > > > > > > > > > > > > > > > > > > > > > > > < > > > > > > > > > > > > > > > > > > > > > > > > > > > > > > > > > > > < > > > > > > > > > > > > > > > > > > > > > > > < > > > > > > >   $ ",
"3 & * > > > > > > > > > > > > > > > > > > > > > > > > > > > > > > > > > > > > > > > > > > > > > > > > > > > > > > > > > > > > > > > > > > > > > > > > > > > > > > > > > > > > > > > > > > > > > = & 2 2 ",
"J   . > > > > > > > > > > < > > > > > > > < > > > > > > > > > > < > > > > > > > > > > > > > > > > > > > > > > > > > > > > > > > > > > > > > > > > > > > > > > > > > > > > > > > > > > > > > > > o   M M ",
"H G m . + @ + + o + @ + + @ + + o + @ + + @ + + + + + @ @ + + + + @ + + o + + @ @ + + + + + @ + O + @ + + + + @ + + + @ + + @ O @ + + + + + @ + o + + @ + + + @ + + + @ + + @ O + @ + + @ + + X c n M M ",
"H J G                                                                                                                                                                                           n M M M "
};
