/* XPM */
static char *_34abfb5a56d4e4df7e51c5b0eb08dfduOoYZZhGqgGSD5nL[] = {
/* columns rows colors chars-per-pixel */
"100 38 109 2 ",
"   c #000000",
".  c #000112",
"X  c #020A17",
"o  c #020B1B",
"O  c #031417",
"+  c #031522",
"@  c #061E26",
"#  c #082227",
"$  c #09252A",
"%  c #0C2E3C",
"&  c #0F2F46",
"*  c #12374E",
"=  c #133950",
"-  c #003861",
";  c #1F5A6C",
":  c #014875",
">  c #235B7D",
",  c #23667B",
"<  c #276586",
"1  c #28698A",
"2  c #419EB3",
"3  c #41A9B4",
"4  c #0484D1",
"5  c #0A86D2",
"6  c #0F88D2",
"7  c #1185D1",
"8  c #1D86D2",
"9  c #178CD3",
"0  c #1E91D5",
"q  c #2387D2",
"w  c #2988D2",
"e  c #338AD3",
"r  c #3D8CD3",
"t  c #2294D5",
"y  c #2B9BD8",
"u  c #33A4DB",
"i  c #37A8DC",
"p  c #3CAEDE",
"a  c #3FB2DF",
"s  c #3EB1E1",
"d  c #448FD4",
"f  c #4A91D4",
"g  c #5495D6",
"h  c #5A97D6",
"j  c #5F99D7",
"k  c #629AD7",
"l  c #659CD8",
"z  c #6B9ED9",
"x  c #40A5C7",
"c  c #46AEC1",
"v  c #46BAC1",
"b  c #4AB4CA",
"n  c #4AB8CB",
"m  c #4EBCD4",
"M  c #46B7DC",
"N  c #49BBDF",
"B  c #6FA0D9",
"V  c #74A3DA",
"C  c #7AA5DB",
"Z  c #43B7E1",
"A  c #44B9E2",
"S  c #48BDE4",
"D  c #4BC3CD",
"F  c #4EC3D4",
"G  c #4ECCD5",
"H  c #4BC2E6",
"J  c #4CC4E9",
"K  c #84ABDD",
"L  c #89AEDE",
"P  c #8DB1DF",
"I  c #96B5E1",
"U  c #99B7E1",
"Y  c #9BB9E2",
"T  c #A3BEE4",
"R  c #A7C0E4",
"E  c #ACC3E5",
"W  c #B1C6E7",
"Q  c #B3C8E7",
"!  c #B6CAE8",
"~  c #BBCEE9",
"^  c #BFD0EA",
"/  c #C4D4EC",
"(  c #CCD9EE",
")  c #D0DCEF",
"_  c #D2DEF0",
"`  c #D6E0F1",
"'  c #D9E2F2",
"]  c #DCE5F3",
"[  c #DDE6F4",
"{  c #E0E8F4",
"}  c #E1E8F5",
"|  c #E2E9F5",
" . c #E3EAF5",
".. c #E5EBF6",
"X. c #E7EDF7",
"o. c #E8EDF7",
"O. c #E9EEF7",
"+. c #EAEFF8",
"@. c #EEF2F9",
"#. c #F0F3FA",
"$. c #F1F5FA",
"%. c #F3F6FB",
"&. c #F5F7FB",
"*. c #F6F8FC",
"=. c #F7F9FC",
"-. c #F9FAFD",
";. c #FBFCFD",
":. c #FDFEFE",
">. c white",
/* pixels */
"G G D   O O O O O O O O O O O O O O O O O O O O O O O O O O O o O O O O O O O O O O O O O O O O O O O O o O O o O O o O O o O O o O O O O O o O O o O O o O O o O O o O O o O O O O O o O O o   n F F F ",
"G G D X @ # # @ @ @ @ # # @ @ # @ @ @ @ @ # @ @ @ @ @ # + + + + @ @ @ @ @ @ # + + + + + + @ @ @ + + + + + + + + + + + + + + + + + + + o + + + + + + + + + + + + + + + + + + + + + + + + + o + o b m F F ",
"G   % J J H H H H J H H H J H H H H S S J H H H J S J H u 4 4 4 S J J J J H J u 4 4 4 4 4 J J J s 4 4 4 4 4 4 4 4 4 4 4 4 4 4 4 4 4 4 4 4 4 4 4 4 4 4 4 4 4 4 4 4 4 4 4 4 4 4 4 4 4 4 4 4 4 4 4 &   m F ",
"v ; , A Z Z Z a Z Z Z Z Z Z Z Z Z M A M A Z A Z Z M Z Z t 4 4 4 Z Z Z Z Z Z Z y 4 4 4 4 4 Z Z Z u 4 4 4 4 4 4 4 4 4 4 4 4 4 4 4 4 4 4 4 4 4 4 4 4 4 4 4 4 4 4 4 4 4 4 4 4 4 4 4 4 4 5 t 0 t 6 4 : - 3 c ",
"  J S 4 4 4 4 4 4 4 4 4 4 4 4 4 4 4 4 4 4 4 4 4 4 4 4 4 4 4 4 4 5 4 4 4 4 4 4 4 4 4 4 4 4 4 4 4 4 4 4 4 4 4 4 4 4 4 4 4 4 4 4 4 4 4 4 4 4 4 4 4 4 4 4 4 4 4 4 4 4 4 4 4 4 4 4 4 4 4 0 H H S y 4 4 4   $ ",
"  H S 4 4 4 4 4 4 4 4 4 4 4 4 4 4 4 4 4 4 4 4 4 4 4 4 5 4 4 4 4 4 4 4 4 4 4 4 4 4 4 4 4 4 4 4 4 4 4 4 4 4 4 4 4 4 4 4 4 4 4 4 4 4 4 4 4 4 4 4 4 4 4 4 4 4 4 4 4 4 4 4 4 4 4 4 4 4 4 9 u M S Z i 5 4   $ ",
"  H H 4 4 4 4 4 4 4 4 4 4 4 4 4 4 4 4 4 4 4 4 4 4 4 5 4 5 4 4 4 4 4 4 4 4 4 4 4 4 4 4 4 4 4 4 4 4 4 4 4 4 4 4 4 4 4 4 4 4 4 4 4 5 4 4 4 4 4 4 4 4 4 4 4 4 4 4 4 4 4 4 4 4 4 4 4 4 4 4 4 u S S S 9 4   $ ",
"  H S 4 4 4 4 4 4 4 4 4 4 4 4 4 4 4 4 4 4 4 4 l / / / ~ T w 4 4 4 f / / P 4 4 k / / C 4 g / E 4 l / / / ! I 9 4 4 4 K / _ ~ j 4 4 l / / ~ 4 4 V / / E 4 4 4 4 4 4 4 4 4 4 4 4 4 4 4 4 4 6 t M J 9 4   $ ",
"  H S 4 4 4 4 4 4 4 4 4 4 4 4 4 4 4 4 4 4 4 4 K >.>.>.;.>.[ 7 4 4 E >.>.[ 4 4 K >.>.X.7 V >.} 4 K >.>.>.>.>...r 4 ~ >.>.>.>.=.L 4 K >.>.>.h 4 ( >.>.{ 4 4 4 4 4 4 4 4 4 4 4 4 4 4 4 4 4 4 4 p S 9 4   $ ",
"  H S 4 4 4 4 4 4 4 4 4 4 4 4 4 4 4 4 4 4 5 5 K >.;.4 U ;.>.k 4 5 | >.>.>.h 4 K >.>.>.T V >.} 4 K >.>.d K *.>./ V >.>.I w ) >.+.4 K >.>.>.E 4 @.>.;.} 4 4 4 4 4 4 4 4 4 4 4 4 4 4 4 4 4 4 4 4 5 4 4   $ ",
"  H S 4 4 4 4 4 4 4 4 4 4 4 4 4 4 4 4 4 4 4 4 K >.>.4 V >.>.f 4 j >.] | >.W 4 K >.%.>.&.K >.} 4 K >.>.8 4 ( >.} T >.@.4 4 K >.>.g K >.+.>.' V >.O.>.{ 4 4 4 4 4 4 4 4 4 4 4 4 4 4 4 4 4 4 4 4 4 4 4   $ ",
"  H M 4 4 4 4 4 4 4 4 4 4 4 4 4 4 5 4 4 4 4 4 K >.>.X.>.;.~ 4 4 Q >.E E >...4 K >.` ' >.' >.} 4 K >.>.8 4 ~ >.@./ ;.X.4 4 V >.>.C K >.) %.-.~ >./ >.| 4 4 4 4 4 4 4 4 4 4 4 4 4 4 4 4 4 4 4 4 4 4 4   $ ",
"  A Z 4 4 4 4 4 4 4 4 4 4 4 4 4 4 4 4 4 4 5 4 K >.>.( ;.>.l 5 5 O.>.) ) >.>.k K >.` k >.>.>.| 4 K >.>.8 4 ( >.[ E >.%.4 4 L >.>.d K >.( ( >.>.| W >.{ 4 4 4 4 4 4 4 4 4 4 4 4 4 4 4 4 4 4 4 4 4 4 4 . $ ",
"  4 4 4 4 4 4 4 4 4 4 4 4 4 4 4 4 4 4 4 4 4 4 K >.>.q ) >.( 4 z >.>.&.&.;.>.~ K >.` 4 / >.>.| 4 K >.>.j L =.>.! C >.>.Y d _ >.X.4 K >.( U >.>.W Q >.{ 4 4 4 4 4 4 4 4 4 4 4 4 4 4 4 4 4 4 4 4 4 4 4   $ ",
"  4 4 4 4 4 4 4 4 4 4 4 4 4 4 4 4 4 4 5 4 4 4 K >.>.8 V >.>.B / >.~ 4 4 ! >.+.K >.` 4 d &.>.| 4 K >.>.>.>.>.' w 4 / >.>.>.>.=.V 4 K >.( r -.>.z W >.} 4 4 4 4 4 4 4 4 4 4 4 4 4 4 4 4 4 4 4 4 4 4 4   $ ",
"  4 4 4 4 4 4 4 4 4 4 4 4 4 4 4 4 4 4 4 4 4 4 j ~ ~ 7 4 T ~ P T ~ k 4 4 h ~ ~ z ~ Y 4 4 L ~ T 4 j ~ ~ ~ E K 4 4 4 4 L ~ ( E f 4 4 k ~ I 4 E ! 4 K ~ T 5 4 4 4 4 4 4 4 4 4 4 4 4 4 4 4 4 4 4 4 4 4 4   $ ",
"  4 4 4 4 4 4 4 4 4 4 4 4 4 4 4 4 4 4 4 4 4 4 4 4 4 5 4 4 4 5 4 4 4 4 4 4 4 4 4 4 4 4 4 4 4 5 4 4 4 4 4 4 4 4 4 4 4 4 4 4 4 4 4 5 4 4 4 4 4 4 4 4 4 4 5 4 4 4 4 4 4 4 4 4 4 4 4 4 4 4 4 4 4 4 4 4 4   $ ",
"  4 4 4 4 4 4 4 4 4 4 4 4 4 4 4 4 4 4 4 4 4 4 4 4 4 4 4 4 4 4 4 5 4 4 4 4 4 4 4 4 4 4 4 4 4 4 4 4 4 5 4 4 4 4 5 4 4 4 4 5 4 4 4 4 4 4 4 4 4 5 4 4 4 4 4 4 4 5 4 4 4 4 4 4 4 4 4 4 4 4 4 4 4 4 4 4 4   $ ",
"  4 4 4 4 4 4 4 4 4 4 4 4 4 4 4 4 4 4 4 4 4 4 4 4 4 4 4 4 4 4 4 4 4 4 5 4 4 4 4 4 4 4 4 4 4 4 4 4 4 4 4 5 4 4 4 4 4 4 4 4 4 4 5 4 4 5 4 4 4 4 4 4 5 4 4 4 4 4 4 4 4 4 4 4 4 4 4 4 4 4 4 4 4 4 4 4 4 . $ ",
"  4 4 4 4 4 4 4 4 4 4 4 4 4 4 4 4 4 4 4 4 5 4 4 4 5 4 4 4 4 4 4 4 4 4 4 4 4 4 5 4 4 4 4 4 5 4 4 4 4 4 4 4 4 4 4 4 4 4 4 4 4 4 4 4 4 4 4 4 4 4 4 4 4 4 4 5 4 4 4 4 4 4 4 4 4 4 4 4 4 4 4 4 4 4 4 4 4   $ ",
"  4 4 4 4 4 4 4 4 4 4 4 4 4 E / U 4 5 g / / 4 C / ) ( I 5 4 4 4 l / / / / Y w 4 4 4 f / / L 4 4 l / / C 4 h / E 4 k / / / ~ I 8 4 4 4 K / ) ~ k 4 4 k / / ~ 4 4 V / / E 4 4 4 4 4 4 4 4 4 4 4 4 4 4   $ ",
"  4 4 4 4 4 4 4 4 4 4 4 4 4 Q >.O.4 4 T >.( K >.>.>.>.| 4 4 4 4 K ;.;.>.>.;.| 7 5 4 T >.>.[ 4 5 K >.>.| 7 V >.} 4 K >.>.;.>.>.X.d 4 ~ >.>.>.>.;.L 4 K >.>.;.h 4 / ;.;.| 4 4 4 4 4 4 4 4 4 4 4 4 4 4   $ ",
"  4 4 4 4 4 4 4 4 4 4 4 4 4 j >.>.k 4 ` ;.I / ;.) w f V 4 4 5 4 K ;.>.4 I >.>.k 4 4 X.>.>.>.h 4 K >.>.>.T V >.} 5 K >.>.d K %.>.~ V >.>.I w ) >.@.4 K >.>.>.T 4 @.>.>.| 4 4 4 4 4 4 4 4 4 4 4 4 4 4   $ ",
"  4 4 4 4 4 4 4 4 4 4 4 4 4 4 | >.W r >.&.w ~ >.-.( T e 4 4 4 4 K >.;.5 C >.;.f 4 k >.[ | >.W 4 K >.%.>.&.K >.| 4 K >.>.8 4 ( >.{ E >.%.4 4 K >.-.g K ;.O.>.[ V ;.O.>.| 4 4 4 4 4 4 4 4 4 4 4 4 4 4   $ ",
"  4 4 4 4 4 4 4 4 4 4 4 4 4 4 E >.[ Y >.( 5 z @.>.>.>.X.q 4 4 4 K >.>.X.-.;.~ 4 4 Q >.E W >...4 K >.` ` >.' >.| 4 K >.>.8 4 ~ >.@./ >.X.4 4 B >.>.C K >.( &.;.~ >./ >.| 4 4 4 4 4 4 4 4 4 4 4 4 4 4 . $ ",
"  4 4 4 4 4 4 4 4 4 4 4 4 4 4 g >.>.' >.P 4 4 8 I ( >.>.C 4 4 4 K ;.>.( >.>.l 4 4 X.>.) ) >.>.l K >.` z >.>.>.[ 4 K >.>.8 4 ( >.[ E >.@.4 4 L >.>.d K >.) ( >.;.[ ! >.[ 4 4 4 4 4 4 4 4 4 4 4 4 4 4   $ ",
"  4 4 4 4 4 4 4 4 4 4 4 4 4 4 4 [ >.>.&.8 4 L P g K >.>.z 4 4 4 K >.>.8 ) >.) 4 B >.;.%.&.;.>.! K >.' 4 / >.>.{ 4 K >.>.j L %.>.Q C >.;.Y d ) >.X.4 K >.) I >.>.Q ! >.| 4 4 4 4 4 4 4 4 4 4 4 4 4 4   $ ",
"  4 4 4 4 4 4 4 4 4 4 4 4 4 4 4 E >.>.( 4 4 ( >.>.>.>.| 7 4 4 4 K >.>.8 C >.>.V ^ >.~ 4 4 ! >.+.K >.( 4 d %.>.| 4 K >.>.>.>.>.' w 4 / >.>.>.>.&.V 4 K >.) r ;.>.z Q >.| 4 4 4 4 4 4 4 4 4 4 4 4 4 4   $ ",
"  4 4 4 4 4 4 4 4 4 4 4 4 4 4 4 f ~ ~ B 4 4 z ! ( ( R e 4 4 4 4 k ~ ~ 7 4 E ~ L T ~ l 4 4 h ~ ~ z ~ Y 4 4 L ~ T 4 j ~ ~ ~ E K 4 4 4 4 K ~ ( W f 4 4 k ~ I 4 E Q 4 K ~ T 4 4 4 4 4 4 4 4 4 4 4 4 4 4   $ ",
"  J H 4 4 4 4 4 4 4 4 4 4 4 4 4 4 4 4 4 4 4 4 4 4 4 4 4 4 4 4 4 4 4 4 4 4 4 4 4 4 4 4 4 4 4 4 4 4 4 4 4 4 4 4 4 4 4 4 4 4 4 4 4 4 4 4 4 4 4 4 4 4 4 4 4 4 4 4 4 4 4 4 4 4 4 4 4 4 4 4 4 4 4 4 4 J J   $ ",
"  N M 9 9 9 9 9 6 9 9 9 9 9 9 9 9 9 9 9 9 9 9 9 9 9 9 9 9 9 9 9 9 9 9 9 9 9 9 9 9 9 9 9 9 9 9 9 9 9 9 9 9 9 9 9 9 9 9 9 9 9 9 9 9 9 9 9 9 9 9 9 9 9 9 9 9 9 9 9 6 9 9 9 9 9 9 9 9 9 9 9 9 9 w 0 M S   $ ",
"  > < J H H H H H H H H F H H H H H H H H H H H H H H H H H H F H H H H H H H H F H H H H H H H H H H H H H H H H H H H H H H H H H H H H H H H H H H H H H H F H H H H H H H H S H H H H H H S 1 >   $ ",
"  > < x x x x c x x x x x x x c x x x x x x x x x x x x x x x c i 3 x x x x x x x x x x x x x x x x x x x x x x x x x x x x x x x x x x x x x x x x x x c x x x x x x x x x x x x x x x x x x x 1 >   $ ",
"  > > > > > < > > > > > > > > > > > > > > > > > > > > > > > > > > > > > > > > > > > > > > > > > > > > > > > > > > > > > > > > > > > > > > > > > > > > > > > > > > > > > > > > > > > > > > > > > > >   $ ",
"3 & * > > > > > > > > > > > > > > > > > > > > > > > > > > > > > > > > > > > > > > > > > > > > > > > > > > > > > > > > > > > > > > > > > > > > > > > > > > > > > > > > > > > > > > > > > > > > > = & 2 2 ",
"G   . > > > > > > > > < > > > > > > > > > > > , > > > > < > > > > > > > > > > > > > > > > > > > > > > > > > > > > > > > > > > > < > > , > > > > > > > > > > > > > > > > > > > > > > > > > > > > o   m m ",
"F D n . + + @ + o + + + @ + @ + + + @ + + + + + o + @ + + + # + + @ + + O + + + + @ + + @ + + @ @ O + @ + + + @ + @ + + + + + + + + + + @ + + + o + + + @ + @ + @ + + @ + + + + + @ + @ @ + + X c b m m ",
"F G D                                                                                                                                                                                           b m m m "
};
